<?xml version="1.0" encoding="utf-8" standalone="no"?>
<!DOCTYPE svg PUBLIC "-//W3C//DTD SVG 1.1//EN"
  "http://www.w3.org/Graphics/SVG/1.1/DTD/svg11.dtd">
<svg xmlns:xlink="http://www.w3.org/1999/xlink" width="245.04pt" height="237.72pt" viewBox="0 0 245.04 237.72" xmlns="http://www.w3.org/2000/svg" version="1.1">
 <metadata>
  <rdf:RDF xmlns:dc="http://purl.org/dc/elements/1.1/" xmlns:cc="http://creativecommons.org/ns#" xmlns:rdf="http://www.w3.org/1999/02/22-rdf-syntax-ns#">
   <cc:Work>
    <dc:type rdf:resource="http://purl.org/dc/dcmitype/StillImage"/>
    <dc:date>2025-10-07T22:15:20.582522</dc:date>
    <dc:format>image/svg+xml</dc:format>
    <dc:creator>
     <cc:Agent>
      <dc:title>Matplotlib v3.10.5, https://matplotlib.org/</dc:title>
     </cc:Agent>
    </dc:creator>
   </cc:Work>
  </rdf:RDF>
 </metadata>
 <defs>
  <style type="text/css">*{stroke-linejoin: round; stroke-linecap: butt}</style>
 </defs>
 <g id="figure_1">
  <g id="patch_1">
   <path d="M 0 237.72 
L 245.04 237.72 
L 245.04 0 
L 0 0 
z
" style="fill: #ffffff"/>
  </g>
  <g id="axes_1">
   <g id="patch_2">
    <path d="M 35.910789 145.030343 
L 242.03976 145.030343 
L 242.03976 14.918738 
L 35.910789 14.918738 
z
" style="fill: #ffffff"/>
   </g>
   <g id="line2d_1">
    <path d="M 53.481378 -1 
L 58.777059 41.592264 
L 64.764809 58.76936 
L 69.409269 69.971233 
L 73.204069 78.295202 
L 76.412527 84.656987 
L 79.191819 89.620321 
L 81.643329 93.566281 
L 83.836279 96.757782 
L 85.820044 99.379326 
L 89.29707 103.404139 
L 92.275539 106.328655 
L 94.880657 108.543255 
L 98.263289 111.027561 
L 102.058089 113.437861 
L 116.914265 122.383058 
L 122.145067 126.044752 
L 132.173937 133.159065 
L 135.382395 135.10459 
L 138.008079 136.448857 
L 140.061806 137.313871 
L 140.061806 137.313871 
" clip-path="url(#p920b32453f)" style="fill: none; stroke: #d43b38; stroke-width: 0.6; stroke-linecap: square"/>
   </g>
   <g id="line2d_2">
    <path d="M 140.201029 137.366218 
L 142.559827 138.130155 
L 145.011337 138.684149 
L 145.230431 138.661128 
L 145.33912 138.457265 
L 145.447243 137.482376 
L 145.554808 133.069268 
L 145.66182 114.281423 
L 145.834202 -1 
M 146.346679 -1 
L 146.498668 105.751123 
L 146.702726 134.653627 
L 146.904803 138.34052 
L 147.104937 138.848288 
L 147.499523 138.961971 
L 151.488846 139.195388 
L 154.065471 139.227252 
L 154.207545 138.979033 
L 154.348656 137.630077 
L 154.488816 130.077743 
L 154.628039 90.619863 
L 154.741484 -1 
M 154.934945 -1 
L 155.175802 124.144113 
L 155.377553 137.389082 
L 155.577366 139.030686 
L 155.77528 139.272667 
L 156.229889 139.332332 
L 158.823667 139.311507 
L 158.993116 139.094065 
L 159.10532 138.526619 
L 159.216922 136.638019 
L 159.327929 130.153742 
L 159.438347 108.971502 
L 159.657441 20.468073 
L 159.711857 32.553757 
L 159.981819 127.099618 
L 160.195295 137.676642 
L 160.406604 139.066795 
L 160.667759 139.325907 
L 161.23102 139.382948 
L 162.072595 139.291374 
L 162.21764 139.114354 
L 162.36168 138.519034 
L 162.504731 136.266477 
L 162.646805 127.183123 
L 162.787916 96.479091 
L 162.928076 60.163927 
L 162.974588 63.305571 
L 163.342983 134.033553 
L 163.569962 138.404575 
L 163.794492 139.10637 
L 164.06077 139.27007 
L 164.453907 139.235236 
L 164.669149 139.011974 
L 164.839755 138.344726 
L 164.966798 136.766233 
L 165.09307 132.074522 
L 165.21858 118.72395 
L 165.426097 82.598256 
L 165.467354 84.028575 
L 165.956154 136.880882 
L 166.196315 138.610026 
L 166.433737 138.905894 
L 166.629541 138.819917 
L 166.784868 138.467922 
L 166.939045 137.424291 
L 167.092088 134.131788 
L 167.244014 123.752421 
L 167.469844 96.516286 
L 167.544579 99.95087 
L 167.914283 134.59787 
L 168.132994 137.651011 
L 168.34943 138.216721 
L 168.45681 138.154191 
L 168.599127 137.689666 
L 168.740478 136.359398 
L 168.880875 132.772113 
L 169.05505 120.393745 
L 169.227779 105.616332 
L 169.262154 105.741178 
L 169.399087 116.784922 
L 169.67028 134.081993 
L 169.904709 137.033906 
L 170.037493 137.300761 
L 170.070557 137.277419 
L 170.169435 136.984169 
L 170.300546 135.857959 
L 170.463282 131.935244 
L 170.656899 119.621293 
L 170.816883 111.697935 
L 170.848733 112.371543 
L 171.070326 127.221771 
L 171.320721 135.133462 
L 171.506559 136.264347 
L 171.568139 136.229961 
L 171.690753 135.573055 
L 171.843013 133.062132 
L 172.024266 125.321732 
L 172.233752 115.993267 
L 172.263507 116.313581 
L 172.411649 123.410182 
L 172.704805 134.016845 
L 172.907586 135.227859 
L 172.99389 134.913412 
L 173.136941 133.103042 
L 173.307314 127.644189 
L 173.53233 119.129535 
L 173.588206 119.544354 
L 173.754939 126.166427 
L 174.029894 133.595812 
L 174.166021 134.250306 
L 174.19314 134.213346 
L 174.301264 133.504483 
L 174.462403 130.35639 
L 174.754625 121.397145 
L 174.833614 122.123099 
L 175.352688 133.359035 
L 175.378305 133.320166 
L 175.480459 132.624791 
L 175.65803 129.079527 
L 175.909104 123.061869 
L 175.958957 123.311406 
L 176.107805 126.917461 
L 176.402345 132.423684 
L 176.475333 132.570962 
L 176.499605 132.520843 
L 176.596414 131.822995 
L 176.78869 128.075955 
L 177.002899 124.327554 
L 177.026565 124.404172 
L 177.14449 126.299085 
L 177.47117 131.809142 
L 177.517423 131.90419 
L 177.563573 131.820287 
L 177.678503 130.840575 
L 178.019534 125.302208 
L 178.10954 125.861246 
L 178.531831 131.330345 
L 178.575788 131.216151 
L 178.707106 129.9838 
L 179.010329 126.040796 
L 179.053289 126.199386 
L 179.202952 128.202416 
L 179.45704 130.842809 
L 179.499088 130.83997 
L 179.52008 130.788072 
L 179.64559 129.821092 
L 179.935538 126.617274 
L 179.997148 126.812284 
L 180.18089 128.999016 
L 180.383164 130.46241 
L 180.403283 130.457748 
L 180.483568 130.159624 
L 180.682935 128.062518 
L 180.841065 127.069328 
L 180.860747 127.10608 
L 180.958879 127.783974 
L 181.269829 130.138733 
L 181.28911 130.119351 
L 181.385247 129.684679 
L 181.689937 127.417596 
L 181.746574 127.558885 
L 181.952931 129.253555 
L 182.101734 129.874816 
L 182.138769 129.836379 
L 182.249481 129.293952 
L 182.505541 127.694854 
L 182.560004 127.782695 
L 182.722542 128.853222 
L 182.919491 129.65574 
L 182.937303 129.637081 
L 183.043859 129.219203 
L 183.307885 127.914612 
L 183.342837 127.967054 
L 183.48206 128.683999 
L 183.689164 129.483429 
L 183.70633 129.472444 
L 183.809029 129.152932 
L 184.063583 128.085737 
L 184.114123 128.15464 
L 184.298391 129.009238 
L 184.431387 129.34254 
L 184.464503 129.320729 
L 184.579998 128.953442 
L 184.792803 128.222889 
L 184.82535 128.241458 
L 184.938865 128.591821 
L 185.164055 129.226186 
L 185.180047 129.21567 
L 185.29165 128.93266 
L 185.513075 128.332852 
L 185.544516 128.359529 
L 185.685414 128.777229 
L 185.856338 129.135696 
L 185.887265 129.116074 
L 186.02587 128.763467 
L 186.194032 128.4185 
L 186.224462 128.435386 
L 186.360847 128.759161 
L 186.541314 129.058819 
L 186.556283 129.049798 
L 186.690517 128.77506 
L 186.868161 128.489664 
L 186.897621 128.510526 
L 187.088104 128.913364 
L 187.204464 128.995363 
L 187.233452 128.970323 
L 187.535419 128.557201 
L 187.606675 128.656169 
L 187.847136 128.943539 
L 187.861194 128.932782 
L 188.181949 128.617657 
L 188.237231 128.691988 
L 188.470557 128.90165 
L 188.484201 128.891161 
L 188.809 128.668275 
L 188.835839 128.700352 
L 189.0891 128.85832 
L 189.41771 128.70825 
L 189.676914 128.832681 
L 189.983756 128.715515 
L 190.248582 128.812881 
L 190.547171 128.73066 
L 190.804968 128.797769 
L 191.095736 128.741783 
L 191.358751 128.780049 
L 191.630213 128.749809 
L 191.89818 128.767232 
L 192.162741 128.760393 
L 192.423982 128.758638 
L 192.693129 128.770835 
L 192.969839 128.744846 
L 193.533873 128.743497 
L 194.850394 128.753098 
L 196.593513 128.757438 
L 221.958115 128.761389 
L 242.038719 128.761389 
L 242.038719 128.761389 
" clip-path="url(#p920b32453f)" style="fill: none; stroke: #d43b38; stroke-width: 0.3; stroke-linecap: square"/>
   </g>
   <g id="matplotlib.axis_1">
    <g id="xtick_1">
     <g id="line2d_3">
      <path d="M 35.910789 145.030343 
L 35.910789 14.918738 
" clip-path="url(#p920b32453f)" style="fill: none; stroke: #000000; stroke-opacity: 0.03; stroke-width: 0.8; stroke-linecap: square"/>
     </g>
     <g id="line2d_4">
      <defs>
       <path id="m9b8c4662b6" d="M 0 0 
L 0 3.5 
" style="stroke: #000000; stroke-width: 0.6"/>
      </defs>
      <g>
       <use xlink:href="#m9b8c4662b6" x="35.910789" y="145.030343" style="stroke: #000000; stroke-width: 0.6"/>
      </g>
     </g>
     <g id="text_1">
      <!-- $\mathdefault{10^{0}}$ -->
      <g transform="translate(29.85015 157.565144) scale(0.08 -0.08)">
       <defs>
        <path id="CMR17-31" d="M 1702 4058 
C 1702 4192 1696 4192 1606 4192 
C 1357 3916 979 3827 621 3827 
C 602 3827 570 3827 563 3808 
C 557 3795 557 3782 557 3648 
C 755 3648 1088 3686 1344 3839 
L 1344 461 
C 1344 236 1331 160 781 160 
L 589 160 
L 589 0 
C 896 0 1216 0 1523 0 
C 1830 0 2150 0 2458 0 
L 2458 160 
L 2266 160 
C 1715 160 1702 230 1702 458 
L 1702 4058 
z
" transform="scale(0.015625)"/>
        <path id="CMR17-30" d="M 2688 2025 
C 2688 2416 2682 3080 2413 3591 
C 2176 4039 1798 4198 1466 4198 
C 1158 4198 768 4058 525 3597 
C 269 3118 243 2524 243 2025 
C 243 1661 250 1106 448 619 
C 723 -39 1216 -128 1466 -128 
C 1760 -128 2208 -7 2470 600 
C 2662 1042 2688 1559 2688 2025 
z
M 1466 -26 
C 1056 -26 813 325 723 812 
C 653 1188 653 1738 653 2096 
C 653 2588 653 2997 736 3387 
C 858 3929 1216 4096 1466 4096 
C 1728 4096 2067 3923 2189 3400 
C 2272 3036 2278 2607 2278 2096 
C 2278 1680 2278 1169 2202 792 
C 2067 95 1690 -26 1466 -26 
z
" transform="scale(0.015625)"/>
       </defs>
       <use xlink:href="#CMR17-31" transform="scale(0.996264)"/>
       <use xlink:href="#CMR17-30" transform="translate(45.690477 0) scale(0.996264)"/>
       <use xlink:href="#CMR17-30" transform="translate(91.380954 36.153639) scale(0.697382)"/>
      </g>
     </g>
    </g>
    <g id="xtick_2">
     <g id="line2d_5">
      <path d="M 83.836279 145.030343 
L 83.836279 14.918738 
" clip-path="url(#p920b32453f)" style="fill: none; stroke: #000000; stroke-opacity: 0.03; stroke-width: 0.8; stroke-linecap: square"/>
     </g>
     <g id="line2d_6">
      <g>
       <use xlink:href="#m9b8c4662b6" x="83.836279" y="145.030343" style="stroke: #000000; stroke-width: 0.6"/>
      </g>
     </g>
     <g id="text_2">
      <!-- $\mathdefault{10^{1}}$ -->
      <g transform="translate(77.77564 157.565144) scale(0.08 -0.08)">
       <use xlink:href="#CMR17-31" transform="scale(0.996264)"/>
       <use xlink:href="#CMR17-30" transform="translate(45.690477 0) scale(0.996264)"/>
       <use xlink:href="#CMR17-31" transform="translate(91.380954 36.153639) scale(0.697382)"/>
      </g>
     </g>
    </g>
    <g id="xtick_3">
     <g id="line2d_7">
      <path d="M 131.761769 145.030343 
L 131.761769 14.918738 
" clip-path="url(#p920b32453f)" style="fill: none; stroke: #000000; stroke-opacity: 0.03; stroke-width: 0.8; stroke-linecap: square"/>
     </g>
     <g id="line2d_8">
      <g>
       <use xlink:href="#m9b8c4662b6" x="131.761769" y="145.030343" style="stroke: #000000; stroke-width: 0.6"/>
      </g>
     </g>
     <g id="text_3">
      <!-- $\mathdefault{10^{2}}$ -->
      <g transform="translate(125.70113 157.565144) scale(0.08 -0.08)">
       <defs>
        <path id="CMR17-32" d="M 2669 989 
L 2554 989 
C 2490 536 2438 459 2413 420 
C 2381 369 1920 369 1830 369 
L 602 369 
C 832 619 1280 1072 1824 1597 
C 2214 1967 2669 2402 2669 3035 
C 2669 3790 2067 4224 1395 4224 
C 691 4224 262 3604 262 3030 
C 262 2780 448 2748 525 2748 
C 589 2748 781 2787 781 3010 
C 781 3207 614 3264 525 3264 
C 486 3264 448 3258 422 3245 
C 544 3790 915 4058 1306 4058 
C 1862 4058 2227 3617 2227 3035 
C 2227 2479 1901 2000 1536 1584 
L 262 146 
L 262 0 
L 2515 0 
L 2669 989 
z
" transform="scale(0.015625)"/>
       </defs>
       <use xlink:href="#CMR17-31" transform="scale(0.996264)"/>
       <use xlink:href="#CMR17-30" transform="translate(45.690477 0) scale(0.996264)"/>
       <use xlink:href="#CMR17-32" transform="translate(91.380954 36.153639) scale(0.697382)"/>
      </g>
     </g>
    </g>
    <g id="xtick_4">
     <g id="line2d_9">
      <path d="M 179.68726 145.030343 
L 179.68726 14.918738 
" clip-path="url(#p920b32453f)" style="fill: none; stroke: #000000; stroke-opacity: 0.03; stroke-width: 0.8; stroke-linecap: square"/>
     </g>
     <g id="line2d_10">
      <g>
       <use xlink:href="#m9b8c4662b6" x="179.68726" y="145.030343" style="stroke: #000000; stroke-width: 0.6"/>
      </g>
     </g>
     <g id="text_4">
      <!-- $\mathdefault{10^{3}}$ -->
      <g transform="translate(173.626621 157.565144) scale(0.08 -0.08)">
       <defs>
        <path id="CMR17-33" d="M 1414 2157 
C 1984 2157 2234 1662 2234 1090 
C 2234 320 1824 25 1453 25 
C 1114 25 563 194 390 693 
C 422 680 454 680 486 680 
C 640 680 755 782 755 948 
C 755 1133 614 1216 486 1216 
C 378 1216 211 1165 211 926 
C 211 335 787 -128 1466 -128 
C 2176 -128 2720 430 2720 1085 
C 2720 1707 2208 2157 1600 2227 
C 2086 2328 2554 2756 2554 3329 
C 2554 3820 2048 4179 1472 4179 
C 890 4179 378 3829 378 3329 
C 378 3110 544 3072 627 3072 
C 762 3072 877 3155 877 3321 
C 877 3486 762 3569 627 3569 
C 602 3569 570 3569 544 3557 
C 730 3959 1235 4032 1459 4032 
C 1683 4032 2106 3925 2106 3320 
C 2106 3143 2080 2828 1862 2550 
C 1670 2304 1453 2304 1242 2284 
C 1210 2284 1062 2269 1037 2269 
C 992 2263 966 2257 966 2208 
C 966 2163 973 2157 1101 2157 
L 1414 2157 
z
" transform="scale(0.015625)"/>
       </defs>
       <use xlink:href="#CMR17-31" transform="scale(0.996264)"/>
       <use xlink:href="#CMR17-30" transform="translate(45.690477 0) scale(0.996264)"/>
       <use xlink:href="#CMR17-33" transform="translate(91.380954 36.153639) scale(0.697382)"/>
      </g>
     </g>
    </g>
    <g id="xtick_5">
     <g id="line2d_11">
      <path d="M 227.61275 145.030343 
L 227.61275 14.918738 
" clip-path="url(#p920b32453f)" style="fill: none; stroke: #000000; stroke-opacity: 0.03; stroke-width: 0.8; stroke-linecap: square"/>
     </g>
     <g id="line2d_12">
      <g>
       <use xlink:href="#m9b8c4662b6" x="227.61275" y="145.030343" style="stroke: #000000; stroke-width: 0.6"/>
      </g>
     </g>
     <g id="text_5">
      <!-- $\mathdefault{10^{4}}$ -->
      <g transform="translate(221.552111 157.565144) scale(0.08 -0.08)">
       <defs>
        <path id="CMR17-34" d="M 2150 4122 
C 2150 4256 2144 4256 2029 4256 
L 128 1254 
L 128 1088 
L 1779 1088 
L 1779 457 
C 1779 224 1766 160 1318 160 
L 1197 160 
L 1197 0 
C 1402 0 1747 0 1965 0 
C 2182 0 2528 0 2733 0 
L 2733 160 
L 2611 160 
C 2163 160 2150 224 2150 457 
L 2150 1088 
L 2803 1088 
L 2803 1254 
L 2150 1254 
L 2150 4122 
z
M 1798 3703 
L 1798 1254 
L 256 1254 
L 1798 3703 
z
" transform="scale(0.015625)"/>
       </defs>
       <use xlink:href="#CMR17-31" transform="scale(0.996264)"/>
       <use xlink:href="#CMR17-30" transform="translate(45.690477 0) scale(0.996264)"/>
       <use xlink:href="#CMR17-34" transform="translate(91.380954 36.153639) scale(0.697382)"/>
      </g>
     </g>
    </g>
    <g id="xtick_6">
     <g id="line2d_13">
      <defs>
       <path id="m3137259749" d="M 0 0 
L 0 2 
" style="stroke: #000000; stroke-width: 0.3"/>
      </defs>
      <g>
       <use xlink:href="#m3137259749" x="50.337799" y="145.030343" style="stroke: #000000; stroke-width: 0.3"/>
      </g>
     </g>
    </g>
    <g id="xtick_7">
     <g id="line2d_14">
      <g>
       <use xlink:href="#m3137259749" x="58.777059" y="145.030343" style="stroke: #000000; stroke-width: 0.3"/>
      </g>
     </g>
    </g>
    <g id="xtick_8">
     <g id="line2d_15">
      <g>
       <use xlink:href="#m3137259749" x="64.764809" y="145.030343" style="stroke: #000000; stroke-width: 0.3"/>
      </g>
     </g>
    </g>
    <g id="xtick_9">
     <g id="line2d_16">
      <g>
       <use xlink:href="#m3137259749" x="69.409269" y="145.030343" style="stroke: #000000; stroke-width: 0.3"/>
      </g>
     </g>
    </g>
    <g id="xtick_10">
     <g id="line2d_17">
      <g>
       <use xlink:href="#m3137259749" x="73.204069" y="145.030343" style="stroke: #000000; stroke-width: 0.3"/>
      </g>
     </g>
    </g>
    <g id="xtick_11">
     <g id="line2d_18">
      <g>
       <use xlink:href="#m3137259749" x="76.412527" y="145.030343" style="stroke: #000000; stroke-width: 0.3"/>
      </g>
     </g>
    </g>
    <g id="xtick_12">
     <g id="line2d_19">
      <g>
       <use xlink:href="#m3137259749" x="79.191819" y="145.030343" style="stroke: #000000; stroke-width: 0.3"/>
      </g>
     </g>
    </g>
    <g id="xtick_13">
     <g id="line2d_20">
      <g>
       <use xlink:href="#m3137259749" x="81.643329" y="145.030343" style="stroke: #000000; stroke-width: 0.3"/>
      </g>
     </g>
    </g>
    <g id="xtick_14">
     <g id="line2d_21">
      <g>
       <use xlink:href="#m3137259749" x="98.263289" y="145.030343" style="stroke: #000000; stroke-width: 0.3"/>
      </g>
     </g>
    </g>
    <g id="xtick_15">
     <g id="line2d_22">
      <g>
       <use xlink:href="#m3137259749" x="106.702549" y="145.030343" style="stroke: #000000; stroke-width: 0.3"/>
      </g>
     </g>
    </g>
    <g id="xtick_16">
     <g id="line2d_23">
      <g>
       <use xlink:href="#m3137259749" x="112.690299" y="145.030343" style="stroke: #000000; stroke-width: 0.3"/>
      </g>
     </g>
    </g>
    <g id="xtick_17">
     <g id="line2d_24">
      <g>
       <use xlink:href="#m3137259749" x="117.334759" y="145.030343" style="stroke: #000000; stroke-width: 0.3"/>
      </g>
     </g>
    </g>
    <g id="xtick_18">
     <g id="line2d_25">
      <g>
       <use xlink:href="#m3137259749" x="121.129559" y="145.030343" style="stroke: #000000; stroke-width: 0.3"/>
      </g>
     </g>
    </g>
    <g id="xtick_19">
     <g id="line2d_26">
      <g>
       <use xlink:href="#m3137259749" x="124.338017" y="145.030343" style="stroke: #000000; stroke-width: 0.3"/>
      </g>
     </g>
    </g>
    <g id="xtick_20">
     <g id="line2d_27">
      <g>
       <use xlink:href="#m3137259749" x="127.11731" y="145.030343" style="stroke: #000000; stroke-width: 0.3"/>
      </g>
     </g>
    </g>
    <g id="xtick_21">
     <g id="line2d_28">
      <g>
       <use xlink:href="#m3137259749" x="129.568819" y="145.030343" style="stroke: #000000; stroke-width: 0.3"/>
      </g>
     </g>
    </g>
    <g id="xtick_22">
     <g id="line2d_29">
      <g>
       <use xlink:href="#m3137259749" x="146.18878" y="145.030343" style="stroke: #000000; stroke-width: 0.3"/>
      </g>
     </g>
    </g>
    <g id="xtick_23">
     <g id="line2d_30">
      <g>
       <use xlink:href="#m3137259749" x="154.628039" y="145.030343" style="stroke: #000000; stroke-width: 0.3"/>
      </g>
     </g>
    </g>
    <g id="xtick_24">
     <g id="line2d_31">
      <g>
       <use xlink:href="#m3137259749" x="160.61579" y="145.030343" style="stroke: #000000; stroke-width: 0.3"/>
      </g>
     </g>
    </g>
    <g id="xtick_25">
     <g id="line2d_32">
      <g>
       <use xlink:href="#m3137259749" x="165.26025" y="145.030343" style="stroke: #000000; stroke-width: 0.3"/>
      </g>
     </g>
    </g>
    <g id="xtick_26">
     <g id="line2d_33">
      <g>
       <use xlink:href="#m3137259749" x="169.05505" y="145.030343" style="stroke: #000000; stroke-width: 0.3"/>
      </g>
     </g>
    </g>
    <g id="xtick_27">
     <g id="line2d_34">
      <g>
       <use xlink:href="#m3137259749" x="172.263507" y="145.030343" style="stroke: #000000; stroke-width: 0.3"/>
      </g>
     </g>
    </g>
    <g id="xtick_28">
     <g id="line2d_35">
      <g>
       <use xlink:href="#m3137259749" x="175.0428" y="145.030343" style="stroke: #000000; stroke-width: 0.3"/>
      </g>
     </g>
    </g>
    <g id="xtick_29">
     <g id="line2d_36">
      <g>
       <use xlink:href="#m3137259749" x="177.49431" y="145.030343" style="stroke: #000000; stroke-width: 0.3"/>
      </g>
     </g>
    </g>
    <g id="xtick_30">
     <g id="line2d_37">
      <g>
       <use xlink:href="#m3137259749" x="194.11427" y="145.030343" style="stroke: #000000; stroke-width: 0.3"/>
      </g>
     </g>
    </g>
    <g id="xtick_31">
     <g id="line2d_38">
      <g>
       <use xlink:href="#m3137259749" x="202.55353" y="145.030343" style="stroke: #000000; stroke-width: 0.3"/>
      </g>
     </g>
    </g>
    <g id="xtick_32">
     <g id="line2d_39">
      <g>
       <use xlink:href="#m3137259749" x="208.54128" y="145.030343" style="stroke: #000000; stroke-width: 0.3"/>
      </g>
     </g>
    </g>
    <g id="xtick_33">
     <g id="line2d_40">
      <g>
       <use xlink:href="#m3137259749" x="213.18574" y="145.030343" style="stroke: #000000; stroke-width: 0.3"/>
      </g>
     </g>
    </g>
    <g id="xtick_34">
     <g id="line2d_41">
      <g>
       <use xlink:href="#m3137259749" x="216.98054" y="145.030343" style="stroke: #000000; stroke-width: 0.3"/>
      </g>
     </g>
    </g>
    <g id="xtick_35">
     <g id="line2d_42">
      <g>
       <use xlink:href="#m3137259749" x="220.188998" y="145.030343" style="stroke: #000000; stroke-width: 0.3"/>
      </g>
     </g>
    </g>
    <g id="xtick_36">
     <g id="line2d_43">
      <g>
       <use xlink:href="#m3137259749" x="222.96829" y="145.030343" style="stroke: #000000; stroke-width: 0.3"/>
      </g>
     </g>
    </g>
    <g id="xtick_37">
     <g id="line2d_44">
      <g>
       <use xlink:href="#m3137259749" x="225.4198" y="145.030343" style="stroke: #000000; stroke-width: 0.3"/>
      </g>
     </g>
    </g>
    <g id="xtick_38">
     <g id="line2d_45">
      <g>
       <use xlink:href="#m3137259749" x="242.03976" y="145.030343" style="stroke: #000000; stroke-width: 0.3"/>
      </g>
     </g>
    </g>
    <g id="text_6">
     <!-- Iteration -->
     <g transform="translate(120.004704 168.033388) scale(0.1 -0.1)">
      <defs>
       <path id="CMR17-49" d="M 1261 3905 
C 1261 4192 1338 4192 1798 4192 
L 1798 4352 
C 1594 4352 1267 4352 1050 4352 
C 832 4352 506 4352 301 4352 
L 301 4192 
C 762 4192 838 4192 838 3905 
L 838 447 
C 838 160 762 160 301 160 
L 301 0 
C 506 0 832 0 1050 0 
C 1267 0 1594 0 1798 0 
L 1798 160 
C 1338 160 1261 160 1261 447 
L 1261 3905 
z
" transform="scale(0.015625)"/>
       <path id="CMR17-74" d="M 966 2560 
L 1862 2560 
L 1862 2725 
L 966 2725 
L 966 3904 
L 851 3904 
C 838 3245 614 2668 70 2668 
L 70 2560 
L 627 2560 
L 627 771 
C 627 650 627 -64 1370 -64 
C 1747 -64 1965 306 1965 777 
L 1965 1140 
L 1850 1140 
L 1850 783 
C 1850 344 1677 51 1408 51 
C 1222 51 966 178 966 758 
L 966 2560 
z
" transform="scale(0.015625)"/>
       <path id="CMR17-65" d="M 2438 1472 
C 2464 1498 2464 1511 2464 1576 
C 2464 2238 2118 2816 1389 2816 
C 710 2816 173 2169 173 1383 
C 173 551 781 -64 1459 -64 
C 2176 -64 2458 607 2458 740 
C 2458 784 2419 784 2406 784 
C 2362 784 2355 771 2330 696 
C 2189 265 1837 51 1504 51 
C 1229 51 954 203 781 480 
C 582 803 582 1176 582 1472 
L 2438 1472 
z
M 589 1568 
C 634 2505 1126 2714 1382 2714 
C 1818 2714 2112 2297 2118 1568 
L 589 1568 
z
" transform="scale(0.015625)"/>
       <path id="CMR17-72" d="M 960 1497 
C 960 2112 1222 2688 1702 2688 
C 1747 2688 1792 2682 1837 2662 
C 1837 2662 1696 2617 1696 2452 
C 1696 2298 1818 2234 1914 2234 
C 1990 2234 2131 2279 2131 2458 
C 2131 2663 1926 2790 1709 2790 
C 1222 2790 1011 2317 947 2093 
L 941 2093 
L 941 2790 
L 198 2720 
L 198 2554 
C 576 2554 634 2515 634 2208 
L 634 428 
C 634 184 608 153 198 153 
L 198 -13 
C 352 0 646 0 813 0 
C 998 0 1325 0 1498 -13 
L 1498 153 
C 1037 153 960 153 960 440 
L 960 1497 
z
" transform="scale(0.015625)"/>
       <path id="CMR17-61" d="M 2304 1653 
C 2304 2072 2304 2294 2035 2543 
C 1798 2752 1523 2816 1306 2816 
C 800 2816 435 2407 435 1971 
C 435 1728 627 1728 666 1728 
C 749 1728 896 1778 896 1954 
C 896 2112 774 2181 666 2181 
C 640 2181 608 2174 589 2168 
C 723 2592 1069 2714 1293 2714 
C 1613 2714 1965 2429 1965 1885 
L 1965 1600 
C 1587 1600 1133 1549 774 1357 
C 371 1133 256 813 256 570 
C 256 77 832 -64 1171 -64 
C 1523 -64 1850 139 1990 511 
C 2003 233 2182 -18 2464 -18 
C 2598 -18 2938 70 2938 567 
L 2938 920 
L 2822 920 
L 2822 562 
C 2822 178 2650 128 2566 128 
C 2304 128 2304 458 2304 738 
L 2304 1653 
z
M 1965 870 
C 1965 317 1568 38 1216 38 
C 896 38 646 275 646 570 
C 646 761 730 1100 1101 1305 
C 1408 1478 1760 1504 1965 1504 
L 1965 870 
z
" transform="scale(0.015625)"/>
       <path id="CMR17-69" d="M 992 3909 
C 992 4049 877 4170 730 4170 
C 589 4170 467 4056 467 3909 
C 467 3769 582 3648 730 3648 
C 870 3648 992 3763 992 3909 
z
M 243 2706 
L 243 2541 
C 602 2541 653 2502 653 2197 
L 653 427 
C 653 184 627 153 218 153 
L 218 -13 
C 371 0 646 0 806 0 
C 960 0 1222 0 1370 -13 
L 1370 153 
C 992 153 979 191 979 420 
L 979 2776 
L 243 2706 
z
" transform="scale(0.015625)"/>
       <path id="CMR17-6f" d="M 2758 1356 
C 2758 2176 2163 2816 1466 2816 
C 768 2816 173 2176 173 1356 
C 173 551 768 -64 1466 -64 
C 2163 -64 2758 551 2758 1356 
z
M 1466 51 
C 1165 51 909 230 762 480 
C 602 767 582 1126 582 1408 
C 582 1677 595 2010 762 2298 
C 890 2509 1139 2714 1466 2714 
C 1754 2714 1997 2554 2150 2330 
C 2349 2029 2349 1607 2349 1408 
C 2349 1158 2336 775 2163 467 
C 1984 173 1709 51 1466 51 
z
" transform="scale(0.015625)"/>
       <path id="CMR17-6e" d="M 2656 1933 
C 2656 2259 2592 2790 1837 2790 
C 1331 2790 1069 2400 973 2144 
L 966 2144 
L 966 2790 
L 211 2720 
L 211 2554 
C 589 2554 646 2515 646 2208 
L 646 428 
C 646 184 621 153 211 153 
L 211 -13 
C 365 0 646 0 813 0 
C 979 0 1267 0 1421 -13 
L 1421 153 
C 1011 153 986 178 986 428 
L 986 1658 
C 986 2247 1344 2688 1792 2688 
C 2266 2688 2317 2266 2317 1958 
L 2317 428 
C 2317 184 2291 153 1882 153 
L 1882 -13 
C 2035 0 2317 0 2483 0 
C 2650 0 2938 0 3091 -13 
L 3091 153 
C 2682 153 2656 178 2656 428 
L 2656 1933 
z
" transform="scale(0.015625)"/>
      </defs>
      <use xlink:href="#CMR17-49" transform="scale(0.996264)"/>
      <use xlink:href="#CMR17-74" transform="translate(32.638409 0) scale(0.996264)"/>
      <use xlink:href="#CMR17-65" transform="translate(67.919177 0) scale(0.996264)"/>
      <use xlink:href="#CMR17-72" transform="translate(108.404837 0) scale(0.996264)"/>
      <use xlink:href="#CMR17-61" transform="translate(143.685605 0) scale(0.996264)"/>
      <use xlink:href="#CMR17-74" transform="translate(189.376082 0) scale(0.996264)"/>
      <use xlink:href="#CMR17-69" transform="translate(224.65685 0) scale(0.996264)"/>
      <use xlink:href="#CMR17-6f" transform="translate(249.527909 0) scale(0.996264)"/>
      <use xlink:href="#CMR17-6e" transform="translate(295.218386 0) scale(0.996264)"/>
     </g>
    </g>
   </g>
   <g id="matplotlib.axis_2">
    <g id="ytick_1">
     <g id="line2d_46">
      <path d="M 35.910789 137.683483 
L 242.03976 137.683483 
" clip-path="url(#p920b32453f)" style="fill: none; stroke: #000000; stroke-opacity: 0.03; stroke-width: 0.8; stroke-linecap: square"/>
     </g>
     <g id="line2d_47">
      <defs>
       <path id="m1a033a6d84" d="M 0 0 
L -3.5 0 
" style="stroke: #000000; stroke-width: 0.6"/>
      </defs>
      <g>
       <use xlink:href="#m1a033a6d84" x="35.910789" y="137.683483" style="stroke: #000000; stroke-width: 0.6"/>
      </g>
     </g>
     <g id="text_7">
      <!-- $\mathdefault{0.02}$ -->
      <g transform="translate(13.855917 140.450883) scale(0.08 -0.08)">
       <defs>
        <path id="CMMI12-3a" d="M 1178 307 
C 1178 492 1024 619 870 619 
C 685 619 557 466 557 313 
C 557 128 710 0 864 0 
C 1050 0 1178 153 1178 307 
z
" transform="scale(0.015625)"/>
       </defs>
       <use xlink:href="#CMR17-30" transform="scale(0.996264)"/>
       <use xlink:href="#CMMI12-3a" transform="translate(45.690477 0) scale(0.996264)"/>
       <use xlink:href="#CMR17-30" transform="translate(72.787654 0) scale(0.996264)"/>
       <use xlink:href="#CMR17-32" transform="translate(118.478131 0) scale(0.996264)"/>
      </g>
     </g>
    </g>
    <g id="ytick_2">
     <g id="line2d_48">
      <path d="M 35.910789 115.36262 
L 242.03976 115.36262 
" clip-path="url(#p920b32453f)" style="fill: none; stroke: #000000; stroke-opacity: 0.03; stroke-width: 0.8; stroke-linecap: square"/>
     </g>
     <g id="line2d_49">
      <g>
       <use xlink:href="#m1a033a6d84" x="35.910789" y="115.36262" style="stroke: #000000; stroke-width: 0.6"/>
      </g>
     </g>
     <g id="text_8">
      <!-- $\mathdefault{0.04}$ -->
      <g transform="translate(13.855917 118.130021) scale(0.08 -0.08)">
       <use xlink:href="#CMR17-30" transform="scale(0.996264)"/>
       <use xlink:href="#CMMI12-3a" transform="translate(45.690477 0) scale(0.996264)"/>
       <use xlink:href="#CMR17-30" transform="translate(72.787654 0) scale(0.996264)"/>
       <use xlink:href="#CMR17-34" transform="translate(118.478131 0) scale(0.996264)"/>
      </g>
     </g>
    </g>
    <g id="ytick_3">
     <g id="line2d_50">
      <path d="M 35.910789 93.041757 
L 242.03976 93.041757 
" clip-path="url(#p920b32453f)" style="fill: none; stroke: #000000; stroke-opacity: 0.03; stroke-width: 0.8; stroke-linecap: square"/>
     </g>
     <g id="line2d_51">
      <g>
       <use xlink:href="#m1a033a6d84" x="35.910789" y="93.041757" style="stroke: #000000; stroke-width: 0.6"/>
      </g>
     </g>
     <g id="text_9">
      <!-- $\mathdefault{0.06}$ -->
      <g transform="translate(13.855917 95.809158) scale(0.08 -0.08)">
       <defs>
        <path id="CMR17-36" d="M 678 2176 
C 678 3690 1395 4032 1811 4032 
C 1946 4032 2272 4009 2400 3776 
C 2298 3776 2106 3776 2106 3553 
C 2106 3381 2246 3323 2336 3323 
C 2394 3323 2566 3348 2566 3560 
C 2566 3954 2246 4179 1805 4179 
C 1043 4179 243 3390 243 1984 
C 243 253 966 -128 1478 -128 
C 2099 -128 2688 427 2688 1283 
C 2688 2081 2170 2662 1517 2662 
C 1126 2662 838 2407 678 1960 
L 678 2176 
z
M 1478 25 
C 691 25 691 1200 691 1436 
C 691 1896 909 2560 1504 2560 
C 1613 2560 1926 2560 2138 2120 
C 2253 1870 2253 1609 2253 1289 
C 2253 944 2253 690 2118 434 
C 1978 171 1773 25 1478 25 
z
" transform="scale(0.015625)"/>
       </defs>
       <use xlink:href="#CMR17-30" transform="scale(0.996264)"/>
       <use xlink:href="#CMMI12-3a" transform="translate(45.690477 0) scale(0.996264)"/>
       <use xlink:href="#CMR17-30" transform="translate(72.787654 0) scale(0.996264)"/>
       <use xlink:href="#CMR17-36" transform="translate(118.478131 0) scale(0.996264)"/>
      </g>
     </g>
    </g>
    <g id="ytick_4">
     <g id="line2d_52">
      <path d="M 35.910789 70.720895 
L 242.03976 70.720895 
" clip-path="url(#p920b32453f)" style="fill: none; stroke: #000000; stroke-opacity: 0.03; stroke-width: 0.8; stroke-linecap: square"/>
     </g>
     <g id="line2d_53">
      <g>
       <use xlink:href="#m1a033a6d84" x="35.910789" y="70.720895" style="stroke: #000000; stroke-width: 0.6"/>
      </g>
     </g>
     <g id="text_10">
      <!-- $\mathdefault{0.08}$ -->
      <g transform="translate(13.855917 73.488296) scale(0.08 -0.08)">
       <defs>
        <path id="CMR17-38" d="M 1741 2264 
C 2144 2467 2554 2773 2554 3263 
C 2554 3841 1990 4179 1472 4179 
C 890 4179 378 3759 378 3180 
C 378 3021 416 2747 666 2505 
C 730 2442 998 2251 1171 2130 
C 883 1983 211 1634 211 934 
C 211 279 838 -128 1459 -128 
C 2144 -128 2720 362 2720 1010 
C 2720 1590 2330 1857 2074 2029 
L 1741 2264 
z
M 902 2822 
C 851 2854 595 3051 595 3351 
C 595 3739 998 4032 1459 4032 
C 1965 4032 2336 3676 2336 3262 
C 2336 2669 1670 2331 1638 2331 
C 1632 2331 1626 2331 1574 2370 
L 902 2822 
z
M 2080 1519 
C 2176 1449 2483 1240 2483 851 
C 2483 381 2010 25 1472 25 
C 890 25 448 438 448 940 
C 448 1443 838 1862 1280 2060 
L 2080 1519 
z
" transform="scale(0.015625)"/>
       </defs>
       <use xlink:href="#CMR17-30" transform="scale(0.996264)"/>
       <use xlink:href="#CMMI12-3a" transform="translate(45.690477 0) scale(0.996264)"/>
       <use xlink:href="#CMR17-30" transform="translate(72.787654 0) scale(0.996264)"/>
       <use xlink:href="#CMR17-38" transform="translate(118.478131 0) scale(0.996264)"/>
      </g>
     </g>
    </g>
    <g id="ytick_5">
     <g id="line2d_54">
      <path d="M 35.910789 48.400032 
L 242.03976 48.400032 
" clip-path="url(#p920b32453f)" style="fill: none; stroke: #000000; stroke-opacity: 0.03; stroke-width: 0.8; stroke-linecap: square"/>
     </g>
     <g id="line2d_55">
      <g>
       <use xlink:href="#m1a033a6d84" x="35.910789" y="48.400032" style="stroke: #000000; stroke-width: 0.6"/>
      </g>
     </g>
     <g id="text_11">
      <!-- $\mathdefault{0.10}$ -->
      <g transform="translate(13.855917 51.167433) scale(0.08 -0.08)">
       <use xlink:href="#CMR17-30" transform="scale(0.996264)"/>
       <use xlink:href="#CMMI12-3a" transform="translate(45.690477 0) scale(0.996264)"/>
       <use xlink:href="#CMR17-31" transform="translate(72.787654 0) scale(0.996264)"/>
       <use xlink:href="#CMR17-30" transform="translate(118.478131 0) scale(0.996264)"/>
      </g>
     </g>
    </g>
    <g id="ytick_6">
     <g id="line2d_56">
      <path d="M 35.910789 26.07917 
L 242.03976 26.07917 
" clip-path="url(#p920b32453f)" style="fill: none; stroke: #000000; stroke-opacity: 0.03; stroke-width: 0.8; stroke-linecap: square"/>
     </g>
     <g id="line2d_57">
      <g>
       <use xlink:href="#m1a033a6d84" x="35.910789" y="26.07917" style="stroke: #000000; stroke-width: 0.6"/>
      </g>
     </g>
     <g id="text_12">
      <!-- $\mathdefault{0.12}$ -->
      <g transform="translate(13.855917 28.846571) scale(0.08 -0.08)">
       <use xlink:href="#CMR17-30" transform="scale(0.996264)"/>
       <use xlink:href="#CMMI12-3a" transform="translate(45.690477 0) scale(0.996264)"/>
       <use xlink:href="#CMR17-31" transform="translate(72.787654 0) scale(0.996264)"/>
       <use xlink:href="#CMR17-32" transform="translate(118.478131 0) scale(0.996264)"/>
      </g>
     </g>
    </g>
    <g id="text_13">
     <!-- Training MSE -->
     <g transform="translate(9.918738 110.775769) rotate(-90) scale(0.1 -0.1)">
      <defs>
       <path id="CMR17-54" d="M 3981 4326 
L 288 4326 
L 179 2918 
L 294 2918 
C 378 3976 467 4160 1453 4160 
C 1568 4160 1754 4160 1805 4154 
C 1926 4135 1926 4058 1926 3912 
L 1926 459 
C 1926 230 1907 160 1376 160 
L 1197 160 
L 1197 0 
C 1504 0 1824 0 2138 0 
C 2451 0 2771 0 3078 0 
L 3078 160 
L 2899 160 
C 2368 160 2349 230 2349 459 
L 2349 3912 
C 2349 4052 2349 4129 2464 4154 
C 2515 4160 2701 4160 2816 4160 
C 3795 4160 3891 3976 3974 2918 
L 4090 2918 
L 3981 4326 
z
" transform="scale(0.015625)"/>
       <path id="CMR17-67" d="M 710 1164 
C 832 1068 1043 960 1299 960 
C 1805 960 2240 1357 2240 1888 
C 2240 2054 2189 2310 1997 2509 
C 2176 2692 2438 2752 2586 2752 
C 2611 2752 2650 2752 2682 2734 
C 2656 2728 2598 2703 2598 2605 
C 2598 2527 2656 2471 2739 2471 
C 2835 2471 2886 2533 2886 2614 
C 2886 2731 2790 2854 2586 2854 
C 2330 2854 2106 2738 1926 2580 
C 1734 2753 1504 2816 1299 2816 
C 794 2816 358 2419 358 1888 
C 358 1522 570 1292 634 1228 
C 442 1004 442 743 442 711 
C 442 545 506 302 723 168 
C 390 85 128 -169 128 -486 
C 128 -943 736 -1280 1466 -1280 
C 2170 -1280 2803 -956 2803 -479 
C 2803 384 1856 384 1363 384 
C 1216 384 954 384 922 391 
C 723 423 589 602 589 826 
C 589 883 589 1024 710 1164 
z
M 1299 1068 
C 736 1068 736 1760 736 1889 
C 736 2016 736 2708 1299 2708 
C 1862 2708 1862 2016 1862 1889 
C 1862 1760 1862 1068 1299 1068 
z
M 1466 -1171 
C 826 -1171 384 -835 384 -486 
C 384 -289 493 -105 634 -4 
C 794 104 858 104 1293 104 
C 1818 104 2547 104 2547 -486 
C 2547 -835 2106 -1171 1466 -1171 
z
" transform="scale(0.015625)"/>
       <path id="CMR17-4d" d="M 1338 4224 
C 1299 4320 1293 4320 1158 4320 
L 339 4320 
L 339 4160 
C 781 4160 851 4160 851 3875 
L 851 610 
C 851 451 851 153 339 153 
L 339 -13 
C 486 0 755 0 915 0 
C 1075 0 1344 0 1491 -13 
L 1491 153 
C 979 153 979 451 979 610 
L 979 4135 
L 986 4135 
L 2490 89 
C 2515 25 2528 -13 2579 -13 
C 2630 -13 2643 25 2669 89 
L 4186 4166 
L 4192 4166 
L 4192 438 
C 4192 153 4122 153 3680 153 
L 3680 -13 
C 3853 0 4198 0 4384 0 
C 4570 0 4922 0 5094 -13 
L 5094 153 
C 4653 153 4582 153 4582 438 
L 4582 3875 
C 4582 4160 4653 4160 5094 4160 
L 5094 4320 
L 4282 4320 
C 4147 4320 4141 4314 4102 4218 
L 2720 502 
L 1338 4224 
z
" transform="scale(0.015625)"/>
       <path id="CMR17-53" d="M 2803 4290 
C 2803 4404 2797 4411 2758 4411 
C 2720 4411 2707 4385 2682 4328 
L 2490 3907 
C 2246 4257 1875 4416 1472 4416 
C 819 4416 294 3901 294 3253 
C 294 3056 339 2776 557 2510 
C 794 2218 1018 2167 1530 2033 
C 1722 1982 2042 1899 2106 1874 
C 2470 1722 2662 1341 2662 985 
C 2662 527 2336 38 1779 38 
C 1094 38 454 419 410 1311 
C 403 1413 397 1419 352 1419 
C 301 1419 294 1413 294 1285 
L 294 -1 
C 294 -115 301 -122 339 -122 
C 384 -122 397 -90 486 108 
C 493 127 493 140 614 381 
C 934 -39 1472 -128 1779 -128 
C 2477 -128 2970 451 2970 1124 
C 2970 1454 2848 1708 2778 1823 
C 2509 2230 2221 2306 1914 2382 
C 1869 2402 1856 2402 1498 2490 
C 1152 2579 1005 2624 845 2796 
C 666 2992 602 3196 602 3399 
C 602 3812 934 4263 1478 4263 
C 2157 4263 2579 3786 2675 2993 
C 2694 2878 2701 2872 2746 2872 
C 2803 2872 2803 2891 2803 2999 
L 2803 4290 
z
" transform="scale(0.015625)"/>
       <path id="CMR17-45" d="M 3885 1615 
L 3770 1615 
C 3629 676 3546 166 2419 166 
L 1530 166 
C 1274 166 1261 197 1261 414 
L 1261 2176 
L 1862 2176 
C 2464 2176 2522 1960 2522 1430 
L 2637 1430 
L 2637 3081 
L 2522 3081 
C 2522 2557 2464 2342 1862 2342 
L 1261 2342 
L 1261 3913 
C 1261 4128 1274 4160 1530 4160 
L 2406 4160 
C 3398 4160 3514 3769 3603 2929 
L 3718 2929 
L 3565 4325 
L 326 4325 
L 326 4160 
C 768 4160 838 4160 838 3874 
L 838 451 
C 838 166 768 166 326 166 
L 326 0 
L 3654 0 
L 3885 1615 
z
" transform="scale(0.015625)"/>
      </defs>
      <use xlink:href="#CMR17-54" transform="scale(0.996264)"/>
      <use xlink:href="#CMR17-72" transform="translate(58.702625 0) scale(0.996264)"/>
      <use xlink:href="#CMR17-61" transform="translate(93.983393 0) scale(0.996264)"/>
      <use xlink:href="#CMR17-69" transform="translate(139.67387 0) scale(0.996264)"/>
      <use xlink:href="#CMR17-6e" transform="translate(164.544929 0) scale(0.996264)"/>
      <use xlink:href="#CMR17-69" transform="translate(215.440298 0) scale(0.996264)"/>
      <use xlink:href="#CMR17-6e" transform="translate(240.311357 0) scale(0.996264)"/>
      <use xlink:href="#CMR17-67" transform="translate(291.206727 0) scale(0.996264)"/>
      <use xlink:href="#CMR17-4d" transform="translate(366.97317 0) scale(0.996264)"/>
      <use xlink:href="#CMR17-53" transform="translate(451.660111 0) scale(0.996264)"/>
      <use xlink:href="#CMR17-45" transform="translate(502.55548 0) scale(0.996264)"/>
     </g>
    </g>
   </g>
   <g id="line2d_58">
    <path d="M 35.910789 139.450127 
L 242.03976 139.450127 
" clip-path="url(#p920b32453f)" style="fill: none; stroke-dasharray: 2.22,0.96; stroke-dashoffset: 0; stroke: #000000; stroke-width: 0.6"/>
   </g>
   <g id="line2d_59">
    <path d="M -1 27.69249 
L 35.910789 27.709281 
L 50.337799 41.596513 
L 58.777059 50.742287 
L 64.764809 57.031977 
L 69.409269 61.586554 
L 76.412527 67.88976 
L 87.631079 77.624472 
L 92.275539 81.961999 
L 98.263289 87.881679 
L 106.702549 96.272593 
L 110.497349 99.74634 
L 113.705807 102.404212 
L 116.4851 104.451463 
L 119.318524 106.270609 
L 122.145067 107.812185 
L 124.924359 109.078245 
L 128.132817 110.276757 
L 131.761769 111.381339 
L 137.69742 112.911097 
L 144.789912 114.796307 
L 149.721768 116.343303 
L 154.418854 118.052965 
L 159.049293 119.977449 
L 163.883631 122.232493 
L 169.364938 125.046162 
L 186.254847 133.919584 
L 189.971061 135.485199 
L 193.351154 136.671435 
L 196.611981 137.581375 
L 199.908597 138.269524 
L 203.416506 138.771426 
L 207.424319 139.113195 
L 212.590356 139.316233 
L 221.661046 139.411267 
L 242.038719 139.448564 
L 242.038719 139.448564 
" clip-path="url(#p920b32453f)" style="fill: none; stroke: #1f77b4; stroke-width: 0.6; stroke-linecap: square"/>
   </g>
   <g id="line2d_60">
    <path d="M -1 32.383867 
L 35.910789 32.404274 
L 58.777059 57.024512 
L 64.764809 62.631164 
L 69.409269 66.542327 
L 79.191819 74.47622 
L 83.836279 78.541762 
L 89.29707 83.714617 
L 105.266547 99.380645 
L 108.686314 102.243876 
L 111.622692 104.417314 
L 114.674064 106.366574 
L 117.334759 107.80575 
L 120.061952 109.044905 
L 123.113324 110.18804 
L 126.855498 111.329301 
L 132.777277 112.847826 
L 139.921646 114.732207 
L 144.900919 116.284161 
L 149.545379 117.964667 
L 154.207545 119.891701 
L 158.993116 122.113566 
L 164.41059 124.883293 
L 181.97159 134.08471 
L 185.654186 135.612503 
L 189.02275 136.771405 
L 192.276727 137.656844 
L 195.590473 138.326551 
L 199.138222 138.8124 
L 203.222577 139.139422 
L 208.582866 139.329894 
L 218.563109 139.417376 
L 242.038719 139.449686 
L 242.038719 139.449686 
" clip-path="url(#p920b32453f)" style="fill: none; stroke: #ff7f0e; stroke-width: 0.6; stroke-linecap: square"/>
   </g>
   <g id="line2d_61">
    <path d="M -1 27.69264 
L 35.910789 27.709431 
L 50.337799 41.598129 
L 58.777059 50.746018 
L 64.764809 57.037429 
L 69.409269 61.592448 
L 76.412527 67.890644 
L 87.631079 77.575744 
L 93.61883 83.147511 
L 109.911007 98.75808 
L 113.204246 101.454429 
L 116.4851 103.827174 
L 119.318524 105.599461 
L 122.145067 107.109508 
L 125.211451 108.475651 
L 128.379137 109.632121 
L 132.173937 110.759665 
L 137.22256 111.99787 
L 169.804563 119.316623 
L 175.275647 120.247739 
L 180.322688 120.882022 
L 185.465824 121.301522 
L 191.334977 121.548664 
L 199.670903 121.653681 
L 230.505428 121.66581 
L 242.038719 121.66581 
L 242.038719 121.66581 
" clip-path="url(#p920b32453f)" style="fill: none; stroke: #2ca02c; stroke-width: 0.6; stroke-linecap: square"/>
   </g>
   <g id="line2d_62">
    <path d="M -1 37.093241 
L 35.910789 37.107548 
L 50.337799 51.728801 
L 58.777059 65.329284 
L 64.764809 74.116807 
L 69.409269 80.591832 
L 73.204069 85.671548 
L 76.412527 89.745369 
L 79.191819 93.054626 
L 81.643329 95.770426 
L 85.820044 99.899841 
L 89.29707 102.832524 
L 92.275539 104.991091 
L 94.880657 106.640008 
L 98.263289 108.510756 
L 102.907749 110.750735 
L 115.599273 116.635779 
L 121.473597 119.705413 
L 128.622576 123.718451 
L 140.339327 130.316019 
L 145.121172 132.728783 
L 149.188052 134.534323 
L 152.892553 135.934668 
L 156.421723 137.028095 
L 159.874254 137.864574 
L 163.434071 138.496869 
L 167.281823 138.950599 
L 171.782243 139.247962 
L 177.815587 139.405332 
L 190.223506 139.449525 
L 242.038719 139.450127 
L 242.038719 139.450127 
" clip-path="url(#p920b32453f)" style="fill: none; stroke: #cd853f; stroke-width: 0.6; stroke-linecap: square"/>
   </g>
   <g id="line2d_63">
    <path d="M -1 36.293838 
L 35.910789 36.307528 
L 50.337799 58.772589 
L 58.777059 70.302529 
L 64.764809 81.71165 
L 69.409269 94.635744 
L 73.204069 103.301095 
L 76.412527 104.922645 
L 79.191819 102.147916 
L 81.643329 98.537986 
L 83.836279 95.929459 
L 85.820044 94.490278 
L 87.631079 94.168556 
L 89.29707 94.893074 
L 90.839537 95.918866 
L 92.275539 97.021712 
L 93.61883 98.940059 
L 94.880657 102.455201 
L 96.070339 106.825715 
L 97.195682 110.235348 
L 98.263289 111.828115 
L 99.278797 112.592066 
L 101.172263 114.839474 
L 102.058089 115.244981 
L 102.907749 114.95887 
L 103.72408 114.822154 
L 104.509599 115.263439 
L 105.266547 116.137352 
L 105.99693 117.367426 
L 109.307667 124.224002 
L 109.911007 124.918831 
L 110.497349 125.231696 
L 112.16334 127.115011 
L 112.690299 127.81422 
L 114.674064 131.49411 
L 115.599273 132.753835 
L 116.4851 133.53868 
L 118.547555 136.468374 
L 119.318524 137.15732 
L 120.061952 137.624497 
L 121.473597 138.839556 
L 123.734677 139.352653 
L 126.049702 139.15442 
L 127.883547 139.171263 
L 128.8632 139.290452 
L 129.568819 139.353145 
L 137.382054 139.398802 
L 137.69742 139.388515 
L 139.060263 139.39569 
L 139.49541 139.412387 
L 140.201029 139.432267 
L 140.748792 139.430034 
L 142.058266 139.401337 
L 222.299421 139.390736 
L 222.302108 139.359715 
L 222.30748 139.448939 
L 222.406612 139.408469 
L 222.409285 139.449185 
L 222.449335 139.37451 
L 222.515913 139.404555 
L 222.55045 139.364616 
L 222.523888 139.448814 
L 222.624643 139.396119 
L 222.661641 139.449732 
L 222.656359 139.376781 
L 222.732808 139.404078 
L 222.82994 139.372709 
L 222.753848 139.44889 
L 222.843031 139.407122 
L 222.913582 139.450003 
L 222.86396 139.378143 
L 222.95007 139.423356 
L 223.043604 139.370819 
L 223.015068 139.447631 
L 223.059152 139.389032 
L 223.165088 139.448337 
L 223.126393 139.371504 
L 223.170241 139.393841 
L 223.265358 139.449093 
L 223.216569 139.372084 
L 223.280741 139.383983 
L 223.288429 139.444913 
L 223.400853 139.388956 
L 223.436498 139.446409 
L 223.497461 139.368045 
L 223.512673 139.439891 
L 223.560774 139.37648 
L 223.623896 139.39407 
L 224.288803 139.3741 
L 224.291244 139.404379 
L 224.386246 139.448349 
L 224.361928 139.366645 
L 224.400823 139.389873 
L 224.519489 139.449778 
L 224.533973 139.40554 
L 224.59181 139.37142 
L 224.541212 139.446324 
L 224.644685 139.407659 
L 224.747647 139.447945 
L 224.651885 139.376435 
L 224.750035 139.403784 
L 224.783444 139.372836 
L 224.788213 139.446377 
L 224.857231 139.4214 
L 224.952055 139.448686 
L 224.895212 139.368832 
L 224.966241 139.404244 
L 225.060571 139.36881 
L 224.98278 139.448369 
L 225.074683 139.422734 
L 225.145103 139.443968 
L 225.081736 139.381055 
L 225.180224 139.387876 
L 225.27592 139.367655 
L 225.187241 139.44068 
L 225.299194 139.405405 
L 225.361903 139.446116 
L 225.31547 139.379988 
L 225.410547 139.410657 
L 225.452152 139.373602 
L 225.417487 139.450035 
L 225.521308 139.394234 
L 225.601701 139.446802 
L 225.597116 139.356547 
L 225.631483 139.402887 
L 225.741077 139.379366 
L 225.647501 139.448852 
L 225.743354 139.392974 
L 225.813821 139.446638 
L 225.782027 139.374796 
L 225.854628 139.423976 
L 225.924719 139.364783 
L 225.870476 139.444788 
L 225.96531 139.394193 
L 226.026047 139.447802 
L 226.021554 139.374699 
L 226.075406 139.417479 
L 226.144759 139.373086 
L 226.11123 139.44972 
L 226.187152 139.397391 
L 226.253913 139.447829 
L 226.238354 139.370145 
L 226.296084 139.425943 
L 226.375754 139.374688 
L 226.313815 139.444004 
L 226.406655 139.436261 
L 226.499082 139.439505 
L 226.450719 139.362854 
L 226.503474 139.38558 
L 226.571417 139.369215 
L 226.510058 139.439557 
L 226.610767 139.403377 
L 226.678362 139.448135 
L 226.663118 139.368597 
L 226.721855 139.416745 
L 226.793421 139.362198 
L 226.76309 139.448178 
L 226.832354 139.416724 
L 226.847475 139.368054 
L 226.944418 139.446856 
L 226.998082 139.374585 
L 226.953014 139.448227 
L 227.055883 139.434737 
L 227.139091 139.448895 
L 227.072978 139.372644 
L 227.158246 139.426442 
L 227.224089 139.36646 
L 227.164627 139.445241 
L 227.266458 139.429124 
L 227.359367 139.444391 
L 227.272806 139.381402 
L 227.372005 139.39012 
L 227.548127 139.433161 
L 227.380425 139.376376 
L 227.550215 139.393779 
L 227.650181 139.377831 
L 227.556477 139.445775 
L 227.652259 139.417828 
L 227.755872 139.448251 
L 227.687545 139.375301 
L 227.762072 139.395655 
L 227.863085 139.445975 
L 227.848685 139.368208 
L 227.873365 139.413552 
L 227.939037 139.374504 
L 227.934938 139.448354 
L 227.98611 139.381104 
L 228.092147 139.445264 
L 228.037157 139.373194 
L 228.098248 139.398211 
L 228.187526 139.443635 
L 228.130757 139.365217 
L 228.207763 139.387405 
L 228.304628 139.366915 
L 228.21383 139.443079 
L 228.32274 139.405175 
L 228.431082 139.36293 
L 228.435084 139.44487 
L 228.501004 139.376457 
L 228.497015 139.447369 
L 228.546826 139.424908 
L 228.64411 139.448262 
L 228.576655 139.366962 
L 228.655991 139.40444 
L 228.669843 139.440717 
L 228.80197 139.379319 
L 228.831436 139.449979 
L 228.8589 139.365791 
L 228.913719 139.439297 
L 229.001521 139.373074 
L 228.956691 139.442957 
L 229.026817 139.390831 
L 229.106396 139.449811 
L 229.087014 139.373238 
L 229.139303 139.43787 
L 229.216527 139.371977 
L 229.1625 139.449854 
L 229.251184 139.407497 
L 229.347154 139.449282 
L 229.260801 139.376249 
L 229.364381 139.414967 
L 229.366295 139.362457 
L 229.421704 139.448481 
L 229.475063 139.392393 
L 229.495988 139.368318 
L 229.588945 139.449589 
L 229.677719 139.377446 
L 229.702207 139.382944 
L 229.809238 139.444495 
L 229.732306 139.3751 
L 229.818601 139.424096 
L 229.911995 139.374427 
L 229.841053 139.448235 
L 229.930623 139.412022 
L 229.995693 139.449426 
L 230.014247 139.366594 
L 230.038342 139.419175 
L 230.088297 139.372159 
L 230.06796 139.449226 
L 230.151034 139.380628 
L 230.248454 139.447673 
L 230.220928 139.372684 
L 230.263119 139.428324 
L 230.266784 139.374272 
L 230.372781 139.431797 
L 230.458281 139.3694 
L 230.401927 139.446086 
L 230.481868 139.395057 
L 230.588582 139.448662 
L 230.503617 139.372849 
L 230.59219 139.393604 
L 230.658823 139.449491 
L 230.624633 139.372385 
L 230.703725 139.428595 
L 230.768214 139.37508 
L 230.718073 139.449335 
L 230.81645 139.403866 
L 230.834286 139.36585 
L 230.926792 139.449971 
L 230.979975 139.369045 
L 231.040084 139.38247 
L 231.131682 139.448813 
L 231.061258 139.360077 
L 231.154518 139.441207 
L 231.210625 139.371654 
L 231.184344 139.447639 
L 231.268327 139.395873 
L 231.358928 139.447149 
L 231.277056 139.364438 
L 231.381516 139.439729 
L 231.468168 139.37289 
L 231.411019 139.447431 
L 231.492366 139.420299 
L 231.568235 139.449134 
L 231.513085 139.374076 
L 231.600911 139.392054 
L 231.739641 139.434863 
L 231.618088 139.374482 
L 231.741348 139.413207 
L 231.773754 139.36778 
L 231.746468 139.449398 
L 231.850303 139.402049 
L 231.929956 139.449602 
L 231.868973 139.375146 
L 231.96038 139.432227 
L 232.005934 139.363893 
L 232.017728 139.446445 
L 232.073238 139.373383 
L 232.178802 139.448291 
L 232.183816 139.389174 
L 232.302119 139.446611 
L 232.19551 139.367693 
L 232.30378 139.408449 
L 232.393302 139.376156 
L 232.353562 139.44616 
L 232.414796 139.392037 
L 232.518647 139.449879 
L 232.451121 139.370297 
L 232.528511 139.414152 
L 232.572839 139.36801 
L 232.546582 139.448856 
L 232.638337 139.400688 
L 232.667745 139.447618 
L 232.69385 139.369088 
L 232.747588 139.42337 
L 232.815782 139.370782 
L 232.791452 139.448705 
L 232.857886 139.390985 
L 232.956334 139.448257 
L 232.864355 139.366945 
L 232.97082 139.437355 
L 232.98208 139.370218 
L 232.999762 139.445615 
L 233.083145 139.387441 
L 233.183722 139.449075 
L 233.140677 139.370364 
L 233.19805 139.435058 
L 233.247329 139.360946 
L 233.231445 139.449275 
L 233.310742 139.370071 
L 233.32182 139.449653 
L 233.421252 139.417789 
L 233.524913 139.371989 
L 233.438565 139.448367 
L 233.532745 139.414057 
L 233.614025 139.447818 
L 233.571861 139.372446 
L 233.642086 139.427325 
L 233.738454 139.367243 
L 233.656103 139.442637 
L 233.753955 139.39934 
L 233.837464 139.446829 
L 233.8143 139.372639 
L 233.865226 139.437308 
L 233.899107 139.364149 
L 233.902184 139.448536 
L 233.977438 139.399274 
L 234.085999 139.381902 
L 233.986634 139.445782 
L 234.087524 139.414547 
L 234.187926 139.448262 
L 234.12409 139.367396 
L 234.200064 139.437527 
L 234.308981 139.369093 
L 234.240974 139.446156 
L 234.31049 139.424827 
L 234.408324 139.447633 
L 234.322556 139.375851 
L 234.415831 139.428127 
L 234.507195 139.365111 
L 234.427836 139.446291 
L 234.528107 139.396698 
L 235.203795 139.385897 
L 234.531093 139.433588 
L 235.205241 139.412297 
L 235.206686 139.449864 
L 235.221132 139.364628 
L 235.314787 139.41209 
L 235.324848 139.447021 
L 235.42519 139.374192 
L 235.439485 139.448908 
L 235.52932 139.364589 
L 235.536433 139.400756 
L 235.628683 139.447232 
L 235.608848 139.361076 
L 235.649914 139.425488 
L 235.737438 139.372 
L 235.655572 139.446732 
L 235.761372 139.397745 
L 235.956046 139.378009 
L 235.764186 139.432451 
L 235.957439 139.426736 
L 235.989475 139.449943 
L 236.014511 139.369799 
L 236.065881 139.424869 
L 236.103287 139.37026 
L 236.172381 139.448868 
L 236.177899 139.403401 
L 236.242621 139.449768 
L 236.239871 139.368918 
L 236.289316 139.423627 
L 236.401506 139.360246 
L 236.301659 139.441019 
L 236.40287 139.40996 
L 236.485932 139.446659 
L 236.405599 139.371004 
L 236.51445 139.416015 
L 237.159818 139.444811 
L 237.161134 139.41216 
L 237.267424 139.358825 
L 237.16508 139.449974 
L 237.272659 139.372584 
L 237.335374 139.4495 
L 237.383589 139.414961 
L 237.445972 139.37158 
L 237.399202 139.4479 
L 237.495226 139.376951 
L 237.57147 139.446727 
L 237.536613 139.366678 
L 237.607555 139.443911 
L 237.712877 139.367474 
L 237.720562 139.374473 
L 237.817668 139.449661 
L 237.726965 139.367178 
L 237.831685 139.394839 
L 237.928275 139.365076 
L 237.84442 139.448733 
L 237.935881 139.396967 
L 238.037036 139.449911 
L 238.034513 139.372909 
L 238.047124 139.439341 
L 238.130168 139.375124 
L 238.057208 139.447055 
L 238.15903 139.404915 
L 238.256612 139.449978 
L 238.189104 139.370645 
L 238.26909 139.410178 
L 238.331366 139.369706 
L 238.272832 139.447845 
L 238.378571 139.446847 
L 238.423193 139.368163 
L 238.492416 139.41272 
L 238.49365 139.449398 
L 238.505986 139.36634 
L 238.603187 139.422481 
L 238.707265 139.449042 
L 238.616685 139.375242 
L 238.713371 139.426867 
L 238.782854 139.368994 
L 238.743875 139.449248 
L 238.825404 139.376915 
L 238.870292 139.449743 
L 238.867868 139.371605 
L 238.936838 139.389603 
L 239.042871 139.449338 
L 238.941669 139.367985 
L 239.047678 139.442348 
L 239.12324 139.360106 
L 239.10048 139.449729 
L 239.160321 139.370306 
L 239.260468 139.449599 
L 239.16749 139.361793 
L 239.272358 139.386913 
L 239.737831 139.43698 
L 239.740156 139.368796 
L 239.838714 139.360198 
L 239.751775 139.444864 
L 239.839871 139.413565 
L 239.898779 139.448711 
L 239.866458 139.372411 
L 239.950619 139.427443 
L 240.051624 139.371802 
L 239.959822 139.444141 
L 240.063071 139.390067 
L 240.087089 139.449965 
L 240.075655 139.358886 
L 240.174918 139.445727 
L 240.177194 139.373589 
L 240.188572 139.447154 
L 240.286167 139.431385 
L 240.379926 139.367637 
L 240.295222 139.449029 
L 240.400203 139.390465 
L 240.511378 139.446213 
L 240.447441 139.37042 
L 240.512498 139.431617 
L 240.590745 139.363477 
L 240.569536 139.447154 
L 240.62419 139.402979 
L 240.705348 139.450014 
L 240.688698 139.373283 
L 240.735286 139.410739 
L 240.790612 139.373146 
L 240.753006 139.449043 
L 240.845792 139.383901 
L 240.887631 139.368494 
L 240.957907 139.448821 
L 241.038869 139.36477 
L 241.070512 139.379063 
L 241.162981 139.449852 
L 241.151038 139.365509 
L 241.183595 139.394619 
L 241.290673 139.440966 
L 241.193352 139.37364 
L 241.291752 139.392575 
L 241.292831 139.366953 
L 241.303615 139.448535 
L 241.401497 139.4157 
L 241.50426 139.44279 
L 241.433665 139.370885 
L 241.510666 139.394328 
L 241.734695 139.437446 
L 241.516003 139.38346 
L 241.735751 139.428467 
L 241.782163 139.365247 
L 241.799015 139.448176 
L 241.847387 139.401912 
L 241.958428 139.378424 
L 241.863136 139.449775 
L 241.961562 139.397967 
L 241.9814 139.447674 
L 241.969917 139.368009 
L 242.038719 139.437499 
" clip-path="url(#p920b32453f)" style="fill: none; stroke: #9370db; stroke-width: 0.6; stroke-linecap: square"/>
   </g>
   <g id="line2d_64">
    <path d="M -1 4.252627 
L 35.910789 4.264049 
L 50.337799 16.146909 
L 58.777059 25.713677 
L 64.764809 33.459637 
L 76.412527 49.253693 
L 81.643329 55.883938 
L 85.820044 60.726708 
L 89.29707 64.436407 
L 93.61883 68.715086 
L 109.911007 84.369001 
L 123.426319 98.015625 
L 126.855498 101.065126 
L 130.026283 103.57855 
L 132.777277 105.485102 
L 135.55657 107.140631 
L 138.31417 108.522742 
L 141.282508 109.751569 
L 144.566106 110.8611 
L 148.824483 112.049331 
L 161.129736 115.351111 
L 165.915856 116.942484 
L 170.560316 118.723117 
L 175.224128 120.751494 
L 180.201206 123.164056 
L 186.224462 126.346474 
L 198.278682 132.778634 
L 202.358356 134.652715 
L 205.898316 136.038203 
L 209.206968 137.096475 
L 212.461451 137.904387 
L 215.825111 138.508377 
L 219.50285 138.938115 
L 223.884448 139.216889 
L 230.082753 139.367752 
L 242.038719 139.430427 
L 242.038719 139.430427 
" clip-path="url(#p920b32453f)" style="fill: none; stroke: #9acd32; stroke-width: 0.6; stroke-linecap: square"/>
   </g>
   <g id="patch_3">
    <path d="M 35.910789 145.030343 
L 35.910789 14.918738 
" style="fill: none; stroke: #000000; stroke-width: 0.5; stroke-linejoin: miter; stroke-linecap: square"/>
   </g>
   <g id="patch_4">
    <path d="M 242.03976 145.030343 
L 242.03976 14.918738 
" style="fill: none; stroke: #000000; stroke-width: 0.5; stroke-linejoin: miter; stroke-linecap: square"/>
   </g>
   <g id="patch_5">
    <path d="M 35.910789 145.030343 
L 242.03976 145.030343 
" style="fill: none; stroke: #000000; stroke-width: 0.5; stroke-linejoin: miter; stroke-linecap: square"/>
   </g>
   <g id="patch_6">
    <path d="M 35.910789 14.918738 
L 242.03976 14.918738 
" style="fill: none; stroke: #000000; stroke-width: 0.5; stroke-linejoin: miter; stroke-linecap: square"/>
   </g>
   <g id="text_14">
    <!-- MSE during descent, various methods -->
    <g transform="translate(56.326711 9.918738) scale(0.1 -0.1)">
     <defs>
      <path id="CMR17-64" d="M 1869 4326 
L 1869 4160 
C 2246 4160 2304 4122 2304 3820 
L 2304 2345 
C 2278 2377 2016 2790 1498 2790 
C 845 2790 211 2208 211 1364 
C 211 525 806 -64 1434 -64 
C 1978 -64 2259 337 2291 380 
L 2291 -63 
L 3066 -63 
L 3066 128 
C 2688 128 2630 166 2630 473 
L 2630 4396 
L 1869 4326 
z
M 2291 755 
C 2291 563 2176 390 2029 262 
C 1811 70 1594 38 1472 38 
C 1286 38 621 134 621 1356 
C 621 2612 1363 2688 1530 2688 
C 1824 2688 2061 2522 2208 2291 
C 2291 2157 2291 2138 2291 2023 
L 2291 755 
z
" transform="scale(0.015625)"/>
      <path id="CMR17-75" d="M 1882 2693 
L 1882 2528 
C 2259 2528 2317 2489 2317 2186 
L 2317 1032 
C 2317 500 2029 38 1555 38 
C 1030 38 986 348 986 678 
L 986 2763 
L 211 2693 
L 211 2528 
C 467 2528 640 2528 646 2274 
L 646 1058 
C 646 633 646 361 813 183 
C 896 101 1056 -64 1517 -64 
C 2061 -64 2272 377 2323 506 
L 2330 506 
L 2330 -63 
L 3091 -63 
L 3091 128 
C 2714 128 2656 166 2656 473 
L 2656 2763 
L 1882 2693 
z
" transform="scale(0.015625)"/>
      <path id="CMR17-73" d="M 1978 2697 
C 1978 2813 1971 2819 1933 2819 
C 1907 2819 1901 2813 1824 2717 
C 1805 2691 1747 2626 1728 2601 
C 1523 2819 1235 2819 1126 2819 
C 416 2819 160 2447 160 2076 
C 160 1498 813 1365 998 1325 
C 1402 1243 1542 1217 1677 1101 
C 1760 1025 1901 884 1901 654 
C 1901 384 1747 38 1158 38 
C 602 38 403 460 288 1021 
C 269 1110 269 1117 218 1117 
C 166 1117 160 1110 160 983 
L 160 63 
C 160 -51 166 -58 205 -58 
C 237 -58 243 -51 275 0 
C 314 57 410 211 448 276 
C 576 103 800 -64 1158 -64 
C 1792 -64 2131 283 2131 784 
C 2131 1112 1958 1285 1875 1362 
C 1683 1561 1459 1606 1190 1657 
C 838 1735 390 1825 390 2217 
C 390 2383 480 2737 1126 2737 
C 1811 2737 1850 2094 1862 1888 
C 1869 1856 1901 1849 1920 1849 
C 1978 1849 1978 1869 1978 1978 
L 1978 2697 
z
" transform="scale(0.015625)"/>
      <path id="CMR17-63" d="M 2234 2240 
C 2112 2240 1933 2240 1933 2017 
C 1933 1838 2080 1787 2163 1787 
C 2208 1787 2394 1807 2394 2024 
C 2394 2467 1958 2803 1466 2803 
C 787 2803 211 2178 211 1363 
C 211 516 813 -64 1466 -64 
C 2259 -64 2458 677 2458 748 
C 2458 774 2451 793 2406 793 
C 2362 793 2355 787 2330 703 
C 2163 180 1798 51 1523 51 
C 1114 51 621 427 621 1369 
C 621 2338 1094 2688 1472 2688 
C 1722 2688 2093 2573 2234 2240 
z
" transform="scale(0.015625)"/>
      <path id="CMR17-2c" d="M 1011 102 
C 1024 45 1024 25 1024 -77 
C 1024 -463 896 -817 627 -1139 
C 595 -1170 595 -1183 595 -1197 
C 595 -1222 621 -1248 646 -1248 
C 685 -1248 1126 -799 1126 -87 
C 1126 124 1101 522 800 522 
C 659 522 538 427 538 261 
C 538 96 659 0 800 0 
C 877 0 960 32 1011 102 
z
" transform="scale(0.015625)"/>
      <path id="CMR17-76" d="M 2502 2163 
C 2560 2304 2662 2560 3034 2560 
L 3034 2726 
C 2912 2726 2752 2726 2630 2726 
C 2496 2726 2285 2726 2157 2732 
L 2157 2566 
C 2317 2553 2406 2477 2406 2311 
C 2406 2253 2406 2240 2368 2151 
L 1664 377 
L 902 2286 
C 864 2369 864 2381 864 2407 
C 864 2560 1075 2560 1171 2560 
L 1171 2732 
C 1018 2726 736 2726 576 2726 
C 403 2726 205 2726 64 2732 
L 64 2560 
C 307 2560 442 2560 518 2362 
L 1446 44 
C 1485 -51 1491 -64 1549 -64 
C 1606 -64 1613 -51 1651 44 
L 2502 2163 
z
" transform="scale(0.015625)"/>
      <path id="CMR17-6d" d="M 4326 1933 
C 4326 2252 4269 2790 3507 2790 
C 3072 2790 2771 2496 2656 2151 
L 2650 2151 
C 2573 2676 2195 2790 1837 2790 
C 1331 2790 1069 2400 973 2144 
L 966 2144 
L 966 2790 
L 211 2720 
L 211 2554 
C 589 2554 646 2515 646 2208 
L 646 428 
C 646 184 621 153 211 153 
L 211 -13 
C 365 0 646 0 813 0 
C 979 0 1267 0 1421 -13 
L 1421 153 
C 1011 153 986 178 986 428 
L 986 1658 
C 986 2247 1344 2688 1792 2688 
C 2266 2688 2317 2266 2317 1958 
L 2317 428 
C 2317 184 2291 153 1882 153 
L 1882 -13 
C 2035 0 2317 0 2483 0 
C 2650 0 2938 0 3091 -13 
L 3091 153 
C 2682 153 2656 178 2656 428 
L 2656 1658 
C 2656 2247 3014 2688 3462 2688 
C 3936 2688 3987 2266 3987 1958 
L 3987 428 
C 3987 184 3962 153 3552 153 
L 3552 -13 
C 3706 0 3987 0 4154 0 
C 4320 0 4608 0 4762 -13 
L 4762 153 
C 4352 153 4326 178 4326 428 
L 4326 1933 
z
" transform="scale(0.015625)"/>
      <path id="CMR17-68" d="M 2656 1933 
C 2656 2259 2592 2790 1837 2790 
C 1312 2790 1056 2368 979 2157 
L 973 2157 
L 973 4396 
L 211 4326 
L 211 4160 
C 589 4160 646 4122 646 3817 
L 646 426 
C 646 184 621 153 211 153 
L 211 -13 
C 365 0 646 0 813 0 
C 979 0 1267 0 1421 -13 
L 1421 153 
C 1011 153 986 178 986 428 
L 986 1658 
C 986 2247 1344 2688 1792 2688 
C 2266 2688 2317 2266 2317 1958 
L 2317 428 
C 2317 184 2291 153 1882 153 
L 1882 -13 
C 2035 0 2317 0 2483 0 
C 2650 0 2938 0 3091 -13 
L 3091 153 
C 2682 153 2656 178 2656 428 
L 2656 1933 
z
" transform="scale(0.015625)"/>
     </defs>
     <use xlink:href="#CMR17-4d" transform="scale(0.996264)"/>
     <use xlink:href="#CMR17-53" transform="translate(84.686941 0) scale(0.996264)"/>
     <use xlink:href="#CMR17-45" transform="translate(135.58231 0) scale(0.996264)"/>
     <use xlink:href="#CMR17-64" transform="translate(228.244577 0) scale(0.996264)"/>
     <use xlink:href="#CMR17-75" transform="translate(279.139947 0) scale(0.996264)"/>
     <use xlink:href="#CMR17-72" transform="translate(330.035317 0) scale(0.996264)"/>
     <use xlink:href="#CMR17-69" transform="translate(365.316085 0) scale(0.996264)"/>
     <use xlink:href="#CMR17-6e" transform="translate(390.187143 0) scale(0.996264)"/>
     <use xlink:href="#CMR17-67" transform="translate(441.082513 0) scale(0.996264)"/>
     <use xlink:href="#CMR17-64" transform="translate(516.848956 0) scale(0.996264)"/>
     <use xlink:href="#CMR17-65" transform="translate(567.744326 0) scale(0.996264)"/>
     <use xlink:href="#CMR17-73" transform="translate(608.229987 0) scale(0.996264)"/>
     <use xlink:href="#CMR17-63" transform="translate(644.031324 0) scale(0.996264)"/>
     <use xlink:href="#CMR17-65" transform="translate(684.516985 0) scale(0.996264)"/>
     <use xlink:href="#CMR17-6e" transform="translate(725.002645 0) scale(0.996264)"/>
     <use xlink:href="#CMR17-74" transform="translate(773.295561 0) scale(0.996264)"/>
     <use xlink:href="#CMR17-2c" transform="translate(808.576329 0) scale(0.996264)"/>
     <use xlink:href="#CMR17-76" transform="translate(863.523354 0) scale(0.996264)"/>
     <use xlink:href="#CMR17-61" transform="translate(906.611453 0) scale(0.996264)"/>
     <use xlink:href="#CMR17-72" transform="translate(952.30193 0) scale(0.996264)"/>
     <use xlink:href="#CMR17-69" transform="translate(987.582698 0) scale(0.996264)"/>
     <use xlink:href="#CMR17-6f" transform="translate(1012.453756 0) scale(0.996264)"/>
     <use xlink:href="#CMR17-75" transform="translate(1058.144233 0) scale(0.996264)"/>
     <use xlink:href="#CMR17-73" transform="translate(1109.039603 0) scale(0.996264)"/>
     <use xlink:href="#CMR17-6d" transform="translate(1174.916907 0) scale(0.996264)"/>
     <use xlink:href="#CMR17-65" transform="translate(1251.836497 0) scale(0.996264)"/>
     <use xlink:href="#CMR17-74" transform="translate(1292.322157 0) scale(0.996264)"/>
     <use xlink:href="#CMR17-68" transform="translate(1327.602925 0) scale(0.996264)"/>
     <use xlink:href="#CMR17-6f" transform="translate(1378.498295 0) scale(0.996264)"/>
     <use xlink:href="#CMR17-64" transform="translate(1426.791211 0) scale(0.996264)"/>
     <use xlink:href="#CMR17-73" transform="translate(1477.686581 0) scale(0.996264)"/>
    </g>
   </g>
  </g>
  <g id="legend_1">
   <g id="line2d_65">
    <path d="M 28.164524 185.471287 
L 38.164524 185.471287 
L 48.164524 185.471287 
" style="fill: none; stroke-dasharray: 2.22,0.96; stroke-dashoffset: 0; stroke: #000000; stroke-width: 0.6"/>
   </g>
   <g id="text_15">
    <!-- OLS analytical soln. -->
    <g transform="translate(51.164524 188.971287) scale(0.1 -0.1)">
     <defs>
      <path id="CMR17-4f" d="M 4307 2135 
C 4307 3437 3366 4416 2304 4416 
C 1216 4416 294 3424 294 2135 
C 294 845 1229 -128 2298 -128 
C 3392 -128 4307 864 4307 2135 
z
M 2304 -13 
C 1574 -13 781 711 781 2217 
C 781 3716 1651 4301 2298 4301 
C 2976 4301 3821 3698 3821 2217 
C 3821 686 3008 -13 2304 -13 
z
" transform="scale(0.015625)"/>
      <path id="CMR17-4c" d="M 3469 1615 
L 3354 1615 
C 3302 983 3219 166 2125 166 
L 1530 166 
C 1274 166 1261 197 1261 414 
L 1261 3898 
C 1261 4129 1274 4192 1760 4192 
L 1901 4192 
L 1901 4352 
C 1638 4352 1331 4352 1069 4352 
C 870 4352 512 4352 326 4352 
L 326 4192 
C 768 4192 838 4192 838 3905 
L 838 452 
C 838 166 768 166 326 166 
L 326 0 
L 3315 0 
L 3469 1615 
z
" transform="scale(0.015625)"/>
      <path id="CMR17-6c" d="M 979 4396 
L 218 4326 
L 218 4160 
C 595 4160 653 4122 653 3817 
L 653 426 
C 653 184 627 153 218 153 
L 218 -13 
C 371 0 653 0 813 0 
C 979 0 1261 0 1414 -13 
L 1414 153 
C 1005 153 979 178 979 426 
L 979 4396 
z
" transform="scale(0.015625)"/>
      <path id="CMR17-79" d="M 2496 2197 
C 2656 2586 2944 2586 3034 2586 
L 3034 2752 
C 2912 2752 2752 2752 2630 2752 
C 2496 2752 2285 2752 2157 2758 
L 2157 2592 
C 2400 2573 2406 2394 2406 2343 
C 2406 2280 2394 2248 2362 2171 
L 1664 449 
L 902 2306 
C 870 2382 870 2426 870 2433 
C 870 2573 1018 2586 1171 2586 
L 1171 2758 
C 1018 2752 742 2752 582 2752 
C 410 2752 205 2752 64 2758 
L 64 2586 
C 410 2586 448 2554 531 2350 
L 1485 15 
C 1197 -738 1030 -1178 627 -1178 
C 557 -1178 397 -1159 282 -1044 
C 429 -1031 493 -942 493 -833 
C 493 -725 416 -629 288 -629 
C 147 -629 77 -725 77 -840 
C 77 -1095 339 -1280 627 -1280 
C 998 -1280 1229 -922 1357 -604 
L 2496 2197 
z
" transform="scale(0.015625)"/>
      <path id="CMR17-2e" d="M 1062 261 
C 1062 420 934 522 800 522 
C 672 522 538 420 538 261 
C 538 102 666 0 800 0 
C 928 0 1062 102 1062 261 
z
" transform="scale(0.015625)"/>
     </defs>
     <use xlink:href="#CMR17-4f" transform="scale(0.996264)"/>
     <use xlink:href="#CMR17-4c" transform="translate(71.714788 0) scale(0.996264)"/>
     <use xlink:href="#CMR17-53" transform="translate(129.096196 0) scale(0.996264)"/>
     <use xlink:href="#CMR17-61" transform="translate(210.067532 0) scale(0.996264)"/>
     <use xlink:href="#CMR17-6e" transform="translate(255.75801 0) scale(0.996264)"/>
     <use xlink:href="#CMR17-61" transform="translate(306.653379 0) scale(0.996264)"/>
     <use xlink:href="#CMR17-6c" transform="translate(352.343856 0) scale(0.996264)"/>
     <use xlink:href="#CMR17-79" transform="translate(377.214915 0) scale(0.996264)"/>
     <use xlink:href="#CMR17-74" transform="translate(425.507831 0) scale(0.996264)"/>
     <use xlink:href="#CMR17-69" transform="translate(460.788599 0) scale(0.996264)"/>
     <use xlink:href="#CMR17-63" transform="translate(485.659657 0) scale(0.996264)"/>
     <use xlink:href="#CMR17-61" transform="translate(526.145317 0) scale(0.996264)"/>
     <use xlink:href="#CMR17-6c" transform="translate(571.835795 0) scale(0.996264)"/>
     <use xlink:href="#CMR17-73" transform="translate(626.782819 0) scale(0.996264)"/>
     <use xlink:href="#CMR17-6f" transform="translate(662.584157 0) scale(0.996264)"/>
     <use xlink:href="#CMR17-6c" transform="translate(708.274634 0) scale(0.996264)"/>
     <use xlink:href="#CMR17-6e" transform="translate(733.145693 0) scale(0.996264)"/>
     <use xlink:href="#CMR17-2e" transform="translate(784.041062 0) scale(0.996264)"/>
    </g>
   </g>
   <g id="line2d_66">
    <path d="M 28.164524 199.408465 
L 38.164524 199.408465 
L 48.164524 199.408465 
" style="fill: none; stroke: #1f77b4; stroke-width: 0.6; stroke-linecap: square"/>
   </g>
   <g id="text_16">
    <!-- OLS -->
    <g transform="translate(51.164524 202.908465) scale(0.1 -0.1)">
     <use xlink:href="#CMR17-4f" transform="scale(0.996264)"/>
     <use xlink:href="#CMR17-4c" transform="translate(71.714788 0) scale(0.996264)"/>
     <use xlink:href="#CMR17-53" transform="translate(129.096196 0) scale(0.996264)"/>
    </g>
   </g>
   <g id="line2d_67">
    <path d="M 28.164524 213.345643 
L 38.164524 213.345643 
L 48.164524 213.345643 
" style="fill: none; stroke: #ff7f0e; stroke-width: 0.6; stroke-linecap: square"/>
   </g>
   <g id="text_17">
    <!-- OLS + momentum -->
    <g transform="translate(51.164524 216.845643) scale(0.1 -0.1)">
     <defs>
      <path id="CMR17-2b" d="M 2413 1472 
L 4109 1472 
C 4198 1472 4307 1472 4307 1580 
C 4307 1695 4205 1695 4109 1695 
L 2413 1695 
L 2413 3386 
C 2413 3475 2413 3584 2304 3584 
C 2189 3584 2189 3482 2189 3386 
L 2189 1695 
L 493 1695 
C 403 1695 294 1695 294 1587 
C 294 1472 397 1472 493 1472 
L 2189 1472 
L 2189 -218 
C 2189 -307 2189 -416 2298 -416 
C 2413 -416 2413 -314 2413 -218 
L 2413 1472 
z
" transform="scale(0.015625)"/>
     </defs>
     <use xlink:href="#CMR17-4f" transform="scale(0.996264)"/>
     <use xlink:href="#CMR17-4c" transform="translate(71.714788 0) scale(0.996264)"/>
     <use xlink:href="#CMR17-53" transform="translate(129.096196 0) scale(0.996264)"/>
     <use xlink:href="#CMR17-2b" transform="translate(210.067532 0) scale(0.996264)"/>
     <use xlink:href="#CMR17-6d" transform="translate(311.858287 0) scale(0.996264)"/>
     <use xlink:href="#CMR17-6f" transform="translate(388.777877 0) scale(0.996264)"/>
     <use xlink:href="#CMR17-6d" transform="translate(434.468354 0) scale(0.996264)"/>
     <use xlink:href="#CMR17-65" transform="translate(511.387944 0) scale(0.996264)"/>
     <use xlink:href="#CMR17-6e" transform="translate(551.873604 0) scale(0.996264)"/>
     <use xlink:href="#CMR17-74" transform="translate(600.16652 0) scale(0.996264)"/>
     <use xlink:href="#CMR17-75" transform="translate(635.447288 0) scale(0.996264)"/>
     <use xlink:href="#CMR17-6d" transform="translate(686.342658 0) scale(0.996264)"/>
    </g>
   </g>
   <g id="line2d_68">
    <path d="M 28.164524 227.282822 
L 38.164524 227.282822 
L 48.164524 227.282822 
" style="fill: none; stroke: #2ca02c; stroke-width: 0.6; stroke-linecap: square"/>
   </g>
   <g id="text_18">
    <!-- Ridge -->
    <g transform="translate(51.164524 230.782822) scale(0.1 -0.1)">
     <defs>
      <path id="CMR17-52" d="M 2509 2146 
C 3117 2268 3629 2676 3629 3186 
C 3629 3785 2950 4326 2054 4326 
L 333 4326 
L 333 4160 
C 774 4160 845 4160 845 3873 
L 845 415 
C 845 128 774 128 333 128 
L 333 -26 
C 518 -26 851 -26 1050 -26 
C 1248 -26 1581 -26 1766 -26 
L 1766 128 
C 1325 128 1254 128 1254 417 
L 1254 2112 
L 2003 2112 
C 2368 2112 2573 1964 2662 1881 
C 2918 1632 2918 1459 2918 1024 
C 2918 595 2918 377 3110 160 
C 3354 -102 3680 -128 3821 -128 
C 4294 -128 4365 396 4365 503 
C 4365 540 4365 585 4307 585 
C 4256 585 4250 547 4250 522 
C 4218 112 4032 -26 3834 -26 
C 3482 -26 3443 375 3405 764 
C 3386 898 3373 993 3360 1133 
C 3322 1452 3270 1917 2509 2146 
z
M 1984 2214 
L 1254 2214 
L 1254 3913 
C 1254 4129 1267 4160 1523 4160 
L 1990 4160 
C 2522 4160 3142 3977 3142 3190 
C 3142 2372 2464 2214 1984 2214 
z
" transform="scale(0.015625)"/>
     </defs>
     <use xlink:href="#CMR17-52" transform="scale(0.996264)"/>
     <use xlink:href="#CMR17-69" transform="translate(67.791102 0) scale(0.996264)"/>
     <use xlink:href="#CMR17-64" transform="translate(92.66216 0) scale(0.996264)"/>
     <use xlink:href="#CMR17-67" transform="translate(143.55753 0) scale(0.996264)"/>
     <use xlink:href="#CMR17-65" transform="translate(189.248007 0) scale(0.996264)"/>
    </g>
   </g>
   <g id="line2d_69">
    <path d="M 149.638517 185.471287 
L 159.638517 185.471287 
L 169.638517 185.471287 
" style="fill: none; stroke: #d43b38; stroke-width: 0.6; stroke-linecap: square"/>
   </g>
   <g id="text_19">
    <!-- RMSProp -->
    <g transform="translate(172.638517 188.971287) scale(0.1 -0.1)">
     <defs>
      <path id="CMR17-50" d="M 1267 2042 
L 2291 2042 
C 3117 2042 3718 2578 3718 3184 
C 3718 3791 3130 4352 2291 4352 
L 333 4352 
L 333 4186 
C 774 4186 845 4186 845 3899 
L 845 446 
C 845 160 774 160 333 160 
L 333 0 
C 518 0 858 0 1056 0 
C 1254 0 1594 0 1779 0 
L 1779 160 
C 1338 160 1267 160 1267 446 
L 1267 2042 
z
M 1254 2176 
L 1254 3938 
C 1254 4155 1267 4186 1523 4186 
L 2170 4186 
C 2995 4186 3232 3714 3232 3184 
C 3232 2604 2950 2176 2170 2176 
L 1254 2176 
z
" transform="scale(0.015625)"/>
      <path id="CMR17-70" d="M 1408 -1063 
C 998 -1063 973 -1037 973 -789 
L 973 402 
C 1158 134 1427 -38 1766 -38 
C 2406 -38 3053 523 3053 1388 
C 3053 2191 2496 2802 1837 2802 
C 1453 2802 1139 2592 960 2338 
L 960 2802 
L 198 2732 
L 198 2567 
C 576 2567 634 2528 634 2223 
L 634 -789 
C 634 -1031 608 -1063 198 -1063 
L 198 -1228 
C 352 -1216 634 -1216 800 -1216 
C 966 -1216 1254 -1216 1408 -1228 
L 1408 -1063 
z
M 973 2012 
C 973 2102 973 2235 1222 2471 
C 1254 2497 1472 2688 1792 2688 
C 2259 2688 2643 2108 2643 1382 
C 2643 656 2234 64 1728 64 
C 1498 64 1248 172 1056 472 
C 973 612 973 650 973 752 
L 973 2012 
z
" transform="scale(0.015625)"/>
     </defs>
     <use xlink:href="#CMR17-52" transform="scale(0.996264)"/>
     <use xlink:href="#CMR17-4d" transform="translate(67.791102 0) scale(0.996264)"/>
     <use xlink:href="#CMR17-53" transform="translate(152.478043 0) scale(0.996264)"/>
     <use xlink:href="#CMR17-50" transform="translate(203.373412 0) scale(0.996264)"/>
     <use xlink:href="#CMR17-72" transform="translate(265.959713 0) scale(0.996264)"/>
     <use xlink:href="#CMR17-6f" transform="translate(301.240481 0) scale(0.996264)"/>
     <use xlink:href="#CMR17-70" transform="translate(346.930958 0) scale(0.996264)"/>
    </g>
   </g>
   <g id="line2d_70">
    <path d="M 149.638517 199.408465 
L 159.638517 199.408465 
L 169.638517 199.408465 
" style="fill: none; stroke: #cd853f; stroke-width: 0.6; stroke-linecap: square"/>
   </g>
   <g id="text_20">
    <!-- ADAGrad -->
    <g transform="translate(172.638517 202.908465) scale(0.1 -0.1)">
     <defs>
      <path id="CMR17-41" d="M 2323 4378 
C 2291 4461 2278 4480 2214 4480 
C 2150 4480 2138 4461 2106 4378 
L 749 566 
C 627 223 371 153 147 153 
L 147 -13 
C 262 0 518 0 640 0 
C 800 0 1056 0 1210 -13 
L 1210 153 
C 909 153 864 361 864 439 
C 864 497 877 530 890 569 
L 1229 1536 
L 2906 1536 
L 3290 442 
C 3322 365 3322 352 3322 327 
C 3322 153 3046 153 2925 153 
L 2925 0 
C 3110 0 3443 0 3642 0 
C 3808 0 4128 0 4282 -13 
L 4282 153 
C 3942 153 3827 153 3744 387 
L 2323 4378 
z
M 2067 3893 
L 2848 1702 
L 1286 1702 
L 2067 3893 
z
" transform="scale(0.015625)"/>
      <path id="CMR17-44" d="M 333 4352 
L 333 4186 
C 774 4186 845 4186 845 3900 
L 845 452 
C 845 166 774 166 333 166 
L 333 0 
L 2368 0 
C 3398 0 4224 943 4224 2141 
C 4224 3346 3411 4352 2368 4352 
L 333 4352 
z
M 1523 166 
C 1267 166 1254 197 1254 414 
L 1254 3938 
C 1254 4155 1267 4186 1523 4186 
L 2240 4186 
C 2771 4186 3750 3874 3750 2141 
C 3750 1242 3488 879 3366 707 
C 3213 510 2848 166 2240 166 
L 1523 166 
z
" transform="scale(0.015625)"/>
      <path id="CMR17-47" d="M 3974 1233 
C 3974 1473 3994 1505 4390 1505 
L 4390 1670 
C 4237 1664 3891 1664 3718 1664 
C 3539 1664 3040 1664 2797 1664 
L 2797 1505 
L 2989 1505 
C 3539 1505 3552 1434 3552 1201 
L 3552 774 
C 3552 63 2720 63 2522 63 
C 1862 63 781 511 781 2160 
C 781 3808 1843 4250 2464 4250 
C 3187 4250 3712 3626 3834 2741 
C 3846 2664 3846 2651 3904 2651 
C 3974 2651 3974 2664 3974 2779 
L 3974 4288 
C 3974 4402 3968 4409 3930 4409 
C 3904 4409 3898 4402 3853 4326 
L 3571 3791 
C 3258 4187 2874 4416 2381 4416 
C 1286 4416 294 3456 294 2148 
C 294 845 1267 -128 2394 -128 
C 2912 -128 3418 56 3616 417 
C 3725 158 3904 -20 3936 -20 
C 3968 -20 3974 -13 3974 100 
L 3974 1233 
z
" transform="scale(0.015625)"/>
     </defs>
     <use xlink:href="#CMR17-41" transform="scale(0.996264)"/>
     <use xlink:href="#CMR17-44" transform="translate(69.07243 0) scale(0.996264)"/>
     <use xlink:href="#CMR17-41" transform="translate(136.863532 0) scale(0.996264)"/>
     <use xlink:href="#CMR17-47" transform="translate(203.333508 0) scale(0.996264)"/>
     <use xlink:href="#CMR17-72" transform="translate(275.688854 0) scale(0.996264)"/>
     <use xlink:href="#CMR17-61" transform="translate(310.969621 0) scale(0.996264)"/>
     <use xlink:href="#CMR17-64" transform="translate(356.660098 0) scale(0.996264)"/>
    </g>
   </g>
   <g id="line2d_71">
    <path d="M 149.638517 213.345643 
L 159.638517 213.345643 
L 169.638517 213.345643 
" style="fill: none; stroke: #9370db; stroke-width: 0.6; stroke-linecap: square"/>
   </g>
   <g id="text_21">
    <!-- ADAM -->
    <g transform="translate(172.638517 216.845643) scale(0.1 -0.1)">
     <use xlink:href="#CMR17-41" transform="scale(0.996264)"/>
     <use xlink:href="#CMR17-44" transform="translate(69.07243 0) scale(0.996264)"/>
     <use xlink:href="#CMR17-41" transform="translate(136.863532 0) scale(0.996264)"/>
     <use xlink:href="#CMR17-4d" transform="translate(205.935962 0) scale(0.996264)"/>
    </g>
   </g>
   <g id="line2d_72">
    <path d="M 149.638517 227.282822 
L 159.638517 227.282822 
L 169.638517 227.282822 
" style="fill: none; stroke: #9acd32; stroke-width: 0.6; stroke-linecap: square"/>
   </g>
   <g id="text_22">
    <!-- Lasso -->
    <g transform="translate(172.638517 230.782822) scale(0.1 -0.1)">
     <use xlink:href="#CMR17-4c" transform="scale(0.996264)"/>
     <use xlink:href="#CMR17-61" transform="translate(57.381408 0) scale(0.996264)"/>
     <use xlink:href="#CMR17-73" transform="translate(103.071885 0) scale(0.996264)"/>
     <use xlink:href="#CMR17-73" transform="translate(138.873223 0) scale(0.996264)"/>
     <use xlink:href="#CMR17-6f" transform="translate(174.67456 0) scale(0.996264)"/>
    </g>
   </g>
  </g>
 </g>
 <defs>
  <clipPath id="p920b32453f">
   <rect x="35.910789" y="14.918738" width="206.128971" height="130.111604"/>
  </clipPath>
 </defs>
</svg>
