<?xml version="1.0" encoding="utf-8" standalone="no"?>
<!DOCTYPE svg PUBLIC "-//W3C//DTD SVG 1.1//EN"
  "http://www.w3.org/Graphics/SVG/1.1/DTD/svg11.dtd">
<svg xmlns:xlink="http://www.w3.org/1999/xlink" width="245.04pt" height="220.56pt" viewBox="0 0 245.04 220.56" xmlns="http://www.w3.org/2000/svg" version="1.1">
 <metadata>
  <rdf:RDF xmlns:dc="http://purl.org/dc/elements/1.1/" xmlns:cc="http://creativecommons.org/ns#" xmlns:rdf="http://www.w3.org/1999/02/22-rdf-syntax-ns#">
   <cc:Work>
    <dc:type rdf:resource="http://purl.org/dc/dcmitype/StillImage"/>
    <dc:date>2025-10-07T22:15:16.018310</dc:date>
    <dc:format>image/svg+xml</dc:format>
    <dc:creator>
     <cc:Agent>
      <dc:title>Matplotlib v3.10.5, https://matplotlib.org/</dc:title>
     </cc:Agent>
    </dc:creator>
   </cc:Work>
  </rdf:RDF>
 </metadata>
 <defs>
  <style type="text/css">*{stroke-linejoin: round; stroke-linecap: butt}</style>
 </defs>
 <g id="figure_1">
  <g id="patch_1">
   <path d="M 0 220.56 
L 245.04 220.56 
L 245.04 0 
L 0 0 
z
" style="fill: #ffffff"/>
  </g>
  <g id="axes_1">
   <g id="patch_2">
    <path d="M 35.910789 141.807521 
L 242.03976 141.807521 
L 242.03976 14.918738 
L 35.910789 14.918738 
z
" style="fill: #ffffff"/>
   </g>
   <g id="matplotlib.axis_1">
    <g id="xtick_1">
     <g id="line2d_1">
      <path d="M 35.910789 141.807521 
L 35.910789 14.918738 
" clip-path="url(#p8066932493)" style="fill: none; stroke: #000000; stroke-opacity: 0.03; stroke-width: 0.8; stroke-linecap: square"/>
     </g>
     <g id="line2d_2">
      <defs>
       <path id="m3743d0b545" d="M 0 0 
L 0 3.5 
" style="stroke: #000000; stroke-width: 0.6"/>
      </defs>
      <g>
       <use xlink:href="#m3743d0b545" x="35.910789" y="141.807521" style="stroke: #000000; stroke-width: 0.6"/>
      </g>
     </g>
     <g id="text_1">
      <!-- $\mathdefault{10^{0}}$ -->
      <g transform="translate(29.85015 154.342323) scale(0.08 -0.08)">
       <defs>
        <path id="CMR17-31" d="M 1702 4058 
C 1702 4192 1696 4192 1606 4192 
C 1357 3916 979 3827 621 3827 
C 602 3827 570 3827 563 3808 
C 557 3795 557 3782 557 3648 
C 755 3648 1088 3686 1344 3839 
L 1344 461 
C 1344 236 1331 160 781 160 
L 589 160 
L 589 0 
C 896 0 1216 0 1523 0 
C 1830 0 2150 0 2458 0 
L 2458 160 
L 2266 160 
C 1715 160 1702 230 1702 458 
L 1702 4058 
z
" transform="scale(0.015625)"/>
        <path id="CMR17-30" d="M 2688 2025 
C 2688 2416 2682 3080 2413 3591 
C 2176 4039 1798 4198 1466 4198 
C 1158 4198 768 4058 525 3597 
C 269 3118 243 2524 243 2025 
C 243 1661 250 1106 448 619 
C 723 -39 1216 -128 1466 -128 
C 1760 -128 2208 -7 2470 600 
C 2662 1042 2688 1559 2688 2025 
z
M 1466 -26 
C 1056 -26 813 325 723 812 
C 653 1188 653 1738 653 2096 
C 653 2588 653 2997 736 3387 
C 858 3929 1216 4096 1466 4096 
C 1728 4096 2067 3923 2189 3400 
C 2272 3036 2278 2607 2278 2096 
C 2278 1680 2278 1169 2202 792 
C 2067 95 1690 -26 1466 -26 
z
" transform="scale(0.015625)"/>
       </defs>
       <use xlink:href="#CMR17-31" transform="scale(0.996264)"/>
       <use xlink:href="#CMR17-30" transform="translate(45.690477 0) scale(0.996264)"/>
       <use xlink:href="#CMR17-30" transform="translate(91.380954 36.153639) scale(0.697382)"/>
      </g>
     </g>
    </g>
    <g id="xtick_2">
     <g id="line2d_3">
      <path d="M 83.836279 141.807521 
L 83.836279 14.918738 
" clip-path="url(#p8066932493)" style="fill: none; stroke: #000000; stroke-opacity: 0.03; stroke-width: 0.8; stroke-linecap: square"/>
     </g>
     <g id="line2d_4">
      <g>
       <use xlink:href="#m3743d0b545" x="83.836279" y="141.807521" style="stroke: #000000; stroke-width: 0.6"/>
      </g>
     </g>
     <g id="text_2">
      <!-- $\mathdefault{10^{1}}$ -->
      <g transform="translate(77.77564 154.342323) scale(0.08 -0.08)">
       <use xlink:href="#CMR17-31" transform="scale(0.996264)"/>
       <use xlink:href="#CMR17-30" transform="translate(45.690477 0) scale(0.996264)"/>
       <use xlink:href="#CMR17-31" transform="translate(91.380954 36.153639) scale(0.697382)"/>
      </g>
     </g>
    </g>
    <g id="xtick_3">
     <g id="line2d_5">
      <path d="M 131.761769 141.807521 
L 131.761769 14.918738 
" clip-path="url(#p8066932493)" style="fill: none; stroke: #000000; stroke-opacity: 0.03; stroke-width: 0.8; stroke-linecap: square"/>
     </g>
     <g id="line2d_6">
      <g>
       <use xlink:href="#m3743d0b545" x="131.761769" y="141.807521" style="stroke: #000000; stroke-width: 0.6"/>
      </g>
     </g>
     <g id="text_3">
      <!-- $\mathdefault{10^{2}}$ -->
      <g transform="translate(125.70113 154.342323) scale(0.08 -0.08)">
       <defs>
        <path id="CMR17-32" d="M 2669 989 
L 2554 989 
C 2490 536 2438 459 2413 420 
C 2381 369 1920 369 1830 369 
L 602 369 
C 832 619 1280 1072 1824 1597 
C 2214 1967 2669 2402 2669 3035 
C 2669 3790 2067 4224 1395 4224 
C 691 4224 262 3604 262 3030 
C 262 2780 448 2748 525 2748 
C 589 2748 781 2787 781 3010 
C 781 3207 614 3264 525 3264 
C 486 3264 448 3258 422 3245 
C 544 3790 915 4058 1306 4058 
C 1862 4058 2227 3617 2227 3035 
C 2227 2479 1901 2000 1536 1584 
L 262 146 
L 262 0 
L 2515 0 
L 2669 989 
z
" transform="scale(0.015625)"/>
       </defs>
       <use xlink:href="#CMR17-31" transform="scale(0.996264)"/>
       <use xlink:href="#CMR17-30" transform="translate(45.690477 0) scale(0.996264)"/>
       <use xlink:href="#CMR17-32" transform="translate(91.380954 36.153639) scale(0.697382)"/>
      </g>
     </g>
    </g>
    <g id="xtick_4">
     <g id="line2d_7">
      <path d="M 179.68726 141.807521 
L 179.68726 14.918738 
" clip-path="url(#p8066932493)" style="fill: none; stroke: #000000; stroke-opacity: 0.03; stroke-width: 0.8; stroke-linecap: square"/>
     </g>
     <g id="line2d_8">
      <g>
       <use xlink:href="#m3743d0b545" x="179.68726" y="141.807521" style="stroke: #000000; stroke-width: 0.6"/>
      </g>
     </g>
     <g id="text_4">
      <!-- $\mathdefault{10^{3}}$ -->
      <g transform="translate(173.626621 154.342323) scale(0.08 -0.08)">
       <defs>
        <path id="CMR17-33" d="M 1414 2157 
C 1984 2157 2234 1662 2234 1090 
C 2234 320 1824 25 1453 25 
C 1114 25 563 194 390 693 
C 422 680 454 680 486 680 
C 640 680 755 782 755 948 
C 755 1133 614 1216 486 1216 
C 378 1216 211 1165 211 926 
C 211 335 787 -128 1466 -128 
C 2176 -128 2720 430 2720 1085 
C 2720 1707 2208 2157 1600 2227 
C 2086 2328 2554 2756 2554 3329 
C 2554 3820 2048 4179 1472 4179 
C 890 4179 378 3829 378 3329 
C 378 3110 544 3072 627 3072 
C 762 3072 877 3155 877 3321 
C 877 3486 762 3569 627 3569 
C 602 3569 570 3569 544 3557 
C 730 3959 1235 4032 1459 4032 
C 1683 4032 2106 3925 2106 3320 
C 2106 3143 2080 2828 1862 2550 
C 1670 2304 1453 2304 1242 2284 
C 1210 2284 1062 2269 1037 2269 
C 992 2263 966 2257 966 2208 
C 966 2163 973 2157 1101 2157 
L 1414 2157 
z
" transform="scale(0.015625)"/>
       </defs>
       <use xlink:href="#CMR17-31" transform="scale(0.996264)"/>
       <use xlink:href="#CMR17-30" transform="translate(45.690477 0) scale(0.996264)"/>
       <use xlink:href="#CMR17-33" transform="translate(91.380954 36.153639) scale(0.697382)"/>
      </g>
     </g>
    </g>
    <g id="xtick_5">
     <g id="line2d_9">
      <path d="M 227.61275 141.807521 
L 227.61275 14.918738 
" clip-path="url(#p8066932493)" style="fill: none; stroke: #000000; stroke-opacity: 0.03; stroke-width: 0.8; stroke-linecap: square"/>
     </g>
     <g id="line2d_10">
      <g>
       <use xlink:href="#m3743d0b545" x="227.61275" y="141.807521" style="stroke: #000000; stroke-width: 0.6"/>
      </g>
     </g>
     <g id="text_5">
      <!-- $\mathdefault{10^{4}}$ -->
      <g transform="translate(221.552111 154.342323) scale(0.08 -0.08)">
       <defs>
        <path id="CMR17-34" d="M 2150 4122 
C 2150 4256 2144 4256 2029 4256 
L 128 1254 
L 128 1088 
L 1779 1088 
L 1779 457 
C 1779 224 1766 160 1318 160 
L 1197 160 
L 1197 0 
C 1402 0 1747 0 1965 0 
C 2182 0 2528 0 2733 0 
L 2733 160 
L 2611 160 
C 2163 160 2150 224 2150 457 
L 2150 1088 
L 2803 1088 
L 2803 1254 
L 2150 1254 
L 2150 4122 
z
M 1798 3703 
L 1798 1254 
L 256 1254 
L 1798 3703 
z
" transform="scale(0.015625)"/>
       </defs>
       <use xlink:href="#CMR17-31" transform="scale(0.996264)"/>
       <use xlink:href="#CMR17-30" transform="translate(45.690477 0) scale(0.996264)"/>
       <use xlink:href="#CMR17-34" transform="translate(91.380954 36.153639) scale(0.697382)"/>
      </g>
     </g>
    </g>
    <g id="xtick_6">
     <g id="line2d_11">
      <defs>
       <path id="m81e8eb6578" d="M 0 0 
L 0 2 
" style="stroke: #000000; stroke-width: 0.3"/>
      </defs>
      <g>
       <use xlink:href="#m81e8eb6578" x="50.337799" y="141.807521" style="stroke: #000000; stroke-width: 0.3"/>
      </g>
     </g>
    </g>
    <g id="xtick_7">
     <g id="line2d_12">
      <g>
       <use xlink:href="#m81e8eb6578" x="58.777059" y="141.807521" style="stroke: #000000; stroke-width: 0.3"/>
      </g>
     </g>
    </g>
    <g id="xtick_8">
     <g id="line2d_13">
      <g>
       <use xlink:href="#m81e8eb6578" x="64.764809" y="141.807521" style="stroke: #000000; stroke-width: 0.3"/>
      </g>
     </g>
    </g>
    <g id="xtick_9">
     <g id="line2d_14">
      <g>
       <use xlink:href="#m81e8eb6578" x="69.409269" y="141.807521" style="stroke: #000000; stroke-width: 0.3"/>
      </g>
     </g>
    </g>
    <g id="xtick_10">
     <g id="line2d_15">
      <g>
       <use xlink:href="#m81e8eb6578" x="73.204069" y="141.807521" style="stroke: #000000; stroke-width: 0.3"/>
      </g>
     </g>
    </g>
    <g id="xtick_11">
     <g id="line2d_16">
      <g>
       <use xlink:href="#m81e8eb6578" x="76.412527" y="141.807521" style="stroke: #000000; stroke-width: 0.3"/>
      </g>
     </g>
    </g>
    <g id="xtick_12">
     <g id="line2d_17">
      <g>
       <use xlink:href="#m81e8eb6578" x="79.191819" y="141.807521" style="stroke: #000000; stroke-width: 0.3"/>
      </g>
     </g>
    </g>
    <g id="xtick_13">
     <g id="line2d_18">
      <g>
       <use xlink:href="#m81e8eb6578" x="81.643329" y="141.807521" style="stroke: #000000; stroke-width: 0.3"/>
      </g>
     </g>
    </g>
    <g id="xtick_14">
     <g id="line2d_19">
      <g>
       <use xlink:href="#m81e8eb6578" x="98.263289" y="141.807521" style="stroke: #000000; stroke-width: 0.3"/>
      </g>
     </g>
    </g>
    <g id="xtick_15">
     <g id="line2d_20">
      <g>
       <use xlink:href="#m81e8eb6578" x="106.702549" y="141.807521" style="stroke: #000000; stroke-width: 0.3"/>
      </g>
     </g>
    </g>
    <g id="xtick_16">
     <g id="line2d_21">
      <g>
       <use xlink:href="#m81e8eb6578" x="112.690299" y="141.807521" style="stroke: #000000; stroke-width: 0.3"/>
      </g>
     </g>
    </g>
    <g id="xtick_17">
     <g id="line2d_22">
      <g>
       <use xlink:href="#m81e8eb6578" x="117.334759" y="141.807521" style="stroke: #000000; stroke-width: 0.3"/>
      </g>
     </g>
    </g>
    <g id="xtick_18">
     <g id="line2d_23">
      <g>
       <use xlink:href="#m81e8eb6578" x="121.129559" y="141.807521" style="stroke: #000000; stroke-width: 0.3"/>
      </g>
     </g>
    </g>
    <g id="xtick_19">
     <g id="line2d_24">
      <g>
       <use xlink:href="#m81e8eb6578" x="124.338017" y="141.807521" style="stroke: #000000; stroke-width: 0.3"/>
      </g>
     </g>
    </g>
    <g id="xtick_20">
     <g id="line2d_25">
      <g>
       <use xlink:href="#m81e8eb6578" x="127.11731" y="141.807521" style="stroke: #000000; stroke-width: 0.3"/>
      </g>
     </g>
    </g>
    <g id="xtick_21">
     <g id="line2d_26">
      <g>
       <use xlink:href="#m81e8eb6578" x="129.568819" y="141.807521" style="stroke: #000000; stroke-width: 0.3"/>
      </g>
     </g>
    </g>
    <g id="xtick_22">
     <g id="line2d_27">
      <g>
       <use xlink:href="#m81e8eb6578" x="146.18878" y="141.807521" style="stroke: #000000; stroke-width: 0.3"/>
      </g>
     </g>
    </g>
    <g id="xtick_23">
     <g id="line2d_28">
      <g>
       <use xlink:href="#m81e8eb6578" x="154.628039" y="141.807521" style="stroke: #000000; stroke-width: 0.3"/>
      </g>
     </g>
    </g>
    <g id="xtick_24">
     <g id="line2d_29">
      <g>
       <use xlink:href="#m81e8eb6578" x="160.61579" y="141.807521" style="stroke: #000000; stroke-width: 0.3"/>
      </g>
     </g>
    </g>
    <g id="xtick_25">
     <g id="line2d_30">
      <g>
       <use xlink:href="#m81e8eb6578" x="165.26025" y="141.807521" style="stroke: #000000; stroke-width: 0.3"/>
      </g>
     </g>
    </g>
    <g id="xtick_26">
     <g id="line2d_31">
      <g>
       <use xlink:href="#m81e8eb6578" x="169.05505" y="141.807521" style="stroke: #000000; stroke-width: 0.3"/>
      </g>
     </g>
    </g>
    <g id="xtick_27">
     <g id="line2d_32">
      <g>
       <use xlink:href="#m81e8eb6578" x="172.263507" y="141.807521" style="stroke: #000000; stroke-width: 0.3"/>
      </g>
     </g>
    </g>
    <g id="xtick_28">
     <g id="line2d_33">
      <g>
       <use xlink:href="#m81e8eb6578" x="175.0428" y="141.807521" style="stroke: #000000; stroke-width: 0.3"/>
      </g>
     </g>
    </g>
    <g id="xtick_29">
     <g id="line2d_34">
      <g>
       <use xlink:href="#m81e8eb6578" x="177.49431" y="141.807521" style="stroke: #000000; stroke-width: 0.3"/>
      </g>
     </g>
    </g>
    <g id="xtick_30">
     <g id="line2d_35">
      <g>
       <use xlink:href="#m81e8eb6578" x="194.11427" y="141.807521" style="stroke: #000000; stroke-width: 0.3"/>
      </g>
     </g>
    </g>
    <g id="xtick_31">
     <g id="line2d_36">
      <g>
       <use xlink:href="#m81e8eb6578" x="202.55353" y="141.807521" style="stroke: #000000; stroke-width: 0.3"/>
      </g>
     </g>
    </g>
    <g id="xtick_32">
     <g id="line2d_37">
      <g>
       <use xlink:href="#m81e8eb6578" x="208.54128" y="141.807521" style="stroke: #000000; stroke-width: 0.3"/>
      </g>
     </g>
    </g>
    <g id="xtick_33">
     <g id="line2d_38">
      <g>
       <use xlink:href="#m81e8eb6578" x="213.18574" y="141.807521" style="stroke: #000000; stroke-width: 0.3"/>
      </g>
     </g>
    </g>
    <g id="xtick_34">
     <g id="line2d_39">
      <g>
       <use xlink:href="#m81e8eb6578" x="216.98054" y="141.807521" style="stroke: #000000; stroke-width: 0.3"/>
      </g>
     </g>
    </g>
    <g id="xtick_35">
     <g id="line2d_40">
      <g>
       <use xlink:href="#m81e8eb6578" x="220.188998" y="141.807521" style="stroke: #000000; stroke-width: 0.3"/>
      </g>
     </g>
    </g>
    <g id="xtick_36">
     <g id="line2d_41">
      <g>
       <use xlink:href="#m81e8eb6578" x="222.96829" y="141.807521" style="stroke: #000000; stroke-width: 0.3"/>
      </g>
     </g>
    </g>
    <g id="xtick_37">
     <g id="line2d_42">
      <g>
       <use xlink:href="#m81e8eb6578" x="225.4198" y="141.807521" style="stroke: #000000; stroke-width: 0.3"/>
      </g>
     </g>
    </g>
    <g id="xtick_38">
     <g id="line2d_43">
      <g>
       <use xlink:href="#m81e8eb6578" x="242.03976" y="141.807521" style="stroke: #000000; stroke-width: 0.3"/>
      </g>
     </g>
    </g>
    <g id="text_6">
     <!-- Iteration -->
     <g transform="translate(120.004704 164.810567) scale(0.1 -0.1)">
      <defs>
       <path id="CMR17-49" d="M 1261 3905 
C 1261 4192 1338 4192 1798 4192 
L 1798 4352 
C 1594 4352 1267 4352 1050 4352 
C 832 4352 506 4352 301 4352 
L 301 4192 
C 762 4192 838 4192 838 3905 
L 838 447 
C 838 160 762 160 301 160 
L 301 0 
C 506 0 832 0 1050 0 
C 1267 0 1594 0 1798 0 
L 1798 160 
C 1338 160 1261 160 1261 447 
L 1261 3905 
z
" transform="scale(0.015625)"/>
       <path id="CMR17-74" d="M 966 2560 
L 1862 2560 
L 1862 2725 
L 966 2725 
L 966 3904 
L 851 3904 
C 838 3245 614 2668 70 2668 
L 70 2560 
L 627 2560 
L 627 771 
C 627 650 627 -64 1370 -64 
C 1747 -64 1965 306 1965 777 
L 1965 1140 
L 1850 1140 
L 1850 783 
C 1850 344 1677 51 1408 51 
C 1222 51 966 178 966 758 
L 966 2560 
z
" transform="scale(0.015625)"/>
       <path id="CMR17-65" d="M 2438 1472 
C 2464 1498 2464 1511 2464 1576 
C 2464 2238 2118 2816 1389 2816 
C 710 2816 173 2169 173 1383 
C 173 551 781 -64 1459 -64 
C 2176 -64 2458 607 2458 740 
C 2458 784 2419 784 2406 784 
C 2362 784 2355 771 2330 696 
C 2189 265 1837 51 1504 51 
C 1229 51 954 203 781 480 
C 582 803 582 1176 582 1472 
L 2438 1472 
z
M 589 1568 
C 634 2505 1126 2714 1382 2714 
C 1818 2714 2112 2297 2118 1568 
L 589 1568 
z
" transform="scale(0.015625)"/>
       <path id="CMR17-72" d="M 960 1497 
C 960 2112 1222 2688 1702 2688 
C 1747 2688 1792 2682 1837 2662 
C 1837 2662 1696 2617 1696 2452 
C 1696 2298 1818 2234 1914 2234 
C 1990 2234 2131 2279 2131 2458 
C 2131 2663 1926 2790 1709 2790 
C 1222 2790 1011 2317 947 2093 
L 941 2093 
L 941 2790 
L 198 2720 
L 198 2554 
C 576 2554 634 2515 634 2208 
L 634 428 
C 634 184 608 153 198 153 
L 198 -13 
C 352 0 646 0 813 0 
C 998 0 1325 0 1498 -13 
L 1498 153 
C 1037 153 960 153 960 440 
L 960 1497 
z
" transform="scale(0.015625)"/>
       <path id="CMR17-61" d="M 2304 1653 
C 2304 2072 2304 2294 2035 2543 
C 1798 2752 1523 2816 1306 2816 
C 800 2816 435 2407 435 1971 
C 435 1728 627 1728 666 1728 
C 749 1728 896 1778 896 1954 
C 896 2112 774 2181 666 2181 
C 640 2181 608 2174 589 2168 
C 723 2592 1069 2714 1293 2714 
C 1613 2714 1965 2429 1965 1885 
L 1965 1600 
C 1587 1600 1133 1549 774 1357 
C 371 1133 256 813 256 570 
C 256 77 832 -64 1171 -64 
C 1523 -64 1850 139 1990 511 
C 2003 233 2182 -18 2464 -18 
C 2598 -18 2938 70 2938 567 
L 2938 920 
L 2822 920 
L 2822 562 
C 2822 178 2650 128 2566 128 
C 2304 128 2304 458 2304 738 
L 2304 1653 
z
M 1965 870 
C 1965 317 1568 38 1216 38 
C 896 38 646 275 646 570 
C 646 761 730 1100 1101 1305 
C 1408 1478 1760 1504 1965 1504 
L 1965 870 
z
" transform="scale(0.015625)"/>
       <path id="CMR17-69" d="M 992 3909 
C 992 4049 877 4170 730 4170 
C 589 4170 467 4056 467 3909 
C 467 3769 582 3648 730 3648 
C 870 3648 992 3763 992 3909 
z
M 243 2706 
L 243 2541 
C 602 2541 653 2502 653 2197 
L 653 427 
C 653 184 627 153 218 153 
L 218 -13 
C 371 0 646 0 806 0 
C 960 0 1222 0 1370 -13 
L 1370 153 
C 992 153 979 191 979 420 
L 979 2776 
L 243 2706 
z
" transform="scale(0.015625)"/>
       <path id="CMR17-6f" d="M 2758 1356 
C 2758 2176 2163 2816 1466 2816 
C 768 2816 173 2176 173 1356 
C 173 551 768 -64 1466 -64 
C 2163 -64 2758 551 2758 1356 
z
M 1466 51 
C 1165 51 909 230 762 480 
C 602 767 582 1126 582 1408 
C 582 1677 595 2010 762 2298 
C 890 2509 1139 2714 1466 2714 
C 1754 2714 1997 2554 2150 2330 
C 2349 2029 2349 1607 2349 1408 
C 2349 1158 2336 775 2163 467 
C 1984 173 1709 51 1466 51 
z
" transform="scale(0.015625)"/>
       <path id="CMR17-6e" d="M 2656 1933 
C 2656 2259 2592 2790 1837 2790 
C 1331 2790 1069 2400 973 2144 
L 966 2144 
L 966 2790 
L 211 2720 
L 211 2554 
C 589 2554 646 2515 646 2208 
L 646 428 
C 646 184 621 153 211 153 
L 211 -13 
C 365 0 646 0 813 0 
C 979 0 1267 0 1421 -13 
L 1421 153 
C 1011 153 986 178 986 428 
L 986 1658 
C 986 2247 1344 2688 1792 2688 
C 2266 2688 2317 2266 2317 1958 
L 2317 428 
C 2317 184 2291 153 1882 153 
L 1882 -13 
C 2035 0 2317 0 2483 0 
C 2650 0 2938 0 3091 -13 
L 3091 153 
C 2682 153 2656 178 2656 428 
L 2656 1933 
z
" transform="scale(0.015625)"/>
      </defs>
      <use xlink:href="#CMR17-49" transform="scale(0.996264)"/>
      <use xlink:href="#CMR17-74" transform="translate(32.638409 0) scale(0.996264)"/>
      <use xlink:href="#CMR17-65" transform="translate(67.919177 0) scale(0.996264)"/>
      <use xlink:href="#CMR17-72" transform="translate(108.404837 0) scale(0.996264)"/>
      <use xlink:href="#CMR17-61" transform="translate(143.685605 0) scale(0.996264)"/>
      <use xlink:href="#CMR17-74" transform="translate(189.376082 0) scale(0.996264)"/>
      <use xlink:href="#CMR17-69" transform="translate(224.65685 0) scale(0.996264)"/>
      <use xlink:href="#CMR17-6f" transform="translate(249.527909 0) scale(0.996264)"/>
      <use xlink:href="#CMR17-6e" transform="translate(295.218386 0) scale(0.996264)"/>
     </g>
    </g>
   </g>
   <g id="matplotlib.axis_2">
    <g id="ytick_1">
     <g id="line2d_44">
      <path d="M 35.910789 136.737971 
L 242.03976 136.737971 
" clip-path="url(#p8066932493)" style="fill: none; stroke: #000000; stroke-opacity: 0.03; stroke-width: 0.8; stroke-linecap: square"/>
     </g>
     <g id="line2d_45">
      <defs>
       <path id="m88b0d7fae5" d="M 0 0 
L -3.5 0 
" style="stroke: #000000; stroke-width: 0.6"/>
      </defs>
      <g>
       <use xlink:href="#m88b0d7fae5" x="35.910789" y="136.737971" style="stroke: #000000; stroke-width: 0.6"/>
      </g>
     </g>
     <g id="text_7">
      <!-- $\mathdefault{0.02}$ -->
      <g transform="translate(13.855917 139.505372) scale(0.08 -0.08)">
       <defs>
        <path id="CMMI12-3a" d="M 1178 307 
C 1178 492 1024 619 870 619 
C 685 619 557 466 557 313 
C 557 128 710 0 864 0 
C 1050 0 1178 153 1178 307 
z
" transform="scale(0.015625)"/>
       </defs>
       <use xlink:href="#CMR17-30" transform="scale(0.996264)"/>
       <use xlink:href="#CMMI12-3a" transform="translate(45.690477 0) scale(0.996264)"/>
       <use xlink:href="#CMR17-30" transform="translate(72.787654 0) scale(0.996264)"/>
       <use xlink:href="#CMR17-32" transform="translate(118.478131 0) scale(0.996264)"/>
      </g>
     </g>
    </g>
    <g id="ytick_2">
     <g id="line2d_46">
      <path d="M 35.910789 114.58902 
L 242.03976 114.58902 
" clip-path="url(#p8066932493)" style="fill: none; stroke: #000000; stroke-opacity: 0.03; stroke-width: 0.8; stroke-linecap: square"/>
     </g>
     <g id="line2d_47">
      <g>
       <use xlink:href="#m88b0d7fae5" x="35.910789" y="114.58902" style="stroke: #000000; stroke-width: 0.6"/>
      </g>
     </g>
     <g id="text_8">
      <!-- $\mathdefault{0.04}$ -->
      <g transform="translate(13.855917 117.356421) scale(0.08 -0.08)">
       <use xlink:href="#CMR17-30" transform="scale(0.996264)"/>
       <use xlink:href="#CMMI12-3a" transform="translate(45.690477 0) scale(0.996264)"/>
       <use xlink:href="#CMR17-30" transform="translate(72.787654 0) scale(0.996264)"/>
       <use xlink:href="#CMR17-34" transform="translate(118.478131 0) scale(0.996264)"/>
      </g>
     </g>
    </g>
    <g id="ytick_3">
     <g id="line2d_48">
      <path d="M 35.910789 92.440069 
L 242.03976 92.440069 
" clip-path="url(#p8066932493)" style="fill: none; stroke: #000000; stroke-opacity: 0.03; stroke-width: 0.8; stroke-linecap: square"/>
     </g>
     <g id="line2d_49">
      <g>
       <use xlink:href="#m88b0d7fae5" x="35.910789" y="92.440069" style="stroke: #000000; stroke-width: 0.6"/>
      </g>
     </g>
     <g id="text_9">
      <!-- $\mathdefault{0.06}$ -->
      <g transform="translate(13.855917 95.207469) scale(0.08 -0.08)">
       <defs>
        <path id="CMR17-36" d="M 678 2176 
C 678 3690 1395 4032 1811 4032 
C 1946 4032 2272 4009 2400 3776 
C 2298 3776 2106 3776 2106 3553 
C 2106 3381 2246 3323 2336 3323 
C 2394 3323 2566 3348 2566 3560 
C 2566 3954 2246 4179 1805 4179 
C 1043 4179 243 3390 243 1984 
C 243 253 966 -128 1478 -128 
C 2099 -128 2688 427 2688 1283 
C 2688 2081 2170 2662 1517 2662 
C 1126 2662 838 2407 678 1960 
L 678 2176 
z
M 1478 25 
C 691 25 691 1200 691 1436 
C 691 1896 909 2560 1504 2560 
C 1613 2560 1926 2560 2138 2120 
C 2253 1870 2253 1609 2253 1289 
C 2253 944 2253 690 2118 434 
C 1978 171 1773 25 1478 25 
z
" transform="scale(0.015625)"/>
       </defs>
       <use xlink:href="#CMR17-30" transform="scale(0.996264)"/>
       <use xlink:href="#CMMI12-3a" transform="translate(45.690477 0) scale(0.996264)"/>
       <use xlink:href="#CMR17-30" transform="translate(72.787654 0) scale(0.996264)"/>
       <use xlink:href="#CMR17-36" transform="translate(118.478131 0) scale(0.996264)"/>
      </g>
     </g>
    </g>
    <g id="ytick_4">
     <g id="line2d_50">
      <path d="M 35.910789 70.291117 
L 242.03976 70.291117 
" clip-path="url(#p8066932493)" style="fill: none; stroke: #000000; stroke-opacity: 0.03; stroke-width: 0.8; stroke-linecap: square"/>
     </g>
     <g id="line2d_51">
      <g>
       <use xlink:href="#m88b0d7fae5" x="35.910789" y="70.291117" style="stroke: #000000; stroke-width: 0.6"/>
      </g>
     </g>
     <g id="text_10">
      <!-- $\mathdefault{0.08}$ -->
      <g transform="translate(13.855917 73.058518) scale(0.08 -0.08)">
       <defs>
        <path id="CMR17-38" d="M 1741 2264 
C 2144 2467 2554 2773 2554 3263 
C 2554 3841 1990 4179 1472 4179 
C 890 4179 378 3759 378 3180 
C 378 3021 416 2747 666 2505 
C 730 2442 998 2251 1171 2130 
C 883 1983 211 1634 211 934 
C 211 279 838 -128 1459 -128 
C 2144 -128 2720 362 2720 1010 
C 2720 1590 2330 1857 2074 2029 
L 1741 2264 
z
M 902 2822 
C 851 2854 595 3051 595 3351 
C 595 3739 998 4032 1459 4032 
C 1965 4032 2336 3676 2336 3262 
C 2336 2669 1670 2331 1638 2331 
C 1632 2331 1626 2331 1574 2370 
L 902 2822 
z
M 2080 1519 
C 2176 1449 2483 1240 2483 851 
C 2483 381 2010 25 1472 25 
C 890 25 448 438 448 940 
C 448 1443 838 1862 1280 2060 
L 2080 1519 
z
" transform="scale(0.015625)"/>
       </defs>
       <use xlink:href="#CMR17-30" transform="scale(0.996264)"/>
       <use xlink:href="#CMMI12-3a" transform="translate(45.690477 0) scale(0.996264)"/>
       <use xlink:href="#CMR17-30" transform="translate(72.787654 0) scale(0.996264)"/>
       <use xlink:href="#CMR17-38" transform="translate(118.478131 0) scale(0.996264)"/>
      </g>
     </g>
    </g>
    <g id="ytick_5">
     <g id="line2d_52">
      <path d="M 35.910789 48.142166 
L 242.03976 48.142166 
" clip-path="url(#p8066932493)" style="fill: none; stroke: #000000; stroke-opacity: 0.03; stroke-width: 0.8; stroke-linecap: square"/>
     </g>
     <g id="line2d_53">
      <g>
       <use xlink:href="#m88b0d7fae5" x="35.910789" y="48.142166" style="stroke: #000000; stroke-width: 0.6"/>
      </g>
     </g>
     <g id="text_11">
      <!-- $\mathdefault{0.10}$ -->
      <g transform="translate(13.855917 50.909566) scale(0.08 -0.08)">
       <use xlink:href="#CMR17-30" transform="scale(0.996264)"/>
       <use xlink:href="#CMMI12-3a" transform="translate(45.690477 0) scale(0.996264)"/>
       <use xlink:href="#CMR17-31" transform="translate(72.787654 0) scale(0.996264)"/>
       <use xlink:href="#CMR17-30" transform="translate(118.478131 0) scale(0.996264)"/>
      </g>
     </g>
    </g>
    <g id="ytick_6">
     <g id="line2d_54">
      <path d="M 35.910789 25.993214 
L 242.03976 25.993214 
" clip-path="url(#p8066932493)" style="fill: none; stroke: #000000; stroke-opacity: 0.03; stroke-width: 0.8; stroke-linecap: square"/>
     </g>
     <g id="line2d_55">
      <g>
       <use xlink:href="#m88b0d7fae5" x="35.910789" y="25.993214" style="stroke: #000000; stroke-width: 0.6"/>
      </g>
     </g>
     <g id="text_12">
      <!-- $\mathdefault{0.12}$ -->
      <g transform="translate(13.855917 28.760615) scale(0.08 -0.08)">
       <use xlink:href="#CMR17-30" transform="scale(0.996264)"/>
       <use xlink:href="#CMMI12-3a" transform="translate(45.690477 0) scale(0.996264)"/>
       <use xlink:href="#CMR17-31" transform="translate(72.787654 0) scale(0.996264)"/>
       <use xlink:href="#CMR17-32" transform="translate(118.478131 0) scale(0.996264)"/>
      </g>
     </g>
    </g>
    <g id="text_13">
     <!-- Training MSE -->
     <g transform="translate(9.918738 109.164358) rotate(-90) scale(0.1 -0.1)">
      <defs>
       <path id="CMR17-54" d="M 3981 4326 
L 288 4326 
L 179 2918 
L 294 2918 
C 378 3976 467 4160 1453 4160 
C 1568 4160 1754 4160 1805 4154 
C 1926 4135 1926 4058 1926 3912 
L 1926 459 
C 1926 230 1907 160 1376 160 
L 1197 160 
L 1197 0 
C 1504 0 1824 0 2138 0 
C 2451 0 2771 0 3078 0 
L 3078 160 
L 2899 160 
C 2368 160 2349 230 2349 459 
L 2349 3912 
C 2349 4052 2349 4129 2464 4154 
C 2515 4160 2701 4160 2816 4160 
C 3795 4160 3891 3976 3974 2918 
L 4090 2918 
L 3981 4326 
z
" transform="scale(0.015625)"/>
       <path id="CMR17-67" d="M 710 1164 
C 832 1068 1043 960 1299 960 
C 1805 960 2240 1357 2240 1888 
C 2240 2054 2189 2310 1997 2509 
C 2176 2692 2438 2752 2586 2752 
C 2611 2752 2650 2752 2682 2734 
C 2656 2728 2598 2703 2598 2605 
C 2598 2527 2656 2471 2739 2471 
C 2835 2471 2886 2533 2886 2614 
C 2886 2731 2790 2854 2586 2854 
C 2330 2854 2106 2738 1926 2580 
C 1734 2753 1504 2816 1299 2816 
C 794 2816 358 2419 358 1888 
C 358 1522 570 1292 634 1228 
C 442 1004 442 743 442 711 
C 442 545 506 302 723 168 
C 390 85 128 -169 128 -486 
C 128 -943 736 -1280 1466 -1280 
C 2170 -1280 2803 -956 2803 -479 
C 2803 384 1856 384 1363 384 
C 1216 384 954 384 922 391 
C 723 423 589 602 589 826 
C 589 883 589 1024 710 1164 
z
M 1299 1068 
C 736 1068 736 1760 736 1889 
C 736 2016 736 2708 1299 2708 
C 1862 2708 1862 2016 1862 1889 
C 1862 1760 1862 1068 1299 1068 
z
M 1466 -1171 
C 826 -1171 384 -835 384 -486 
C 384 -289 493 -105 634 -4 
C 794 104 858 104 1293 104 
C 1818 104 2547 104 2547 -486 
C 2547 -835 2106 -1171 1466 -1171 
z
" transform="scale(0.015625)"/>
       <path id="CMR17-4d" d="M 1338 4224 
C 1299 4320 1293 4320 1158 4320 
L 339 4320 
L 339 4160 
C 781 4160 851 4160 851 3875 
L 851 610 
C 851 451 851 153 339 153 
L 339 -13 
C 486 0 755 0 915 0 
C 1075 0 1344 0 1491 -13 
L 1491 153 
C 979 153 979 451 979 610 
L 979 4135 
L 986 4135 
L 2490 89 
C 2515 25 2528 -13 2579 -13 
C 2630 -13 2643 25 2669 89 
L 4186 4166 
L 4192 4166 
L 4192 438 
C 4192 153 4122 153 3680 153 
L 3680 -13 
C 3853 0 4198 0 4384 0 
C 4570 0 4922 0 5094 -13 
L 5094 153 
C 4653 153 4582 153 4582 438 
L 4582 3875 
C 4582 4160 4653 4160 5094 4160 
L 5094 4320 
L 4282 4320 
C 4147 4320 4141 4314 4102 4218 
L 2720 502 
L 1338 4224 
z
" transform="scale(0.015625)"/>
       <path id="CMR17-53" d="M 2803 4290 
C 2803 4404 2797 4411 2758 4411 
C 2720 4411 2707 4385 2682 4328 
L 2490 3907 
C 2246 4257 1875 4416 1472 4416 
C 819 4416 294 3901 294 3253 
C 294 3056 339 2776 557 2510 
C 794 2218 1018 2167 1530 2033 
C 1722 1982 2042 1899 2106 1874 
C 2470 1722 2662 1341 2662 985 
C 2662 527 2336 38 1779 38 
C 1094 38 454 419 410 1311 
C 403 1413 397 1419 352 1419 
C 301 1419 294 1413 294 1285 
L 294 -1 
C 294 -115 301 -122 339 -122 
C 384 -122 397 -90 486 108 
C 493 127 493 140 614 381 
C 934 -39 1472 -128 1779 -128 
C 2477 -128 2970 451 2970 1124 
C 2970 1454 2848 1708 2778 1823 
C 2509 2230 2221 2306 1914 2382 
C 1869 2402 1856 2402 1498 2490 
C 1152 2579 1005 2624 845 2796 
C 666 2992 602 3196 602 3399 
C 602 3812 934 4263 1478 4263 
C 2157 4263 2579 3786 2675 2993 
C 2694 2878 2701 2872 2746 2872 
C 2803 2872 2803 2891 2803 2999 
L 2803 4290 
z
" transform="scale(0.015625)"/>
       <path id="CMR17-45" d="M 3885 1615 
L 3770 1615 
C 3629 676 3546 166 2419 166 
L 1530 166 
C 1274 166 1261 197 1261 414 
L 1261 2176 
L 1862 2176 
C 2464 2176 2522 1960 2522 1430 
L 2637 1430 
L 2637 3081 
L 2522 3081 
C 2522 2557 2464 2342 1862 2342 
L 1261 2342 
L 1261 3913 
C 1261 4128 1274 4160 1530 4160 
L 2406 4160 
C 3398 4160 3514 3769 3603 2929 
L 3718 2929 
L 3565 4325 
L 326 4325 
L 326 4160 
C 768 4160 838 4160 838 3874 
L 838 451 
C 838 166 768 166 326 166 
L 326 0 
L 3654 0 
L 3885 1615 
z
" transform="scale(0.015625)"/>
      </defs>
      <use xlink:href="#CMR17-54" transform="scale(0.996264)"/>
      <use xlink:href="#CMR17-72" transform="translate(58.702625 0) scale(0.996264)"/>
      <use xlink:href="#CMR17-61" transform="translate(93.983393 0) scale(0.996264)"/>
      <use xlink:href="#CMR17-69" transform="translate(139.67387 0) scale(0.996264)"/>
      <use xlink:href="#CMR17-6e" transform="translate(164.544929 0) scale(0.996264)"/>
      <use xlink:href="#CMR17-69" transform="translate(215.440298 0) scale(0.996264)"/>
      <use xlink:href="#CMR17-6e" transform="translate(240.311357 0) scale(0.996264)"/>
      <use xlink:href="#CMR17-67" transform="translate(291.206727 0) scale(0.996264)"/>
      <use xlink:href="#CMR17-4d" transform="translate(366.97317 0) scale(0.996264)"/>
      <use xlink:href="#CMR17-53" transform="translate(451.660111 0) scale(0.996264)"/>
      <use xlink:href="#CMR17-45" transform="translate(502.55548 0) scale(0.996264)"/>
     </g>
    </g>
   </g>
   <g id="line2d_56">
    <path d="M 35.910789 136.270283 
L 242.03976 136.270283 
" clip-path="url(#p8066932493)" style="fill: none; stroke-dasharray: 2.22,0.96; stroke-dashoffset: 0; stroke: #000000; stroke-width: 0.6"/>
   </g>
   <g id="line2d_57">
    <path d="M -1 19.650721 
L 35.910789 19.666528 
L 50.337799 32.871635 
L 64.764809 47.847544 
L 69.409269 52.392627 
L 76.412527 58.84759 
L 85.820044 67.44202 
L 90.839537 72.383259 
L 96.070339 77.873799 
L 108.04584 90.65735 
L 111.622692 94.074667 
L 114.674064 96.690933 
L 117.334759 98.70794 
L 120.061952 100.502734 
L 122.79555 102.027237 
L 125.494636 103.284023 
L 128.622576 104.481486 
L 132.377 105.656139 
L 139.638461 107.614989 
L 145.33912 109.280938 
L 149.896674 110.844451 
L 154.27822 112.582199 
L 158.652828 114.557475 
L 163.205597 116.860559 
L 168.277535 119.683626 
L 175.632755 124.067758 
L 182.794376 128.256641 
L 186.941734 130.42488 
L 190.448117 132.012813 
L 193.683153 133.236355 
L 196.814058 134.183186 
L 199.979378 134.90694 
L 203.336479 135.44348 
L 207.142412 135.819974 
L 211.937697 136.05808 
L 219.680328 136.188924 
L 241.743142 136.267368 
L 242.038719 136.267568 
L 242.038719 136.267568 
" clip-path="url(#p8066932493)" style="fill: none; stroke: #1f77b4; stroke-width: 0.6; stroke-linecap: square"/>
   </g>
   <g id="line2d_58">
    <path d="M -1 21.895053 
L 35.910789 21.91259 
L 50.337799 35.867747 
L 58.777059 44.658079 
L 64.764809 50.565962 
L 73.204069 58.217412 
L 81.643329 65.696968 
L 85.820044 69.647716 
L 90.839537 74.727642 
L 97.195682 81.555193 
L 104.509599 89.37589 
L 108.04584 92.866267 
L 111.067625 95.582912 
L 114.195566 98.076178 
L 116.914265 99.952507 
L 119.693557 101.586444 
L 122.47285 102.949729 
L 125.494636 104.167254 
L 128.8632 105.278258 
L 133.933895 106.68313 
L 141.930964 108.902874 
L 146.600947 110.444679 
L 150.999087 112.129692 
L 155.377553 114.047244 
L 159.874254 116.263199 
L 164.754627 118.922117 
L 171.038814 122.620656 
L 180.742375 128.335697 
L 184.857846 130.479055 
L 188.361082 132.057611 
L 191.583256 133.26864 
L 194.709283 134.207046 
L 197.874351 134.924296 
L 201.243515 135.45651 
L 205.066619 135.828584 
L 209.905698 136.063094 
L 217.813542 136.191678 
L 240.522575 136.267987 
L 242.038719 136.268736 
L 242.038719 136.268736 
" clip-path="url(#p8066932493)" style="fill: none; stroke: #fdc38d; stroke-width: 0.6; stroke-linecap: square"/>
   </g>
   <g id="line2d_59">
    <path d="M -1 30.093244 
L 35.910789 30.117099 
L 50.337799 47.943332 
L 58.777059 56.082115 
L 64.764809 60.393115 
L 69.409269 64.067514 
L 73.204069 67.840541 
L 79.191819 74.797692 
L 87.631079 84.617278 
L 92.275539 89.747137 
L 96.070339 93.568043 
L 99.278797 96.43125 
L 102.058089 98.593326 
L 104.509599 100.241471 
L 107.385029 101.871049 
L 109.911007 103.054587 
L 112.690299 104.130901 
L 116.046899 105.195578 
L 121.473597 106.636485 
L 128.8632 108.63074 
L 133.555453 110.13805 
L 138.008079 111.804519 
L 142.435566 113.706751 
L 146.904803 115.874686 
L 151.72947 118.47051 
L 157.657324 121.931858 
L 169.05505 128.64265 
L 173.051228 130.692905 
L 176.499605 132.217479 
L 179.708063 133.394929 
L 182.8302 134.304334 
L 186.010515 134.99789 
L 189.41771 135.509546 
L 193.318742 135.863485 
L 198.355219 136.083088 
L 207.053178 136.202928 
L 232.457718 136.269564 
L 242.038719 136.270266 
L 242.038719 136.270266 
" clip-path="url(#p8066932493)" style="fill: none; stroke: #fd8c3b; stroke-width: 0.6; stroke-linecap: square"/>
   </g>
   <g id="line2d_60">
    <path d="M -1 35.42379 
L 35.910789 35.451754 
L 50.337799 54.155445 
L 58.777059 55.321673 
L 64.764809 52.23861 
L 69.409269 56.130913 
L 73.204069 68.050036 
L 76.412527 81.631187 
L 79.191819 90.66214 
L 81.643329 93.860866 
L 83.836279 94.154919 
L 85.820044 94.985895 
L 87.631079 97.55805 
L 89.29707 100.81111 
L 90.839537 103.150807 
L 92.275539 103.960669 
L 94.880657 103.614985 
L 96.070339 103.908192 
L 98.263289 105.152087 
L 99.278797 105.448673 
L 102.058089 105.686466 
L 105.99693 106.919531 
L 108.04584 107.566277 
L 118.547555 111.264141 
L 122.79555 113.11471 
L 127.11731 115.233055 
L 131.761769 117.755351 
L 137.382054 121.073622 
L 150.327617 128.828196 
L 154.207545 130.821627 
L 157.597256 132.31582 
L 160.771311 133.47183 
L 163.883631 134.366368 
L 167.053933 135.043753 
L 170.463282 135.541028 
L 174.408829 135.88386 
L 179.58293 136.094219 
L 188.902786 136.209317 
L 216.007657 136.269982 
L 242.038719 136.270283 
L 242.038719 136.270283 
" clip-path="url(#p8066932493)" style="fill: none; stroke: #ec620f; stroke-width: 0.6; stroke-linecap: square"/>
   </g>
   <g id="line2d_61">
    <path d="M -1 37.359665 
L 35.910789 37.389121 
L 50.337799 55.086051 
L 58.777059 48.381946 
L 64.764809 34.852 
L 69.409269 35.106027 
L 73.204069 54.75815 
L 76.412527 81.687129 
L 79.191819 98.53318 
L 81.643329 97.740548 
L 83.836279 86.28123 
L 85.820044 77.714968 
L 87.631079 80.091315 
L 89.29707 90.335505 
L 90.839537 98.748931 
L 92.275539 98.313813 
L 94.880657 82.24632 
L 96.070339 80.699966 
L 97.195682 86.221237 
L 98.263289 93.779687 
L 99.278797 97.800608 
L 100.247054 96.824357 
L 101.172263 94.010035 
L 102.058089 93.715904 
L 102.907749 97.605289 
L 103.72408 103.58912 
L 104.509599 108.054127 
L 105.266547 109.030563 
L 106.702549 106.239594 
L 107.385029 107.023649 
L 108.686314 111.883834 
L 109.307667 112.455779 
L 109.911007 111.279747 
L 110.497349 109.780442 
L 111.067625 109.425335 
L 111.622692 110.533118 
L 112.16334 112.208505 
L 112.690299 113.283844 
L 113.204246 113.332708 
L 113.705807 112.90532 
L 114.195566 112.911884 
L 114.674064 113.797925 
L 115.599273 116.471793 
L 116.046899 117.045302 
L 116.914265 117.064466 
L 117.334759 117.449907 
L 118.151091 118.987884 
L 118.547555 119.41485 
L 118.936609 119.447442 
L 119.318524 119.348947 
L 119.693557 119.435045 
L 120.42394 120.325989 
L 120.77974 120.737848 
L 121.473597 121.011051 
L 121.812039 121.151369 
L 122.47285 121.916718 
L 123.113324 122.655985 
L 124.038533 123.245606 
L 125.211451 124.328412 
L 126.049702 124.831625 
L 126.855498 125.473292 
L 127.883547 126.16107 
L 128.8632 126.866773 
L 132.974565 129.529296 
L 136.23905 131.324717 
L 139.35137 132.743191 
L 142.184794 133.779713 
L 145.011337 134.578187 
L 147.982463 135.187481 
L 151.32687 135.638982 
L 155.31052 135.941019 
L 160.874349 136.119993 
L 172.99389 136.227445 
L 204.68812 136.270273 
L 242.038719 136.270283 
L 242.038719 136.270283 
" clip-path="url(#p8066932493)" style="fill: none; stroke: #e15307; stroke-width: 0.6; stroke-linecap: square"/>
   </g>
   <g id="patch_3">
    <path d="M 35.910789 141.807521 
L 35.910789 14.918738 
" style="fill: none; stroke: #000000; stroke-width: 0.5; stroke-linejoin: miter; stroke-linecap: square"/>
   </g>
   <g id="patch_4">
    <path d="M 242.03976 141.807521 
L 242.03976 14.918738 
" style="fill: none; stroke: #000000; stroke-width: 0.5; stroke-linejoin: miter; stroke-linecap: square"/>
   </g>
   <g id="patch_5">
    <path d="M 35.910789 141.807521 
L 242.03976 141.807521 
" style="fill: none; stroke: #000000; stroke-width: 0.5; stroke-linejoin: miter; stroke-linecap: square"/>
   </g>
   <g id="patch_6">
    <path d="M 35.910789 14.918738 
L 242.03976 14.918738 
" style="fill: none; stroke: #000000; stroke-width: 0.5; stroke-linejoin: miter; stroke-linecap: square"/>
   </g>
   <g id="text_14">
    <!-- OLS + Momentum -->
    <g transform="translate(97.118254 9.918738) scale(0.1 -0.1)">
     <defs>
      <path id="CMR17-4f" d="M 4307 2135 
C 4307 3437 3366 4416 2304 4416 
C 1216 4416 294 3424 294 2135 
C 294 845 1229 -128 2298 -128 
C 3392 -128 4307 864 4307 2135 
z
M 2304 -13 
C 1574 -13 781 711 781 2217 
C 781 3716 1651 4301 2298 4301 
C 2976 4301 3821 3698 3821 2217 
C 3821 686 3008 -13 2304 -13 
z
" transform="scale(0.015625)"/>
      <path id="CMR17-4c" d="M 3469 1615 
L 3354 1615 
C 3302 983 3219 166 2125 166 
L 1530 166 
C 1274 166 1261 197 1261 414 
L 1261 3898 
C 1261 4129 1274 4192 1760 4192 
L 1901 4192 
L 1901 4352 
C 1638 4352 1331 4352 1069 4352 
C 870 4352 512 4352 326 4352 
L 326 4192 
C 768 4192 838 4192 838 3905 
L 838 452 
C 838 166 768 166 326 166 
L 326 0 
L 3315 0 
L 3469 1615 
z
" transform="scale(0.015625)"/>
      <path id="CMR17-2b" d="M 2413 1472 
L 4109 1472 
C 4198 1472 4307 1472 4307 1580 
C 4307 1695 4205 1695 4109 1695 
L 2413 1695 
L 2413 3386 
C 2413 3475 2413 3584 2304 3584 
C 2189 3584 2189 3482 2189 3386 
L 2189 1695 
L 493 1695 
C 403 1695 294 1695 294 1587 
C 294 1472 397 1472 493 1472 
L 2189 1472 
L 2189 -218 
C 2189 -307 2189 -416 2298 -416 
C 2413 -416 2413 -314 2413 -218 
L 2413 1472 
z
" transform="scale(0.015625)"/>
      <path id="CMR17-6d" d="M 4326 1933 
C 4326 2252 4269 2790 3507 2790 
C 3072 2790 2771 2496 2656 2151 
L 2650 2151 
C 2573 2676 2195 2790 1837 2790 
C 1331 2790 1069 2400 973 2144 
L 966 2144 
L 966 2790 
L 211 2720 
L 211 2554 
C 589 2554 646 2515 646 2208 
L 646 428 
C 646 184 621 153 211 153 
L 211 -13 
C 365 0 646 0 813 0 
C 979 0 1267 0 1421 -13 
L 1421 153 
C 1011 153 986 178 986 428 
L 986 1658 
C 986 2247 1344 2688 1792 2688 
C 2266 2688 2317 2266 2317 1958 
L 2317 428 
C 2317 184 2291 153 1882 153 
L 1882 -13 
C 2035 0 2317 0 2483 0 
C 2650 0 2938 0 3091 -13 
L 3091 153 
C 2682 153 2656 178 2656 428 
L 2656 1658 
C 2656 2247 3014 2688 3462 2688 
C 3936 2688 3987 2266 3987 1958 
L 3987 428 
C 3987 184 3962 153 3552 153 
L 3552 -13 
C 3706 0 3987 0 4154 0 
C 4320 0 4608 0 4762 -13 
L 4762 153 
C 4352 153 4326 178 4326 428 
L 4326 1933 
z
" transform="scale(0.015625)"/>
      <path id="CMR17-75" d="M 1882 2693 
L 1882 2528 
C 2259 2528 2317 2489 2317 2186 
L 2317 1032 
C 2317 500 2029 38 1555 38 
C 1030 38 986 348 986 678 
L 986 2763 
L 211 2693 
L 211 2528 
C 467 2528 640 2528 646 2274 
L 646 1058 
C 646 633 646 361 813 183 
C 896 101 1056 -64 1517 -64 
C 2061 -64 2272 377 2323 506 
L 2330 506 
L 2330 -63 
L 3091 -63 
L 3091 128 
C 2714 128 2656 166 2656 473 
L 2656 2763 
L 1882 2693 
z
" transform="scale(0.015625)"/>
     </defs>
     <use xlink:href="#CMR17-4f" transform="scale(0.996264)"/>
     <use xlink:href="#CMR17-4c" transform="translate(71.714788 0) scale(0.996264)"/>
     <use xlink:href="#CMR17-53" transform="translate(129.096196 0) scale(0.996264)"/>
     <use xlink:href="#CMR17-2b" transform="translate(210.067532 0) scale(0.996264)"/>
     <use xlink:href="#CMR17-4d" transform="translate(311.858287 0) scale(0.996264)"/>
     <use xlink:href="#CMR17-6f" transform="translate(396.545228 0) scale(0.996264)"/>
     <use xlink:href="#CMR17-6d" transform="translate(442.235705 0) scale(0.996264)"/>
     <use xlink:href="#CMR17-65" transform="translate(519.155295 0) scale(0.996264)"/>
     <use xlink:href="#CMR17-6e" transform="translate(559.640955 0) scale(0.996264)"/>
     <use xlink:href="#CMR17-74" transform="translate(607.933871 0) scale(0.996264)"/>
     <use xlink:href="#CMR17-75" transform="translate(643.214639 0) scale(0.996264)"/>
     <use xlink:href="#CMR17-6d" transform="translate(694.110009 0) scale(0.996264)"/>
    </g>
   </g>
  </g>
  <g id="legend_1">
   <g id="line2d_62">
    <path d="M 23.660563 182.248465 
L 33.660563 182.248465 
L 43.660563 182.248465 
" style="fill: none; stroke-dasharray: 2.22,0.96; stroke-dashoffset: 0; stroke: #000000; stroke-width: 0.6"/>
   </g>
   <g id="text_15">
    <!-- OLS analytical soln. -->
    <g transform="translate(46.660563 185.748465) scale(0.1 -0.1)">
     <defs>
      <path id="CMR17-6c" d="M 979 4396 
L 218 4326 
L 218 4160 
C 595 4160 653 4122 653 3817 
L 653 426 
C 653 184 627 153 218 153 
L 218 -13 
C 371 0 653 0 813 0 
C 979 0 1261 0 1414 -13 
L 1414 153 
C 1005 153 979 178 979 426 
L 979 4396 
z
" transform="scale(0.015625)"/>
      <path id="CMR17-79" d="M 2496 2197 
C 2656 2586 2944 2586 3034 2586 
L 3034 2752 
C 2912 2752 2752 2752 2630 2752 
C 2496 2752 2285 2752 2157 2758 
L 2157 2592 
C 2400 2573 2406 2394 2406 2343 
C 2406 2280 2394 2248 2362 2171 
L 1664 449 
L 902 2306 
C 870 2382 870 2426 870 2433 
C 870 2573 1018 2586 1171 2586 
L 1171 2758 
C 1018 2752 742 2752 582 2752 
C 410 2752 205 2752 64 2758 
L 64 2586 
C 410 2586 448 2554 531 2350 
L 1485 15 
C 1197 -738 1030 -1178 627 -1178 
C 557 -1178 397 -1159 282 -1044 
C 429 -1031 493 -942 493 -833 
C 493 -725 416 -629 288 -629 
C 147 -629 77 -725 77 -840 
C 77 -1095 339 -1280 627 -1280 
C 998 -1280 1229 -922 1357 -604 
L 2496 2197 
z
" transform="scale(0.015625)"/>
      <path id="CMR17-63" d="M 2234 2240 
C 2112 2240 1933 2240 1933 2017 
C 1933 1838 2080 1787 2163 1787 
C 2208 1787 2394 1807 2394 2024 
C 2394 2467 1958 2803 1466 2803 
C 787 2803 211 2178 211 1363 
C 211 516 813 -64 1466 -64 
C 2259 -64 2458 677 2458 748 
C 2458 774 2451 793 2406 793 
C 2362 793 2355 787 2330 703 
C 2163 180 1798 51 1523 51 
C 1114 51 621 427 621 1369 
C 621 2338 1094 2688 1472 2688 
C 1722 2688 2093 2573 2234 2240 
z
" transform="scale(0.015625)"/>
      <path id="CMR17-73" d="M 1978 2697 
C 1978 2813 1971 2819 1933 2819 
C 1907 2819 1901 2813 1824 2717 
C 1805 2691 1747 2626 1728 2601 
C 1523 2819 1235 2819 1126 2819 
C 416 2819 160 2447 160 2076 
C 160 1498 813 1365 998 1325 
C 1402 1243 1542 1217 1677 1101 
C 1760 1025 1901 884 1901 654 
C 1901 384 1747 38 1158 38 
C 602 38 403 460 288 1021 
C 269 1110 269 1117 218 1117 
C 166 1117 160 1110 160 983 
L 160 63 
C 160 -51 166 -58 205 -58 
C 237 -58 243 -51 275 0 
C 314 57 410 211 448 276 
C 576 103 800 -64 1158 -64 
C 1792 -64 2131 283 2131 784 
C 2131 1112 1958 1285 1875 1362 
C 1683 1561 1459 1606 1190 1657 
C 838 1735 390 1825 390 2217 
C 390 2383 480 2737 1126 2737 
C 1811 2737 1850 2094 1862 1888 
C 1869 1856 1901 1849 1920 1849 
C 1978 1849 1978 1869 1978 1978 
L 1978 2697 
z
" transform="scale(0.015625)"/>
      <path id="CMR17-2e" d="M 1062 261 
C 1062 420 934 522 800 522 
C 672 522 538 420 538 261 
C 538 102 666 0 800 0 
C 928 0 1062 102 1062 261 
z
" transform="scale(0.015625)"/>
     </defs>
     <use xlink:href="#CMR17-4f" transform="scale(0.996264)"/>
     <use xlink:href="#CMR17-4c" transform="translate(71.714788 0) scale(0.996264)"/>
     <use xlink:href="#CMR17-53" transform="translate(129.096196 0) scale(0.996264)"/>
     <use xlink:href="#CMR17-61" transform="translate(210.067532 0) scale(0.996264)"/>
     <use xlink:href="#CMR17-6e" transform="translate(255.75801 0) scale(0.996264)"/>
     <use xlink:href="#CMR17-61" transform="translate(306.653379 0) scale(0.996264)"/>
     <use xlink:href="#CMR17-6c" transform="translate(352.343856 0) scale(0.996264)"/>
     <use xlink:href="#CMR17-79" transform="translate(377.214915 0) scale(0.996264)"/>
     <use xlink:href="#CMR17-74" transform="translate(425.507831 0) scale(0.996264)"/>
     <use xlink:href="#CMR17-69" transform="translate(460.788599 0) scale(0.996264)"/>
     <use xlink:href="#CMR17-63" transform="translate(485.659657 0) scale(0.996264)"/>
     <use xlink:href="#CMR17-61" transform="translate(526.145317 0) scale(0.996264)"/>
     <use xlink:href="#CMR17-6c" transform="translate(571.835795 0) scale(0.996264)"/>
     <use xlink:href="#CMR17-73" transform="translate(626.782819 0) scale(0.996264)"/>
     <use xlink:href="#CMR17-6f" transform="translate(662.584157 0) scale(0.996264)"/>
     <use xlink:href="#CMR17-6c" transform="translate(708.274634 0) scale(0.996264)"/>
     <use xlink:href="#CMR17-6e" transform="translate(733.145693 0) scale(0.996264)"/>
     <use xlink:href="#CMR17-2e" transform="translate(784.041062 0) scale(0.996264)"/>
    </g>
   </g>
   <g id="line2d_63">
    <path d="M 23.660563 196.185643 
L 33.660563 196.185643 
L 43.660563 196.185643 
" style="fill: none; stroke: #1f77b4; stroke-width: 0.6; stroke-linecap: square"/>
   </g>
   <g id="text_16">
    <!-- OLS -->
    <g transform="translate(46.660563 199.685643) scale(0.1 -0.1)">
     <use xlink:href="#CMR17-4f" transform="scale(0.996264)"/>
     <use xlink:href="#CMR17-4c" transform="translate(71.714788 0) scale(0.996264)"/>
     <use xlink:href="#CMR17-53" transform="translate(129.096196 0) scale(0.996264)"/>
    </g>
   </g>
   <g id="line2d_64">
    <path d="M 23.660563 210.122822 
L 33.660563 210.122822 
L 43.660563 210.122822 
" style="fill: none; stroke: #fdc38d; stroke-width: 0.6; stroke-linecap: square"/>
   </g>
   <g id="text_17">
    <!-- mass = 0.1 -->
    <g transform="translate(46.660563 213.622822) scale(0.1 -0.1)">
     <defs>
      <path id="CMR17-3d" d="M 4115 2017 
C 4211 2017 4307 2017 4307 2125 
C 4307 2240 4198 2240 4090 2240 
L 512 2240 
C 403 2240 294 2240 294 2125 
C 294 2017 390 2017 486 2017 
L 4115 2017 
z
M 4090 896 
C 4198 896 4307 896 4307 1011 
C 4307 1119 4211 1119 4115 1119 
L 486 1119 
C 390 1119 294 1119 294 1011 
C 294 896 403 896 512 896 
L 4090 896 
z
" transform="scale(0.015625)"/>
     </defs>
     <use xlink:href="#CMR17-6d" transform="scale(0.996264)"/>
     <use xlink:href="#CMR17-61" transform="translate(76.91959 0) scale(0.996264)"/>
     <use xlink:href="#CMR17-73" transform="translate(122.610067 0) scale(0.996264)"/>
     <use xlink:href="#CMR17-73" transform="translate(158.411405 0) scale(0.996264)"/>
     <use xlink:href="#CMR17-3d" transform="translate(224.288709 0) scale(0.996264)"/>
     <use xlink:href="#CMR17-30" transform="translate(326.079463 0) scale(0.996264)"/>
     <use xlink:href="#CMR17-2e" transform="translate(371.76994 0) scale(0.996264)"/>
     <use xlink:href="#CMR17-31" transform="translate(396.640999 0) scale(0.996264)"/>
    </g>
   </g>
   <g id="line2d_65">
    <path d="M 145.134556 182.248465 
L 155.134556 182.248465 
L 165.134556 182.248465 
" style="fill: none; stroke: #fd8c3b; stroke-width: 0.6; stroke-linecap: square"/>
   </g>
   <g id="text_18">
    <!-- mass = 0.5 -->
    <g transform="translate(168.134556 185.748465) scale(0.1 -0.1)">
     <defs>
      <path id="CMR17-35" d="M 730 3692 
C 794 3666 1056 3584 1325 3584 
C 1920 3584 2246 3911 2432 4100 
C 2432 4157 2432 4192 2394 4192 
C 2387 4192 2374 4192 2323 4163 
C 2099 4058 1837 3973 1517 3973 
C 1325 3973 1037 3999 723 4139 
C 653 4171 640 4171 634 4171 
C 602 4171 595 4164 595 4037 
L 595 2203 
C 595 2089 595 2057 659 2057 
C 691 2057 704 2070 736 2114 
C 941 2401 1222 2522 1542 2522 
C 1766 2522 2246 2382 2246 1289 
C 2246 1085 2246 715 2054 421 
C 1894 159 1645 25 1370 25 
C 947 25 518 320 403 814 
C 429 807 480 795 506 795 
C 589 795 749 840 749 1038 
C 749 1210 627 1280 506 1280 
C 358 1280 262 1190 262 1011 
C 262 454 704 -128 1382 -128 
C 2042 -128 2669 440 2669 1264 
C 2669 2030 2170 2624 1549 2624 
C 1222 2624 947 2503 730 2274 
L 730 3692 
z
" transform="scale(0.015625)"/>
     </defs>
     <use xlink:href="#CMR17-6d" transform="scale(0.996264)"/>
     <use xlink:href="#CMR17-61" transform="translate(76.91959 0) scale(0.996264)"/>
     <use xlink:href="#CMR17-73" transform="translate(122.610067 0) scale(0.996264)"/>
     <use xlink:href="#CMR17-73" transform="translate(158.411405 0) scale(0.996264)"/>
     <use xlink:href="#CMR17-3d" transform="translate(224.288709 0) scale(0.996264)"/>
     <use xlink:href="#CMR17-30" transform="translate(326.079463 0) scale(0.996264)"/>
     <use xlink:href="#CMR17-2e" transform="translate(371.76994 0) scale(0.996264)"/>
     <use xlink:href="#CMR17-35" transform="translate(396.640999 0) scale(0.996264)"/>
    </g>
   </g>
   <g id="line2d_66">
    <path d="M 145.134556 196.185643 
L 155.134556 196.185643 
L 165.134556 196.185643 
" style="fill: none; stroke: #ec620f; stroke-width: 0.6; stroke-linecap: square"/>
   </g>
   <g id="text_19">
    <!-- mass = 0.8 -->
    <g transform="translate(168.134556 199.685643) scale(0.1 -0.1)">
     <use xlink:href="#CMR17-6d" transform="scale(0.996264)"/>
     <use xlink:href="#CMR17-61" transform="translate(76.91959 0) scale(0.996264)"/>
     <use xlink:href="#CMR17-73" transform="translate(122.610067 0) scale(0.996264)"/>
     <use xlink:href="#CMR17-73" transform="translate(158.411405 0) scale(0.996264)"/>
     <use xlink:href="#CMR17-3d" transform="translate(224.288709 0) scale(0.996264)"/>
     <use xlink:href="#CMR17-30" transform="translate(326.079463 0) scale(0.996264)"/>
     <use xlink:href="#CMR17-2e" transform="translate(371.76994 0) scale(0.996264)"/>
     <use xlink:href="#CMR17-38" transform="translate(396.640999 0) scale(0.996264)"/>
    </g>
   </g>
   <g id="line2d_67">
    <path d="M 145.134556 210.122822 
L 155.134556 210.122822 
L 165.134556 210.122822 
" style="fill: none; stroke: #e15307; stroke-width: 0.6; stroke-linecap: square"/>
   </g>
   <g id="text_20">
    <!-- mass = 0.92 -->
    <g transform="translate(168.134556 213.622822) scale(0.1 -0.1)">
     <defs>
      <path id="CMR17-39" d="M 2253 1864 
C 2253 464 1670 31 1190 31 
C 1043 31 685 31 538 294 
C 704 268 826 357 826 518 
C 826 692 685 749 595 749 
C 538 749 365 723 365 506 
C 365 71 742 -128 1203 -128 
C 1939 -128 2688 674 2688 2073 
C 2688 3817 1971 4179 1485 4179 
C 851 4179 243 3628 243 2778 
C 243 1991 762 1408 1414 1408 
C 1952 1408 2189 1903 2253 2112 
L 2253 1864 
z
M 1427 1510 
C 1254 1510 1011 1542 813 1922 
C 678 2169 678 2461 678 2771 
C 678 3146 678 3405 858 3684 
C 947 3817 1114 4032 1485 4032 
C 2240 4032 2240 2885 2240 2632 
C 2240 2182 2035 1510 1427 1510 
z
" transform="scale(0.015625)"/>
     </defs>
     <use xlink:href="#CMR17-6d" transform="scale(0.996264)"/>
     <use xlink:href="#CMR17-61" transform="translate(76.91959 0) scale(0.996264)"/>
     <use xlink:href="#CMR17-73" transform="translate(122.610067 0) scale(0.996264)"/>
     <use xlink:href="#CMR17-73" transform="translate(158.411405 0) scale(0.996264)"/>
     <use xlink:href="#CMR17-3d" transform="translate(224.288709 0) scale(0.996264)"/>
     <use xlink:href="#CMR17-30" transform="translate(326.079463 0) scale(0.996264)"/>
     <use xlink:href="#CMR17-2e" transform="translate(371.76994 0) scale(0.996264)"/>
     <use xlink:href="#CMR17-39" transform="translate(396.640999 0) scale(0.996264)"/>
     <use xlink:href="#CMR17-32" transform="translate(442.331476 0) scale(0.996264)"/>
    </g>
   </g>
  </g>
 </g>
 <defs>
  <clipPath id="p8066932493">
   <rect x="35.910789" y="14.918738" width="206.128971" height="126.888782"/>
  </clipPath>
 </defs>
</svg>
