<?xml version="1.0" encoding="utf-8" standalone="no"?>
<!DOCTYPE svg PUBLIC "-//W3C//DTD SVG 1.1//EN"
  "http://www.w3.org/Graphics/SVG/1.1/DTD/svg11.dtd">
<svg xmlns:xlink="http://www.w3.org/1999/xlink" width="245.04pt" height="171.48pt" viewBox="0 0 245.04 171.48" xmlns="http://www.w3.org/2000/svg" version="1.1">
 <metadata>
  <rdf:RDF xmlns:dc="http://purl.org/dc/elements/1.1/" xmlns:cc="http://creativecommons.org/ns#" xmlns:rdf="http://www.w3.org/1999/02/22-rdf-syntax-ns#">
   <cc:Work>
    <dc:type rdf:resource="http://purl.org/dc/dcmitype/StillImage"/>
    <dc:date>2025-10-07T22:25:39.230528</dc:date>
    <dc:format>image/svg+xml</dc:format>
    <dc:creator>
     <cc:Agent>
      <dc:title>Matplotlib v3.10.5, https://matplotlib.org/</dc:title>
     </cc:Agent>
    </dc:creator>
   </cc:Work>
  </rdf:RDF>
 </metadata>
 <defs>
  <style type="text/css">*{stroke-linejoin: round; stroke-linecap: butt}</style>
 </defs>
 <g id="figure_1">
  <g id="patch_1">
   <path d="M 0 171.48 
L 245.04 171.48 
L 245.04 0 
L 0 0 
z
" style="fill: #ffffff"/>
  </g>
  <g id="axes_1">
   <g id="patch_2">
    <path d="M 39.840298 142.432572 
L 242.03976 142.432572 
L 242.03976 14.918738 
L 39.840298 14.918738 
z
" style="fill: #ffffff"/>
   </g>
   <g id="matplotlib.axis_1">
    <g id="xtick_1">
     <g id="line2d_1">
      <path d="M 49.031182 142.432572 
L 49.031182 14.918738 
" clip-path="url(#p8599c70313)" style="fill: none; stroke: #000000; stroke-opacity: 0.03; stroke-width: 0.8; stroke-linecap: square"/>
     </g>
     <g id="line2d_2">
      <defs>
       <path id="m5b74311040" d="M 0 0 
L 0 3.5 
" style="stroke: #000000; stroke-width: 0.6"/>
      </defs>
      <g>
       <use xlink:href="#m5b74311040" x="49.031182" y="142.432572" style="stroke: #000000; stroke-width: 0.6"/>
      </g>
     </g>
     <g id="text_1">
      <!-- $\mathdefault{10^{2}}$ -->
      <g transform="translate(42.970543 154.967374) scale(0.08 -0.08)">
       <defs>
        <path id="CMR17-31" d="M 1702 4058 
C 1702 4192 1696 4192 1606 4192 
C 1357 3916 979 3827 621 3827 
C 602 3827 570 3827 563 3808 
C 557 3795 557 3782 557 3648 
C 755 3648 1088 3686 1344 3839 
L 1344 461 
C 1344 236 1331 160 781 160 
L 589 160 
L 589 0 
C 896 0 1216 0 1523 0 
C 1830 0 2150 0 2458 0 
L 2458 160 
L 2266 160 
C 1715 160 1702 230 1702 458 
L 1702 4058 
z
" transform="scale(0.015625)"/>
        <path id="CMR17-30" d="M 2688 2025 
C 2688 2416 2682 3080 2413 3591 
C 2176 4039 1798 4198 1466 4198 
C 1158 4198 768 4058 525 3597 
C 269 3118 243 2524 243 2025 
C 243 1661 250 1106 448 619 
C 723 -39 1216 -128 1466 -128 
C 1760 -128 2208 -7 2470 600 
C 2662 1042 2688 1559 2688 2025 
z
M 1466 -26 
C 1056 -26 813 325 723 812 
C 653 1188 653 1738 653 2096 
C 653 2588 653 2997 736 3387 
C 858 3929 1216 4096 1466 4096 
C 1728 4096 2067 3923 2189 3400 
C 2272 3036 2278 2607 2278 2096 
C 2278 1680 2278 1169 2202 792 
C 2067 95 1690 -26 1466 -26 
z
" transform="scale(0.015625)"/>
        <path id="CMR17-32" d="M 2669 989 
L 2554 989 
C 2490 536 2438 459 2413 420 
C 2381 369 1920 369 1830 369 
L 602 369 
C 832 619 1280 1072 1824 1597 
C 2214 1967 2669 2402 2669 3035 
C 2669 3790 2067 4224 1395 4224 
C 691 4224 262 3604 262 3030 
C 262 2780 448 2748 525 2748 
C 589 2748 781 2787 781 3010 
C 781 3207 614 3264 525 3264 
C 486 3264 448 3258 422 3245 
C 544 3790 915 4058 1306 4058 
C 1862 4058 2227 3617 2227 3035 
C 2227 2479 1901 2000 1536 1584 
L 262 146 
L 262 0 
L 2515 0 
L 2669 989 
z
" transform="scale(0.015625)"/>
       </defs>
       <use xlink:href="#CMR17-31" transform="scale(0.996264)"/>
       <use xlink:href="#CMR17-30" transform="translate(45.690477 0) scale(0.996264)"/>
       <use xlink:href="#CMR17-32" transform="translate(91.380954 36.153639) scale(0.697382)"/>
      </g>
     </g>
    </g>
    <g id="xtick_2">
     <g id="line2d_3">
      <path d="M 140.940029 142.432572 
L 140.940029 14.918738 
" clip-path="url(#p8599c70313)" style="fill: none; stroke: #000000; stroke-opacity: 0.03; stroke-width: 0.8; stroke-linecap: square"/>
     </g>
     <g id="line2d_4">
      <g>
       <use xlink:href="#m5b74311040" x="140.940029" y="142.432572" style="stroke: #000000; stroke-width: 0.6"/>
      </g>
     </g>
     <g id="text_2">
      <!-- $\mathdefault{10^{3}}$ -->
      <g transform="translate(134.87939 154.967374) scale(0.08 -0.08)">
       <defs>
        <path id="CMR17-33" d="M 1414 2157 
C 1984 2157 2234 1662 2234 1090 
C 2234 320 1824 25 1453 25 
C 1114 25 563 194 390 693 
C 422 680 454 680 486 680 
C 640 680 755 782 755 948 
C 755 1133 614 1216 486 1216 
C 378 1216 211 1165 211 926 
C 211 335 787 -128 1466 -128 
C 2176 -128 2720 430 2720 1085 
C 2720 1707 2208 2157 1600 2227 
C 2086 2328 2554 2756 2554 3329 
C 2554 3820 2048 4179 1472 4179 
C 890 4179 378 3829 378 3329 
C 378 3110 544 3072 627 3072 
C 762 3072 877 3155 877 3321 
C 877 3486 762 3569 627 3569 
C 602 3569 570 3569 544 3557 
C 730 3959 1235 4032 1459 4032 
C 1683 4032 2106 3925 2106 3320 
C 2106 3143 2080 2828 1862 2550 
C 1670 2304 1453 2304 1242 2284 
C 1210 2284 1062 2269 1037 2269 
C 992 2263 966 2257 966 2208 
C 966 2163 973 2157 1101 2157 
L 1414 2157 
z
" transform="scale(0.015625)"/>
       </defs>
       <use xlink:href="#CMR17-31" transform="scale(0.996264)"/>
       <use xlink:href="#CMR17-30" transform="translate(45.690477 0) scale(0.996264)"/>
       <use xlink:href="#CMR17-33" transform="translate(91.380954 36.153639) scale(0.697382)"/>
      </g>
     </g>
    </g>
    <g id="xtick_3">
     <g id="line2d_5">
      <path d="M 232.848875 142.432572 
L 232.848875 14.918738 
" clip-path="url(#p8599c70313)" style="fill: none; stroke: #000000; stroke-opacity: 0.03; stroke-width: 0.8; stroke-linecap: square"/>
     </g>
     <g id="line2d_6">
      <g>
       <use xlink:href="#m5b74311040" x="232.848875" y="142.432572" style="stroke: #000000; stroke-width: 0.6"/>
      </g>
     </g>
     <g id="text_3">
      <!-- $\mathdefault{10^{4}}$ -->
      <g transform="translate(226.788236 154.967374) scale(0.08 -0.08)">
       <defs>
        <path id="CMR17-34" d="M 2150 4122 
C 2150 4256 2144 4256 2029 4256 
L 128 1254 
L 128 1088 
L 1779 1088 
L 1779 457 
C 1779 224 1766 160 1318 160 
L 1197 160 
L 1197 0 
C 1402 0 1747 0 1965 0 
C 2182 0 2528 0 2733 0 
L 2733 160 
L 2611 160 
C 2163 160 2150 224 2150 457 
L 2150 1088 
L 2803 1088 
L 2803 1254 
L 2150 1254 
L 2150 4122 
z
M 1798 3703 
L 1798 1254 
L 256 1254 
L 1798 3703 
z
" transform="scale(0.015625)"/>
       </defs>
       <use xlink:href="#CMR17-31" transform="scale(0.996264)"/>
       <use xlink:href="#CMR17-30" transform="translate(45.690477 0) scale(0.996264)"/>
       <use xlink:href="#CMR17-34" transform="translate(91.380954 36.153639) scale(0.697382)"/>
      </g>
     </g>
    </g>
    <g id="xtick_4">
     <g id="line2d_7">
      <defs>
       <path id="m9aed9aa5cc" d="M 0 0 
L 0 2 
" style="stroke: #000000; stroke-width: 0.3"/>
      </defs>
      <g>
       <use xlink:href="#m9aed9aa5cc" x="40.124295" y="142.432572" style="stroke: #000000; stroke-width: 0.3"/>
      </g>
     </g>
    </g>
    <g id="xtick_5">
     <g id="line2d_8">
      <g>
       <use xlink:href="#m9aed9aa5cc" x="44.825664" y="142.432572" style="stroke: #000000; stroke-width: 0.3"/>
      </g>
     </g>
    </g>
    <g id="xtick_6">
     <g id="line2d_9">
      <g>
       <use xlink:href="#m9aed9aa5cc" x="76.698502" y="142.432572" style="stroke: #000000; stroke-width: 0.3"/>
      </g>
     </g>
    </g>
    <g id="xtick_7">
     <g id="line2d_10">
      <g>
       <use xlink:href="#m9aed9aa5cc" x="92.882847" y="142.432572" style="stroke: #000000; stroke-width: 0.3"/>
      </g>
     </g>
    </g>
    <g id="xtick_8">
     <g id="line2d_11">
      <g>
       <use xlink:href="#m9aed9aa5cc" x="104.365822" y="142.432572" style="stroke: #000000; stroke-width: 0.3"/>
      </g>
     </g>
    </g>
    <g id="xtick_9">
     <g id="line2d_12">
      <g>
       <use xlink:href="#m9aed9aa5cc" x="113.272709" y="142.432572" style="stroke: #000000; stroke-width: 0.3"/>
      </g>
     </g>
    </g>
    <g id="xtick_10">
     <g id="line2d_13">
      <g>
       <use xlink:href="#m9aed9aa5cc" x="120.550166" y="142.432572" style="stroke: #000000; stroke-width: 0.3"/>
      </g>
     </g>
    </g>
    <g id="xtick_11">
     <g id="line2d_14">
      <g>
       <use xlink:href="#m9aed9aa5cc" x="126.703168" y="142.432572" style="stroke: #000000; stroke-width: 0.3"/>
      </g>
     </g>
    </g>
    <g id="xtick_12">
     <g id="line2d_15">
      <g>
       <use xlink:href="#m9aed9aa5cc" x="132.033141" y="142.432572" style="stroke: #000000; stroke-width: 0.3"/>
      </g>
     </g>
    </g>
    <g id="xtick_13">
     <g id="line2d_16">
      <g>
       <use xlink:href="#m9aed9aa5cc" x="136.734511" y="142.432572" style="stroke: #000000; stroke-width: 0.3"/>
      </g>
     </g>
    </g>
    <g id="xtick_14">
     <g id="line2d_17">
      <g>
       <use xlink:href="#m9aed9aa5cc" x="168.607349" y="142.432572" style="stroke: #000000; stroke-width: 0.3"/>
      </g>
     </g>
    </g>
    <g id="xtick_15">
     <g id="line2d_18">
      <g>
       <use xlink:href="#m9aed9aa5cc" x="184.791693" y="142.432572" style="stroke: #000000; stroke-width: 0.3"/>
      </g>
     </g>
    </g>
    <g id="xtick_16">
     <g id="line2d_19">
      <g>
       <use xlink:href="#m9aed9aa5cc" x="196.274668" y="142.432572" style="stroke: #000000; stroke-width: 0.3"/>
      </g>
     </g>
    </g>
    <g id="xtick_17">
     <g id="line2d_20">
      <g>
       <use xlink:href="#m9aed9aa5cc" x="205.181556" y="142.432572" style="stroke: #000000; stroke-width: 0.3"/>
      </g>
     </g>
    </g>
    <g id="xtick_18">
     <g id="line2d_21">
      <g>
       <use xlink:href="#m9aed9aa5cc" x="212.459013" y="142.432572" style="stroke: #000000; stroke-width: 0.3"/>
      </g>
     </g>
    </g>
    <g id="xtick_19">
     <g id="line2d_22">
      <g>
       <use xlink:href="#m9aed9aa5cc" x="218.612015" y="142.432572" style="stroke: #000000; stroke-width: 0.3"/>
      </g>
     </g>
    </g>
    <g id="xtick_20">
     <g id="line2d_23">
      <g>
       <use xlink:href="#m9aed9aa5cc" x="223.941988" y="142.432572" style="stroke: #000000; stroke-width: 0.3"/>
      </g>
     </g>
    </g>
    <g id="xtick_21">
     <g id="line2d_24">
      <g>
       <use xlink:href="#m9aed9aa5cc" x="228.643357" y="142.432572" style="stroke: #000000; stroke-width: 0.3"/>
      </g>
     </g>
    </g>
    <g id="text_4">
     <!-- Number of datapoints ($n$) -->
     <g transform="translate(84.497612 165.9891) scale(0.1 -0.1)">
      <defs>
       <path id="CMR17-4e" d="M 1312 4250 
C 1267 4320 1261 4320 1139 4320 
L 326 4320 
L 326 4160 
L 448 4160 
C 704 4160 819 4129 838 4122 
L 838 610 
C 838 451 838 153 326 153 
L 326 -13 
C 474 0 742 0 902 0 
C 1062 0 1331 0 1478 -13 
L 1478 153 
C 966 153 966 451 966 610 
L 966 4033 
C 1011 3995 1011 3982 1056 3919 
L 3430 76 
C 3475 0 3494 0 3526 0 
C 3590 0 3590 19 3590 139 
L 3590 3705 
C 3590 3863 3590 4160 4102 4160 
L 4102 4326 
C 3955 4320 3686 4320 3526 4320 
C 3366 4320 3098 4320 2950 4326 
L 2950 4160 
C 3462 4160 3462 3862 3462 3703 
L 3462 763 
L 1312 4250 
z
" transform="scale(0.015625)"/>
       <path id="CMR17-75" d="M 1882 2693 
L 1882 2528 
C 2259 2528 2317 2489 2317 2186 
L 2317 1032 
C 2317 500 2029 38 1555 38 
C 1030 38 986 348 986 678 
L 986 2763 
L 211 2693 
L 211 2528 
C 467 2528 640 2528 646 2274 
L 646 1058 
C 646 633 646 361 813 183 
C 896 101 1056 -64 1517 -64 
C 2061 -64 2272 377 2323 506 
L 2330 506 
L 2330 -63 
L 3091 -63 
L 3091 128 
C 2714 128 2656 166 2656 473 
L 2656 2763 
L 1882 2693 
z
" transform="scale(0.015625)"/>
       <path id="CMR17-6d" d="M 4326 1933 
C 4326 2252 4269 2790 3507 2790 
C 3072 2790 2771 2496 2656 2151 
L 2650 2151 
C 2573 2676 2195 2790 1837 2790 
C 1331 2790 1069 2400 973 2144 
L 966 2144 
L 966 2790 
L 211 2720 
L 211 2554 
C 589 2554 646 2515 646 2208 
L 646 428 
C 646 184 621 153 211 153 
L 211 -13 
C 365 0 646 0 813 0 
C 979 0 1267 0 1421 -13 
L 1421 153 
C 1011 153 986 178 986 428 
L 986 1658 
C 986 2247 1344 2688 1792 2688 
C 2266 2688 2317 2266 2317 1958 
L 2317 428 
C 2317 184 2291 153 1882 153 
L 1882 -13 
C 2035 0 2317 0 2483 0 
C 2650 0 2938 0 3091 -13 
L 3091 153 
C 2682 153 2656 178 2656 428 
L 2656 1658 
C 2656 2247 3014 2688 3462 2688 
C 3936 2688 3987 2266 3987 1958 
L 3987 428 
C 3987 184 3962 153 3552 153 
L 3552 -13 
C 3706 0 3987 0 4154 0 
C 4320 0 4608 0 4762 -13 
L 4762 153 
C 4352 153 4326 178 4326 428 
L 4326 1933 
z
" transform="scale(0.015625)"/>
       <path id="CMR17-62" d="M 960 4396 
L 198 4326 
L 198 4160 
C 576 4160 634 4122 634 3817 
L 634 -13 
L 749 -13 
L 934 441 
C 1120 141 1395 -64 1766 -64 
C 2406 -64 3053 500 3053 1370 
C 3053 2188 2477 2790 1830 2790 
C 1434 2790 1152 2579 960 2330 
L 960 4396 
z
M 973 2004 
C 973 2118 973 2138 1062 2272 
C 1312 2657 1670 2688 1792 2688 
C 1984 2688 2643 2585 2643 1376 
C 2643 108 1888 38 1734 38 
C 1536 38 1248 114 1043 486 
C 973 608 973 621 973 735 
L 973 2004 
z
" transform="scale(0.015625)"/>
       <path id="CMR17-65" d="M 2438 1472 
C 2464 1498 2464 1511 2464 1576 
C 2464 2238 2118 2816 1389 2816 
C 710 2816 173 2169 173 1383 
C 173 551 781 -64 1459 -64 
C 2176 -64 2458 607 2458 740 
C 2458 784 2419 784 2406 784 
C 2362 784 2355 771 2330 696 
C 2189 265 1837 51 1504 51 
C 1229 51 954 203 781 480 
C 582 803 582 1176 582 1472 
L 2438 1472 
z
M 589 1568 
C 634 2505 1126 2714 1382 2714 
C 1818 2714 2112 2297 2118 1568 
L 589 1568 
z
" transform="scale(0.015625)"/>
       <path id="CMR17-72" d="M 960 1497 
C 960 2112 1222 2688 1702 2688 
C 1747 2688 1792 2682 1837 2662 
C 1837 2662 1696 2617 1696 2452 
C 1696 2298 1818 2234 1914 2234 
C 1990 2234 2131 2279 2131 2458 
C 2131 2663 1926 2790 1709 2790 
C 1222 2790 1011 2317 947 2093 
L 941 2093 
L 941 2790 
L 198 2720 
L 198 2554 
C 576 2554 634 2515 634 2208 
L 634 428 
C 634 184 608 153 198 153 
L 198 -13 
C 352 0 646 0 813 0 
C 998 0 1325 0 1498 -13 
L 1498 153 
C 1037 153 960 153 960 440 
L 960 1497 
z
" transform="scale(0.015625)"/>
       <path id="CMR17-6f" d="M 2758 1356 
C 2758 2176 2163 2816 1466 2816 
C 768 2816 173 2176 173 1356 
C 173 551 768 -64 1466 -64 
C 2163 -64 2758 551 2758 1356 
z
M 1466 51 
C 1165 51 909 230 762 480 
C 602 767 582 1126 582 1408 
C 582 1677 595 2010 762 2298 
C 890 2509 1139 2714 1466 2714 
C 1754 2714 1997 2554 2150 2330 
C 2349 2029 2349 1607 2349 1408 
C 2349 1158 2336 775 2163 467 
C 1984 173 1709 51 1466 51 
z
" transform="scale(0.015625)"/>
       <path id="CMR17-66" d="M 979 2560 
L 1709 2560 
L 1709 2725 
L 966 2725 
L 966 3494 
C 966 4022 1235 4352 1510 4352 
C 1594 4352 1690 4327 1754 4282 
C 1702 4269 1568 4225 1568 4067 
C 1568 3901 1696 3850 1786 3850 
C 1875 3850 2003 3901 2003 4067 
C 2003 4308 1773 4454 1517 4454 
C 1152 4454 653 4156 653 3481 
L 653 2725 
L 141 2725 
L 141 2560 
L 653 2560 
L 653 427 
C 653 184 627 153 218 153 
L 218 -13 
C 371 0 666 0 832 0 
C 1018 0 1344 0 1517 -13 
L 1517 153 
C 1056 153 979 153 979 439 
L 979 2560 
z
" transform="scale(0.015625)"/>
       <path id="CMR17-64" d="M 1869 4326 
L 1869 4160 
C 2246 4160 2304 4122 2304 3820 
L 2304 2345 
C 2278 2377 2016 2790 1498 2790 
C 845 2790 211 2208 211 1364 
C 211 525 806 -64 1434 -64 
C 1978 -64 2259 337 2291 380 
L 2291 -63 
L 3066 -63 
L 3066 128 
C 2688 128 2630 166 2630 473 
L 2630 4396 
L 1869 4326 
z
M 2291 755 
C 2291 563 2176 390 2029 262 
C 1811 70 1594 38 1472 38 
C 1286 38 621 134 621 1356 
C 621 2612 1363 2688 1530 2688 
C 1824 2688 2061 2522 2208 2291 
C 2291 2157 2291 2138 2291 2023 
L 2291 755 
z
" transform="scale(0.015625)"/>
       <path id="CMR17-61" d="M 2304 1653 
C 2304 2072 2304 2294 2035 2543 
C 1798 2752 1523 2816 1306 2816 
C 800 2816 435 2407 435 1971 
C 435 1728 627 1728 666 1728 
C 749 1728 896 1778 896 1954 
C 896 2112 774 2181 666 2181 
C 640 2181 608 2174 589 2168 
C 723 2592 1069 2714 1293 2714 
C 1613 2714 1965 2429 1965 1885 
L 1965 1600 
C 1587 1600 1133 1549 774 1357 
C 371 1133 256 813 256 570 
C 256 77 832 -64 1171 -64 
C 1523 -64 1850 139 1990 511 
C 2003 233 2182 -18 2464 -18 
C 2598 -18 2938 70 2938 567 
L 2938 920 
L 2822 920 
L 2822 562 
C 2822 178 2650 128 2566 128 
C 2304 128 2304 458 2304 738 
L 2304 1653 
z
M 1965 870 
C 1965 317 1568 38 1216 38 
C 896 38 646 275 646 570 
C 646 761 730 1100 1101 1305 
C 1408 1478 1760 1504 1965 1504 
L 1965 870 
z
" transform="scale(0.015625)"/>
       <path id="CMR17-74" d="M 966 2560 
L 1862 2560 
L 1862 2725 
L 966 2725 
L 966 3904 
L 851 3904 
C 838 3245 614 2668 70 2668 
L 70 2560 
L 627 2560 
L 627 771 
C 627 650 627 -64 1370 -64 
C 1747 -64 1965 306 1965 777 
L 1965 1140 
L 1850 1140 
L 1850 783 
C 1850 344 1677 51 1408 51 
C 1222 51 966 178 966 758 
L 966 2560 
z
" transform="scale(0.015625)"/>
       <path id="CMR17-70" d="M 1408 -1063 
C 998 -1063 973 -1037 973 -789 
L 973 402 
C 1158 134 1427 -38 1766 -38 
C 2406 -38 3053 523 3053 1388 
C 3053 2191 2496 2802 1837 2802 
C 1453 2802 1139 2592 960 2338 
L 960 2802 
L 198 2732 
L 198 2567 
C 576 2567 634 2528 634 2223 
L 634 -789 
C 634 -1031 608 -1063 198 -1063 
L 198 -1228 
C 352 -1216 634 -1216 800 -1216 
C 966 -1216 1254 -1216 1408 -1228 
L 1408 -1063 
z
M 973 2012 
C 973 2102 973 2235 1222 2471 
C 1254 2497 1472 2688 1792 2688 
C 2259 2688 2643 2108 2643 1382 
C 2643 656 2234 64 1728 64 
C 1498 64 1248 172 1056 472 
C 973 612 973 650 973 752 
L 973 2012 
z
" transform="scale(0.015625)"/>
       <path id="CMR17-69" d="M 992 3909 
C 992 4049 877 4170 730 4170 
C 589 4170 467 4056 467 3909 
C 467 3769 582 3648 730 3648 
C 870 3648 992 3763 992 3909 
z
M 243 2706 
L 243 2541 
C 602 2541 653 2502 653 2197 
L 653 427 
C 653 184 627 153 218 153 
L 218 -13 
C 371 0 646 0 806 0 
C 960 0 1222 0 1370 -13 
L 1370 153 
C 992 153 979 191 979 420 
L 979 2776 
L 243 2706 
z
" transform="scale(0.015625)"/>
       <path id="CMR17-6e" d="M 2656 1933 
C 2656 2259 2592 2790 1837 2790 
C 1331 2790 1069 2400 973 2144 
L 966 2144 
L 966 2790 
L 211 2720 
L 211 2554 
C 589 2554 646 2515 646 2208 
L 646 428 
C 646 184 621 153 211 153 
L 211 -13 
C 365 0 646 0 813 0 
C 979 0 1267 0 1421 -13 
L 1421 153 
C 1011 153 986 178 986 428 
L 986 1658 
C 986 2247 1344 2688 1792 2688 
C 2266 2688 2317 2266 2317 1958 
L 2317 428 
C 2317 184 2291 153 1882 153 
L 1882 -13 
C 2035 0 2317 0 2483 0 
C 2650 0 2938 0 3091 -13 
L 3091 153 
C 2682 153 2656 178 2656 428 
L 2656 1933 
z
" transform="scale(0.015625)"/>
       <path id="CMR17-73" d="M 1978 2697 
C 1978 2813 1971 2819 1933 2819 
C 1907 2819 1901 2813 1824 2717 
C 1805 2691 1747 2626 1728 2601 
C 1523 2819 1235 2819 1126 2819 
C 416 2819 160 2447 160 2076 
C 160 1498 813 1365 998 1325 
C 1402 1243 1542 1217 1677 1101 
C 1760 1025 1901 884 1901 654 
C 1901 384 1747 38 1158 38 
C 602 38 403 460 288 1021 
C 269 1110 269 1117 218 1117 
C 166 1117 160 1110 160 983 
L 160 63 
C 160 -51 166 -58 205 -58 
C 237 -58 243 -51 275 0 
C 314 57 410 211 448 276 
C 576 103 800 -64 1158 -64 
C 1792 -64 2131 283 2131 784 
C 2131 1112 1958 1285 1875 1362 
C 1683 1561 1459 1606 1190 1657 
C 838 1735 390 1825 390 2217 
C 390 2383 480 2737 1126 2737 
C 1811 2737 1850 2094 1862 1888 
C 1869 1856 1901 1849 1920 1849 
C 1978 1849 1978 1869 1978 1978 
L 1978 2697 
z
" transform="scale(0.015625)"/>
       <path id="CMR17-28" d="M 1958 -1561 
C 1958 -1555 1958 -1542 1939 -1523 
C 1645 -1224 858 -407 858 1581 
C 858 3569 1632 4379 1946 4697 
C 1946 4704 1958 4717 1958 4736 
C 1958 4755 1939 4768 1914 4768 
C 1843 4768 1299 4296 986 3594 
C 666 2887 576 2199 576 1588 
C 576 1128 621 351 1005 -471 
C 1312 -1135 1837 -1600 1914 -1600 
C 1946 -1600 1958 -1587 1958 -1561 
z
" transform="scale(0.015625)"/>
       <path id="CMMI12-6e" d="M 1318 1871 
C 1331 1910 1491 2229 1728 2433 
C 1894 2586 2112 2689 2362 2689 
C 2618 2689 2707 2497 2707 2242 
C 2707 1878 2445 1150 2317 805 
C 2259 651 2227 568 2227 453 
C 2227 166 2426 -64 2733 -64 
C 3328 -64 3552 875 3552 913 
C 3552 945 3526 971 3488 971 
C 3430 971 3424 952 3392 843 
C 3245 319 3002 64 2752 64 
C 2688 64 2586 64 2586 269 
C 2586 429 2656 621 2694 710 
C 2822 1063 3091 1780 3091 2145 
C 3091 2528 2867 2816 2381 2816 
C 1811 2816 1510 2415 1395 2255 
C 1376 2618 1114 2816 832 2816 
C 627 2816 486 2695 378 2478 
C 262 2248 173 1865 173 1839 
C 173 1814 198 1782 243 1782 
C 294 1782 301 1788 339 1935 
C 442 2325 557 2689 813 2689 
C 960 2689 1011 2586 1011 2395 
C 1011 2254 947 2005 902 1807 
L 723 1118 
C 698 996 627 709 595 594 
C 550 428 480 128 480 96 
C 480 6 550 -64 646 -64 
C 723 -64 813 -26 864 70 
C 877 102 934 326 966 453 
L 1107 1028 
L 1318 1871 
z
" transform="scale(0.015625)"/>
       <path id="CMR17-29" d="M 1683 1581 
C 1683 2040 1638 2817 1254 3639 
C 947 4303 422 4768 346 4768 
C 326 4768 301 4761 301 4729 
C 301 4717 307 4710 314 4697 
C 621 4378 1402 3568 1402 1584 
C 1402 -407 627 -1217 314 -1537 
C 307 -1549 301 -1556 301 -1568 
C 301 -1600 326 -1600 346 -1600 
C 416 -1600 960 -1128 1274 -426 
C 1594 281 1683 969 1683 1581 
z
" transform="scale(0.015625)"/>
      </defs>
      <use xlink:href="#CMR17-4e" transform="scale(0.996264)"/>
      <use xlink:href="#CMR17-75" transform="translate(69.07243 0) scale(0.996264)"/>
      <use xlink:href="#CMR17-6d" transform="translate(119.9678 0) scale(0.996264)"/>
      <use xlink:href="#CMR17-62" transform="translate(194.284936 0) scale(0.996264)"/>
      <use xlink:href="#CMR17-65" transform="translate(247.782744 0) scale(0.996264)"/>
      <use xlink:href="#CMR17-72" transform="translate(288.268404 0) scale(0.996264)"/>
      <use xlink:href="#CMR17-6f" transform="translate(353.625139 0) scale(0.996264)"/>
      <use xlink:href="#CMR17-66" transform="translate(399.315616 0) scale(0.996264)"/>
      <use xlink:href="#CMR17-64" transform="translate(456.865095 0) scale(0.996264)"/>
      <use xlink:href="#CMR17-61" transform="translate(507.760464 0) scale(0.996264)"/>
      <use xlink:href="#CMR17-74" transform="translate(553.450941 0) scale(0.996264)"/>
      <use xlink:href="#CMR17-61" transform="translate(588.731709 0) scale(0.996264)"/>
      <use xlink:href="#CMR17-70" transform="translate(634.422186 0) scale(0.996264)"/>
      <use xlink:href="#CMR17-6f" transform="translate(687.919995 0) scale(0.996264)"/>
      <use xlink:href="#CMR17-69" transform="translate(733.610472 0) scale(0.996264)"/>
      <use xlink:href="#CMR17-6e" transform="translate(758.48153 0) scale(0.996264)"/>
      <use xlink:href="#CMR17-74" transform="translate(806.774446 0) scale(0.996264)"/>
      <use xlink:href="#CMR17-73" transform="translate(842.055214 0) scale(0.996264)"/>
      <use xlink:href="#CMR17-28" transform="translate(907.932518 0) scale(0.996264)"/>
      <use xlink:href="#CMMI12-6e" transform="translate(943.213286 0) scale(0.996264)"/>
      <use xlink:href="#CMR17-29" transform="translate(1001.443333 0) scale(0.996264)"/>
     </g>
    </g>
   </g>
   <g id="matplotlib.axis_2">
    <g id="ytick_1">
     <g id="line2d_25">
      <path d="M 39.840298 141.146697 
L 242.03976 141.146697 
" clip-path="url(#p8599c70313)" style="fill: none; stroke: #000000; stroke-opacity: 0.03; stroke-width: 0.8; stroke-linecap: square"/>
     </g>
     <g id="line2d_26">
      <defs>
       <path id="m7dc8a30b0d" d="M 0 0 
L -3.5 0 
" style="stroke: #000000; stroke-width: 0.6"/>
      </defs>
      <g>
       <use xlink:href="#m7dc8a30b0d" x="39.840298" y="141.146697" style="stroke: #000000; stroke-width: 0.6"/>
      </g>
     </g>
     <g id="text_5">
      <!-- $\mathdefault{10^{-5}}$ -->
      <g transform="translate(14.96288 143.914098) scale(0.08 -0.08)">
       <defs>
        <path id="CMSY10-0" d="M 4218 1472 
C 4326 1472 4442 1472 4442 1600 
C 4442 1728 4326 1728 4218 1728 
L 755 1728 
C 646 1728 531 1728 531 1600 
C 531 1472 646 1472 755 1472 
L 4218 1472 
z
" transform="scale(0.015625)"/>
        <path id="CMR17-35" d="M 730 3692 
C 794 3666 1056 3584 1325 3584 
C 1920 3584 2246 3911 2432 4100 
C 2432 4157 2432 4192 2394 4192 
C 2387 4192 2374 4192 2323 4163 
C 2099 4058 1837 3973 1517 3973 
C 1325 3973 1037 3999 723 4139 
C 653 4171 640 4171 634 4171 
C 602 4171 595 4164 595 4037 
L 595 2203 
C 595 2089 595 2057 659 2057 
C 691 2057 704 2070 736 2114 
C 941 2401 1222 2522 1542 2522 
C 1766 2522 2246 2382 2246 1289 
C 2246 1085 2246 715 2054 421 
C 1894 159 1645 25 1370 25 
C 947 25 518 320 403 814 
C 429 807 480 795 506 795 
C 589 795 749 840 749 1038 
C 749 1210 627 1280 506 1280 
C 358 1280 262 1190 262 1011 
C 262 454 704 -128 1382 -128 
C 2042 -128 2669 440 2669 1264 
C 2669 2030 2170 2624 1549 2624 
C 1222 2624 947 2503 730 2274 
L 730 3692 
z
" transform="scale(0.015625)"/>
       </defs>
       <use xlink:href="#CMR17-31" transform="scale(0.996264)"/>
       <use xlink:href="#CMR17-30" transform="translate(45.690477 0) scale(0.996264)"/>
       <use xlink:href="#CMSY10-0" transform="translate(91.380954 36.153639) scale(0.697382)"/>
       <use xlink:href="#CMR17-35" transform="translate(145.621947 36.153639) scale(0.697382)"/>
      </g>
     </g>
    </g>
    <g id="ytick_2">
     <g id="line2d_27">
      <path d="M 39.840298 108.254133 
L 242.03976 108.254133 
" clip-path="url(#p8599c70313)" style="fill: none; stroke: #000000; stroke-opacity: 0.03; stroke-width: 0.8; stroke-linecap: square"/>
     </g>
     <g id="line2d_28">
      <g>
       <use xlink:href="#m7dc8a30b0d" x="39.840298" y="108.254133" style="stroke: #000000; stroke-width: 0.6"/>
      </g>
     </g>
     <g id="text_6">
      <!-- $\mathdefault{10^{-4}}$ -->
      <g transform="translate(14.96288 111.021534) scale(0.08 -0.08)">
       <use xlink:href="#CMR17-31" transform="scale(0.996264)"/>
       <use xlink:href="#CMR17-30" transform="translate(45.690477 0) scale(0.996264)"/>
       <use xlink:href="#CMSY10-0" transform="translate(91.380954 36.153639) scale(0.697382)"/>
       <use xlink:href="#CMR17-34" transform="translate(145.621947 36.153639) scale(0.697382)"/>
      </g>
     </g>
    </g>
    <g id="ytick_3">
     <g id="line2d_29">
      <path d="M 39.840298 75.361569 
L 242.03976 75.361569 
" clip-path="url(#p8599c70313)" style="fill: none; stroke: #000000; stroke-opacity: 0.03; stroke-width: 0.8; stroke-linecap: square"/>
     </g>
     <g id="line2d_30">
      <g>
       <use xlink:href="#m7dc8a30b0d" x="39.840298" y="75.361569" style="stroke: #000000; stroke-width: 0.6"/>
      </g>
     </g>
     <g id="text_7">
      <!-- $\mathdefault{10^{-3}}$ -->
      <g transform="translate(14.96288 78.12897) scale(0.08 -0.08)">
       <use xlink:href="#CMR17-31" transform="scale(0.996264)"/>
       <use xlink:href="#CMR17-30" transform="translate(45.690477 0) scale(0.996264)"/>
       <use xlink:href="#CMSY10-0" transform="translate(91.380954 36.153639) scale(0.697382)"/>
       <use xlink:href="#CMR17-33" transform="translate(145.621947 36.153639) scale(0.697382)"/>
      </g>
     </g>
    </g>
    <g id="ytick_4">
     <g id="line2d_31">
      <path d="M 39.840298 42.469005 
L 242.03976 42.469005 
" clip-path="url(#p8599c70313)" style="fill: none; stroke: #000000; stroke-opacity: 0.03; stroke-width: 0.8; stroke-linecap: square"/>
     </g>
     <g id="line2d_32">
      <g>
       <use xlink:href="#m7dc8a30b0d" x="39.840298" y="42.469005" style="stroke: #000000; stroke-width: 0.6"/>
      </g>
     </g>
     <g id="text_8">
      <!-- $\mathdefault{10^{-2}}$ -->
      <g transform="translate(14.96288 45.236406) scale(0.08 -0.08)">
       <use xlink:href="#CMR17-31" transform="scale(0.996264)"/>
       <use xlink:href="#CMR17-30" transform="translate(45.690477 0) scale(0.996264)"/>
       <use xlink:href="#CMSY10-0" transform="translate(91.380954 36.153639) scale(0.697382)"/>
       <use xlink:href="#CMR17-32" transform="translate(145.621947 36.153639) scale(0.697382)"/>
      </g>
     </g>
    </g>
    <g id="ytick_5">
     <g id="line2d_33">
      <defs>
       <path id="m98bcb99b56" d="M 0 0 
L -2 0 
" style="stroke: #000000; stroke-width: 0.3"/>
      </defs>
      <g>
       <use xlink:href="#m98bcb99b56" x="39.840298" y="131.245048" style="stroke: #000000; stroke-width: 0.3"/>
      </g>
     </g>
    </g>
    <g id="ytick_6">
     <g id="line2d_34">
      <g>
       <use xlink:href="#m98bcb99b56" x="39.840298" y="125.452955" style="stroke: #000000; stroke-width: 0.3"/>
      </g>
     </g>
    </g>
    <g id="ytick_7">
     <g id="line2d_35">
      <g>
       <use xlink:href="#m98bcb99b56" x="39.840298" y="121.3434" style="stroke: #000000; stroke-width: 0.3"/>
      </g>
     </g>
    </g>
    <g id="ytick_8">
     <g id="line2d_36">
      <g>
       <use xlink:href="#m98bcb99b56" x="39.840298" y="118.155781" style="stroke: #000000; stroke-width: 0.3"/>
      </g>
     </g>
    </g>
    <g id="ytick_9">
     <g id="line2d_37">
      <g>
       <use xlink:href="#m98bcb99b56" x="39.840298" y="115.551307" style="stroke: #000000; stroke-width: 0.3"/>
      </g>
     </g>
    </g>
    <g id="ytick_10">
     <g id="line2d_38">
      <g>
       <use xlink:href="#m98bcb99b56" x="39.840298" y="113.349255" style="stroke: #000000; stroke-width: 0.3"/>
      </g>
     </g>
    </g>
    <g id="ytick_11">
     <g id="line2d_39">
      <g>
       <use xlink:href="#m98bcb99b56" x="39.840298" y="111.441752" style="stroke: #000000; stroke-width: 0.3"/>
      </g>
     </g>
    </g>
    <g id="ytick_12">
     <g id="line2d_40">
      <g>
       <use xlink:href="#m98bcb99b56" x="39.840298" y="109.759214" style="stroke: #000000; stroke-width: 0.3"/>
      </g>
     </g>
    </g>
    <g id="ytick_13">
     <g id="line2d_41">
      <g>
       <use xlink:href="#m98bcb99b56" x="39.840298" y="98.352485" style="stroke: #000000; stroke-width: 0.3"/>
      </g>
     </g>
    </g>
    <g id="ytick_14">
     <g id="line2d_42">
      <g>
       <use xlink:href="#m98bcb99b56" x="39.840298" y="92.560392" style="stroke: #000000; stroke-width: 0.3"/>
      </g>
     </g>
    </g>
    <g id="ytick_15">
     <g id="line2d_43">
      <g>
       <use xlink:href="#m98bcb99b56" x="39.840298" y="88.450836" style="stroke: #000000; stroke-width: 0.3"/>
      </g>
     </g>
    </g>
    <g id="ytick_16">
     <g id="line2d_44">
      <g>
       <use xlink:href="#m98bcb99b56" x="39.840298" y="85.263217" style="stroke: #000000; stroke-width: 0.3"/>
      </g>
     </g>
    </g>
    <g id="ytick_17">
     <g id="line2d_45">
      <g>
       <use xlink:href="#m98bcb99b56" x="39.840298" y="82.658743" style="stroke: #000000; stroke-width: 0.3"/>
      </g>
     </g>
    </g>
    <g id="ytick_18">
     <g id="line2d_46">
      <g>
       <use xlink:href="#m98bcb99b56" x="39.840298" y="80.456692" style="stroke: #000000; stroke-width: 0.3"/>
      </g>
     </g>
    </g>
    <g id="ytick_19">
     <g id="line2d_47">
      <g>
       <use xlink:href="#m98bcb99b56" x="39.840298" y="78.549188" style="stroke: #000000; stroke-width: 0.3"/>
      </g>
     </g>
    </g>
    <g id="ytick_20">
     <g id="line2d_48">
      <g>
       <use xlink:href="#m98bcb99b56" x="39.840298" y="76.86665" style="stroke: #000000; stroke-width: 0.3"/>
      </g>
     </g>
    </g>
    <g id="ytick_21">
     <g id="line2d_49">
      <g>
       <use xlink:href="#m98bcb99b56" x="39.840298" y="65.459921" style="stroke: #000000; stroke-width: 0.3"/>
      </g>
     </g>
    </g>
    <g id="ytick_22">
     <g id="line2d_50">
      <g>
       <use xlink:href="#m98bcb99b56" x="39.840298" y="59.667828" style="stroke: #000000; stroke-width: 0.3"/>
      </g>
     </g>
    </g>
    <g id="ytick_23">
     <g id="line2d_51">
      <g>
       <use xlink:href="#m98bcb99b56" x="39.840298" y="55.558272" style="stroke: #000000; stroke-width: 0.3"/>
      </g>
     </g>
    </g>
    <g id="ytick_24">
     <g id="line2d_52">
      <g>
       <use xlink:href="#m98bcb99b56" x="39.840298" y="52.370654" style="stroke: #000000; stroke-width: 0.3"/>
      </g>
     </g>
    </g>
    <g id="ytick_25">
     <g id="line2d_53">
      <g>
       <use xlink:href="#m98bcb99b56" x="39.840298" y="49.766179" style="stroke: #000000; stroke-width: 0.3"/>
      </g>
     </g>
    </g>
    <g id="ytick_26">
     <g id="line2d_54">
      <g>
       <use xlink:href="#m98bcb99b56" x="39.840298" y="47.564128" style="stroke: #000000; stroke-width: 0.3"/>
      </g>
     </g>
    </g>
    <g id="ytick_27">
     <g id="line2d_55">
      <g>
       <use xlink:href="#m98bcb99b56" x="39.840298" y="45.656624" style="stroke: #000000; stroke-width: 0.3"/>
      </g>
     </g>
    </g>
    <g id="ytick_28">
     <g id="line2d_56">
      <g>
       <use xlink:href="#m98bcb99b56" x="39.840298" y="43.974086" style="stroke: #000000; stroke-width: 0.3"/>
      </g>
     </g>
    </g>
    <g id="ytick_29">
     <g id="line2d_57">
      <g>
       <use xlink:href="#m98bcb99b56" x="39.840298" y="32.567357" style="stroke: #000000; stroke-width: 0.3"/>
      </g>
     </g>
    </g>
    <g id="ytick_30">
     <g id="line2d_58">
      <g>
       <use xlink:href="#m98bcb99b56" x="39.840298" y="26.775264" style="stroke: #000000; stroke-width: 0.3"/>
      </g>
     </g>
    </g>
    <g id="ytick_31">
     <g id="line2d_59">
      <g>
       <use xlink:href="#m98bcb99b56" x="39.840298" y="22.665708" style="stroke: #000000; stroke-width: 0.3"/>
      </g>
     </g>
    </g>
    <g id="ytick_32">
     <g id="line2d_60">
      <g>
       <use xlink:href="#m98bcb99b56" x="39.840298" y="19.47809" style="stroke: #000000; stroke-width: 0.3"/>
      </g>
     </g>
    </g>
    <g id="ytick_33">
     <g id="line2d_61">
      <g>
       <use xlink:href="#m98bcb99b56" x="39.840298" y="16.873615" style="stroke: #000000; stroke-width: 0.3"/>
      </g>
     </g>
    </g>
    <g id="text_9">
     <!-- $\mathrm{MSE}$ / ${\mathrm{Bias}}$ / $\mathrm{Var}$ -->
     <g transform="translate(10.47222 118.152685) rotate(-90) scale(0.1 -0.1)">
      <defs>
       <path id="CMR17-4d" d="M 1338 4224 
C 1299 4320 1293 4320 1158 4320 
L 339 4320 
L 339 4160 
C 781 4160 851 4160 851 3875 
L 851 610 
C 851 451 851 153 339 153 
L 339 -13 
C 486 0 755 0 915 0 
C 1075 0 1344 0 1491 -13 
L 1491 153 
C 979 153 979 451 979 610 
L 979 4135 
L 986 4135 
L 2490 89 
C 2515 25 2528 -13 2579 -13 
C 2630 -13 2643 25 2669 89 
L 4186 4166 
L 4192 4166 
L 4192 438 
C 4192 153 4122 153 3680 153 
L 3680 -13 
C 3853 0 4198 0 4384 0 
C 4570 0 4922 0 5094 -13 
L 5094 153 
C 4653 153 4582 153 4582 438 
L 4582 3875 
C 4582 4160 4653 4160 5094 4160 
L 5094 4320 
L 4282 4320 
C 4147 4320 4141 4314 4102 4218 
L 2720 502 
L 1338 4224 
z
" transform="scale(0.015625)"/>
       <path id="CMR17-53" d="M 2803 4290 
C 2803 4404 2797 4411 2758 4411 
C 2720 4411 2707 4385 2682 4328 
L 2490 3907 
C 2246 4257 1875 4416 1472 4416 
C 819 4416 294 3901 294 3253 
C 294 3056 339 2776 557 2510 
C 794 2218 1018 2167 1530 2033 
C 1722 1982 2042 1899 2106 1874 
C 2470 1722 2662 1341 2662 985 
C 2662 527 2336 38 1779 38 
C 1094 38 454 419 410 1311 
C 403 1413 397 1419 352 1419 
C 301 1419 294 1413 294 1285 
L 294 -1 
C 294 -115 301 -122 339 -122 
C 384 -122 397 -90 486 108 
C 493 127 493 140 614 381 
C 934 -39 1472 -128 1779 -128 
C 2477 -128 2970 451 2970 1124 
C 2970 1454 2848 1708 2778 1823 
C 2509 2230 2221 2306 1914 2382 
C 1869 2402 1856 2402 1498 2490 
C 1152 2579 1005 2624 845 2796 
C 666 2992 602 3196 602 3399 
C 602 3812 934 4263 1478 4263 
C 2157 4263 2579 3786 2675 2993 
C 2694 2878 2701 2872 2746 2872 
C 2803 2872 2803 2891 2803 2999 
L 2803 4290 
z
" transform="scale(0.015625)"/>
       <path id="CMR17-45" d="M 3885 1615 
L 3770 1615 
C 3629 676 3546 166 2419 166 
L 1530 166 
C 1274 166 1261 197 1261 414 
L 1261 2176 
L 1862 2176 
C 2464 2176 2522 1960 2522 1430 
L 2637 1430 
L 2637 3081 
L 2522 3081 
C 2522 2557 2464 2342 1862 2342 
L 1261 2342 
L 1261 3913 
C 1261 4128 1274 4160 1530 4160 
L 2406 4160 
C 3398 4160 3514 3769 3603 2929 
L 3718 2929 
L 3565 4325 
L 326 4325 
L 326 4160 
C 768 4160 838 4160 838 3874 
L 838 451 
C 838 166 768 166 326 166 
L 326 0 
L 3654 0 
L 3885 1615 
z
" transform="scale(0.015625)"/>
       <path id="CMR17-2f" d="M 2605 4545 
C 2637 4627 2637 4640 2637 4653 
C 2637 4729 2579 4768 2528 4768 
C 2451 4768 2426 4717 2400 4640 
L 326 -1377 
C 294 -1460 294 -1473 294 -1486 
C 294 -1562 352 -1600 403 -1600 
C 480 -1600 506 -1549 531 -1473 
L 2605 4545 
z
" transform="scale(0.015625)"/>
       <path id="CMR17-42" d="M 333 4352 
L 333 4186 
C 774 4186 845 4186 845 3900 
L 845 452 
C 845 166 774 166 333 166 
L 333 0 
L 2534 0 
C 3354 0 3885 583 3885 1164 
C 3885 1741 3360 2233 2675 2233 
C 3290 2356 3718 2771 3718 3264 
C 3718 3802 3194 4352 2368 4352 
L 333 4352 
z
M 1248 2304 
L 1248 3937 
C 1248 4155 1261 4186 1517 4186 
L 2336 4186 
C 2970 4186 3251 3674 3251 3277 
C 3251 2791 2861 2304 2170 2304 
L 1248 2304 
z
M 1517 166 
C 1261 166 1248 197 1248 413 
L 1248 2202 
L 2432 2202 
C 3091 2202 3411 1625 3411 1162 
C 3411 699 3046 166 2349 166 
L 1517 166 
z
" transform="scale(0.015625)"/>
       <path id="CMR17-56" d="M 3776 3745 
C 3834 3886 3936 4160 4365 4160 
L 4365 4332 
C 4218 4319 4051 4319 3891 4319 
C 3738 4319 3475 4319 3328 4332 
L 3328 4160 
C 3648 4160 3661 3936 3661 3898 
C 3661 3827 3642 3783 3622 3732 
L 2362 446 
L 1043 3886 
C 1024 3931 1011 3963 1011 3994 
C 1011 4160 1267 4160 1402 4160 
L 1402 4319 
C 1197 4319 896 4319 685 4319 
C 518 4319 218 4319 64 4332 
L 64 4160 
C 435 4160 506 4135 582 3931 
L 2106 -26 
C 2138 -115 2144 -128 2214 -128 
C 2285 -128 2291 -115 2323 -26 
L 3776 3745 
z
" transform="scale(0.015625)"/>
      </defs>
      <use xlink:href="#CMR17-4d" transform="scale(0.996264)"/>
      <use xlink:href="#CMR17-53" transform="translate(84.686941 0) scale(0.996264)"/>
      <use xlink:href="#CMR17-45" transform="translate(135.58231 0) scale(0.996264)"/>
      <use xlink:href="#CMR17-2f" transform="translate(228.244577 0) scale(0.996264)"/>
      <use xlink:href="#CMR17-42" transform="translate(304.011021 0) scale(0.996264)"/>
      <use xlink:href="#CMR17-69" transform="translate(369.199775 0) scale(0.996264)"/>
      <use xlink:href="#CMR17-61" transform="translate(394.070834 0) scale(0.996264)"/>
      <use xlink:href="#CMR17-73" transform="translate(439.761311 0) scale(0.996264)"/>
      <use xlink:href="#CMR17-2f" transform="translate(505.638615 0) scale(0.996264)"/>
      <use xlink:href="#CMR17-56" transform="translate(581.405058 0) scale(0.996264)"/>
      <use xlink:href="#CMR17-61" transform="translate(642.670233 0) scale(0.996264)"/>
      <use xlink:href="#CMR17-72" transform="translate(688.36071 0) scale(0.996264)"/>
     </g>
    </g>
   </g>
   <g id="line2d_62">
    <path d="M 49.031182 20.752701 
L 50.887927 27.560989 
L 52.744671 38.127369 
L 54.601416 32.533966 
L 56.45816 31.212433 
L 58.314904 27.551573 
L 60.171649 25.222099 
L 62.028393 31.914302 
L 63.885137 20.714822 
L 65.741882 20.883529 
L 67.598626 25.426882 
L 69.455371 28.074197 
L 71.312115 25.990619 
L 73.168859 31.19976 
L 75.025604 33.860188 
L 76.882348 33.903185 
L 78.739092 31.923566 
L 80.595837 28.502226 
L 82.452581 26.745327 
L 84.309326 31.359717 
L 86.16607 30.816778 
L 88.022814 32.078641 
L 89.879559 32.916209 
L 91.736303 31.250715 
L 93.593047 29.110846 
L 95.449792 30.297432 
L 97.306536 34.814156 
L 99.163281 32.583514 
L 101.020025 31.997407 
L 102.876769 29.922077 
L 104.733514 34.597395 
L 106.590258 31.305761 
L 108.447002 31.280515 
L 110.303747 33.340665 
L 112.160491 31.505065 
L 114.017235 30.315042 
L 115.87398 30.125248 
L 117.730724 34.428741 
L 119.587469 36.086783 
L 121.444213 35.605613 
L 123.300957 30.230336 
L 125.157702 33.317403 
L 127.014446 31.465613 
L 128.87119 33.995468 
L 130.727935 30.028048 
L 132.584679 32.729303 
L 134.441424 33.27513 
L 136.298168 33.371113 
L 138.154912 33.408478 
L 140.011657 32.85694 
L 141.868401 33.862686 
L 143.725145 33.380801 
L 145.58189 33.721349 
L 147.438634 34.187317 
L 149.295379 32.749049 
L 151.152123 33.301124 
L 153.008867 33.421657 
L 154.865612 31.360737 
L 156.722356 32.824839 
L 158.5791 32.574126 
L 160.435845 32.393351 
L 162.292589 31.1694 
L 164.149334 32.534932 
L 166.006078 35.383864 
L 167.862822 33.545654 
L 169.719567 34.929701 
L 171.576311 33.39921 
L 173.433055 34.191069 
L 175.2898 32.7562 
L 177.146544 33.366206 
L 179.003289 32.690487 
L 180.860033 32.747172 
L 182.716777 33.831462 
L 184.573522 32.299112 
L 186.430266 32.546453 
L 188.28701 33.024821 
L 190.143755 34.06943 
L 192.000499 33.334547 
L 193.857244 32.021163 
L 195.713988 31.541218 
L 197.570732 32.058165 
L 199.427477 33.3318 
L 201.284221 32.163187 
L 203.140965 33.004732 
L 204.99771 32.745239 
L 206.854454 33.298758 
L 208.711199 32.858399 
L 210.567943 32.767702 
L 212.424687 32.911418 
L 214.281432 32.711916 
L 216.138176 32.579313 
L 217.99492 33.20268 
L 219.851665 33.164432 
L 221.708409 33.457255 
L 223.565153 33.100048 
L 225.421898 32.910354 
L 227.278642 33.113273 
L 229.135387 32.197352 
L 230.992131 32.80726 
L 232.848875 33.972177 
" clip-path="url(#p8599c70313)" style="fill: none; stroke: #1f77b4; stroke-width: 0.6; stroke-linecap: square"/>
   </g>
   <g id="line2d_63">
    <path d="M 49.031182 25.945443 
L 50.887927 32.024515 
L 52.744671 41.130859 
L 54.601416 33.989589 
L 56.45816 33.724901 
L 58.314904 29.198511 
L 60.171649 26.584535 
L 62.028393 34.972249 
L 63.885137 22.029738 
L 65.741882 22.146542 
L 67.598626 26.846775 
L 69.455371 29.611084 
L 71.312115 27.055082 
L 73.168859 32.411423 
L 75.025604 34.883599 
L 76.882348 34.937677 
L 78.739092 32.606128 
L 80.595837 29.059663 
L 82.452581 27.310857 
L 84.309326 32.063805 
L 86.16607 31.292883 
L 88.022814 32.579252 
L 89.879559 33.645592 
L 91.736303 31.648167 
L 93.593047 29.421493 
L 95.449792 30.63016 
L 97.306536 35.351419 
L 99.163281 32.978366 
L 101.020025 32.318193 
L 102.876769 30.220347 
L 104.733514 34.958687 
L 106.590258 31.619256 
L 108.447002 31.532743 
L 110.303747 33.677227 
L 112.160491 31.768285 
L 114.017235 30.575681 
L 115.87398 30.293036 
L 117.730724 34.668972 
L 119.587469 36.346922 
L 121.444213 35.789116 
L 123.300957 30.352253 
L 125.157702 33.45941 
L 127.014446 31.597835 
L 128.87119 34.134149 
L 130.727935 30.118372 
L 132.584679 32.843124 
L 134.441424 33.394493 
L 136.298168 33.480646 
L 138.154912 33.523121 
L 140.011657 32.957499 
L 141.868401 33.973056 
L 143.725145 33.4768 
L 145.58189 33.815504 
L 147.438634 34.283462 
L 149.295379 32.835075 
L 151.152123 33.380188 
L 153.008867 33.498262 
L 154.865612 31.422998 
L 156.722356 32.888519 
L 158.5791 32.630349 
L 160.435845 32.44224 
L 162.292589 31.215146 
L 164.149334 32.58389 
L 166.006078 35.441614 
L 167.862822 33.596897 
L 169.719567 34.987872 
L 171.576311 33.444835 
L 173.433055 34.23776 
L 175.2898 32.797205 
L 177.146544 33.406009 
L 179.003289 32.728074 
L 180.860033 32.784496 
L 182.716777 33.868061 
L 184.573522 32.331763 
L 186.430266 32.575256 
L 188.28701 33.05552 
L 190.143755 34.100453 
L 192.000499 33.360954 
L 193.857244 32.043438 
L 195.713988 31.563175 
L 197.570732 32.079421 
L 199.427477 33.354921 
L 201.284221 32.183793 
L 203.140965 33.025489 
L 204.99771 32.764572 
L 206.854454 33.317246 
L 208.711199 32.876067 
L 210.567943 32.784016 
L 212.424687 32.92764 
L 214.281432 32.726978 
L 216.138176 32.594256 
L 217.99492 33.217096 
L 219.851665 33.178192 
L 221.708409 33.471115 
L 223.565153 33.111978 
L 225.421898 32.922147 
L 227.278642 33.124741 
L 229.135387 32.207596 
L 230.992131 32.8177 
L 232.848875 33.982988 
" clip-path="url(#p8599c70313)" style="fill: none; stroke-dasharray: 2.22,0.96; stroke-dashoffset: 0; stroke: #ff7f0e; stroke-width: 0.6"/>
   </g>
   <g id="line2d_64">
    <path d="M 49.031182 37.726307 
L 50.887927 46.352143 
L 52.744671 61.87949 
L 54.601416 65.879538 
L 56.45816 57.276958 
L 58.314904 59.227097 
L 60.171649 59.466942 
L 62.028393 55.436006 
L 63.885137 55.443402 
L 65.741882 56.161851 
L 67.598626 59.109899 
L 69.455371 60.683647 
L 71.312115 63.614176 
L 73.168859 67.045692 
L 75.025604 72.025305 
L 76.882348 71.919917 
L 78.739092 75.705998 
L 80.595837 75.11533 
L 82.452581 73.156578 
L 84.309326 74.709292 
L 86.16607 79.64236 
L 88.022814 80.199447 
L 89.879559 75.774115 
L 91.736303 82.616585 
L 93.593047 83.953558 
L 95.449792 84.17021 
L 97.306536 81.943832 
L 99.163281 84.041821 
L 101.020025 86.386385 
L 102.876769 85.339423 
L 104.733514 87.307865 
L 106.590258 86.019503 
L 108.447002 89.070003 
L 110.303747 87.051695 
L 112.160491 88.690696 
L 114.017235 87.640151 
L 115.87398 93.695703 
L 117.730724 92.908409 
L 119.587469 93.439082 
L 121.444213 97.90496 
L 123.300957 98.339927 
L 125.157702 99.258027 
L 127.014446 98.421175 
L 128.87119 100.273107 
L 130.727935 102.406586 
L 132.584679 101.816393 
L 134.441424 101.685873 
L 136.298168 103.004672 
L 138.154912 102.393257 
L 140.011657 103.707211 
L 141.868401 103.387893 
L 143.725145 104.891697 
L 145.58189 105.508257 
L 147.438634 105.676508 
L 149.295379 105.821931 
L 151.152123 107.575931 
L 153.008867 108.146795 
L 154.865612 109.040244 
L 156.722356 110.183108 
L 158.5791 111.707742 
L 160.435845 113.520123 
L 162.292589 113.243756 
L 164.149334 113.641619 
L 166.006078 114.135477 
L 167.862822 114.001722 
L 169.719567 113.577672 
L 171.576311 115.511317 
L 173.433055 115.973679 
L 175.2898 116.390982 
L 177.146544 117.425382 
L 179.003289 117.566884 
L 180.860033 117.723599 
L 182.716777 119.088005 
L 184.573522 119.183856 
L 186.430266 121.221074 
L 188.28701 120.789659 
L 190.143755 121.684224 
L 192.000499 123.248365 
L 193.857244 124.36384 
L 195.713988 124.089412 
L 197.570732 125.069344 
L 199.427477 125.142397 
L 201.284221 125.618132 
L 203.140965 126.354786 
L 204.99771 127.11028 
L 206.854454 128.302001 
L 208.711199 128.509045 
L 210.567943 129.556303 
L 212.424687 129.780639 
L 214.281432 130.641057 
L 216.138176 130.62087 
L 217.99492 131.75713 
L 219.851665 132.38485 
L 221.708409 132.573482 
L 223.565153 134.356572 
L 225.421898 134.333012 
L 227.278642 134.933927 
L 229.135387 135.629512 
L 230.992131 135.969943 
L 232.848875 136.636489 
" clip-path="url(#p8599c70313)" style="fill: none; stroke: #2ca02c; stroke-width: 0.6; stroke-linecap: square"/>
   </g>
   <g id="patch_3">
    <path d="M 39.840298 142.432572 
L 39.840298 14.918738 
" style="fill: none; stroke: #000000; stroke-width: 0.5; stroke-linejoin: miter; stroke-linecap: square"/>
   </g>
   <g id="patch_4">
    <path d="M 242.03976 142.432572 
L 242.03976 14.918738 
" style="fill: none; stroke: #000000; stroke-width: 0.5; stroke-linejoin: miter; stroke-linecap: square"/>
   </g>
   <g id="patch_5">
    <path d="M 39.840298 142.432572 
L 242.03976 142.432572 
" style="fill: none; stroke: #000000; stroke-width: 0.5; stroke-linejoin: miter; stroke-linecap: square"/>
   </g>
   <g id="patch_6">
    <path d="M 39.840298 14.918738 
L 242.03976 14.918738 
" style="fill: none; stroke: #000000; stroke-width: 0.5; stroke-linejoin: miter; stroke-linecap: square"/>
   </g>
   <g id="text_10">
    <!-- Resampled Metrics vs. Data Size -->
    <g transform="translate(68.613924 9.918738) scale(0.1 -0.1)">
     <defs>
      <path id="CMR17-52" d="M 2509 2146 
C 3117 2268 3629 2676 3629 3186 
C 3629 3785 2950 4326 2054 4326 
L 333 4326 
L 333 4160 
C 774 4160 845 4160 845 3873 
L 845 415 
C 845 128 774 128 333 128 
L 333 -26 
C 518 -26 851 -26 1050 -26 
C 1248 -26 1581 -26 1766 -26 
L 1766 128 
C 1325 128 1254 128 1254 417 
L 1254 2112 
L 2003 2112 
C 2368 2112 2573 1964 2662 1881 
C 2918 1632 2918 1459 2918 1024 
C 2918 595 2918 377 3110 160 
C 3354 -102 3680 -128 3821 -128 
C 4294 -128 4365 396 4365 503 
C 4365 540 4365 585 4307 585 
C 4256 585 4250 547 4250 522 
C 4218 112 4032 -26 3834 -26 
C 3482 -26 3443 375 3405 764 
C 3386 898 3373 993 3360 1133 
C 3322 1452 3270 1917 2509 2146 
z
M 1984 2214 
L 1254 2214 
L 1254 3913 
C 1254 4129 1267 4160 1523 4160 
L 1990 4160 
C 2522 4160 3142 3977 3142 3190 
C 3142 2372 2464 2214 1984 2214 
z
" transform="scale(0.015625)"/>
      <path id="CMR17-6c" d="M 979 4396 
L 218 4326 
L 218 4160 
C 595 4160 653 4122 653 3817 
L 653 426 
C 653 184 627 153 218 153 
L 218 -13 
C 371 0 653 0 813 0 
C 979 0 1261 0 1414 -13 
L 1414 153 
C 1005 153 979 178 979 426 
L 979 4396 
z
" transform="scale(0.015625)"/>
      <path id="CMR17-63" d="M 2234 2240 
C 2112 2240 1933 2240 1933 2017 
C 1933 1838 2080 1787 2163 1787 
C 2208 1787 2394 1807 2394 2024 
C 2394 2467 1958 2803 1466 2803 
C 787 2803 211 2178 211 1363 
C 211 516 813 -64 1466 -64 
C 2259 -64 2458 677 2458 748 
C 2458 774 2451 793 2406 793 
C 2362 793 2355 787 2330 703 
C 2163 180 1798 51 1523 51 
C 1114 51 621 427 621 1369 
C 621 2338 1094 2688 1472 2688 
C 1722 2688 2093 2573 2234 2240 
z
" transform="scale(0.015625)"/>
      <path id="CMR17-76" d="M 2502 2163 
C 2560 2304 2662 2560 3034 2560 
L 3034 2726 
C 2912 2726 2752 2726 2630 2726 
C 2496 2726 2285 2726 2157 2732 
L 2157 2566 
C 2317 2553 2406 2477 2406 2311 
C 2406 2253 2406 2240 2368 2151 
L 1664 377 
L 902 2286 
C 864 2369 864 2381 864 2407 
C 864 2560 1075 2560 1171 2560 
L 1171 2732 
C 1018 2726 736 2726 576 2726 
C 403 2726 205 2726 64 2732 
L 64 2560 
C 307 2560 442 2560 518 2362 
L 1446 44 
C 1485 -51 1491 -64 1549 -64 
C 1606 -64 1613 -51 1651 44 
L 2502 2163 
z
" transform="scale(0.015625)"/>
      <path id="CMR17-2e" d="M 1062 261 
C 1062 420 934 522 800 522 
C 672 522 538 420 538 261 
C 538 102 666 0 800 0 
C 928 0 1062 102 1062 261 
z
" transform="scale(0.015625)"/>
      <path id="CMR17-44" d="M 333 4352 
L 333 4186 
C 774 4186 845 4186 845 3900 
L 845 452 
C 845 166 774 166 333 166 
L 333 0 
L 2368 0 
C 3398 0 4224 943 4224 2141 
C 4224 3346 3411 4352 2368 4352 
L 333 4352 
z
M 1523 166 
C 1267 166 1254 197 1254 414 
L 1254 3938 
C 1254 4155 1267 4186 1523 4186 
L 2240 4186 
C 2771 4186 3750 3874 3750 2141 
C 3750 1242 3488 879 3366 707 
C 3213 510 2848 166 2240 166 
L 1523 166 
z
" transform="scale(0.015625)"/>
      <path id="CMR17-7a" d="M 2310 2605 
C 2362 2670 2362 2682 2362 2695 
C 2362 2752 2336 2752 2221 2752 
L 275 2752 
L 211 1760 
L 326 1760 
C 371 2381 442 2650 1178 2650 
L 1958 2650 
L 128 96 
C 128 0 134 0 269 0 
L 2291 0 
L 2381 1152 
L 2266 1152 
C 2214 442 2131 115 1350 115 
L 531 115 
L 2310 2605 
z
" transform="scale(0.015625)"/>
     </defs>
     <use xlink:href="#CMR17-52" transform="scale(0.996264)"/>
     <use xlink:href="#CMR17-65" transform="translate(67.791102 0) scale(0.996264)"/>
     <use xlink:href="#CMR17-73" transform="translate(108.276762 0) scale(0.996264)"/>
     <use xlink:href="#CMR17-61" transform="translate(144.0781 0) scale(0.996264)"/>
     <use xlink:href="#CMR17-6d" transform="translate(189.768577 0) scale(0.996264)"/>
     <use xlink:href="#CMR17-70" transform="translate(266.688167 0) scale(0.996264)"/>
     <use xlink:href="#CMR17-6c" transform="translate(317.583537 0) scale(0.996264)"/>
     <use xlink:href="#CMR17-65" transform="translate(342.454595 0) scale(0.996264)"/>
     <use xlink:href="#CMR17-64" transform="translate(382.940256 0) scale(0.996264)"/>
     <use xlink:href="#CMR17-4d" transform="translate(463.911592 0) scale(0.996264)"/>
     <use xlink:href="#CMR17-65" transform="translate(548.598532 0) scale(0.996264)"/>
     <use xlink:href="#CMR17-74" transform="translate(589.084193 0) scale(0.996264)"/>
     <use xlink:href="#CMR17-72" transform="translate(624.364961 0) scale(0.996264)"/>
     <use xlink:href="#CMR17-69" transform="translate(659.645729 0) scale(0.996264)"/>
     <use xlink:href="#CMR17-63" transform="translate(684.516787 0) scale(0.996264)"/>
     <use xlink:href="#CMR17-73" transform="translate(725.002447 0) scale(0.996264)"/>
     <use xlink:href="#CMR17-76" transform="translate(790.879751 0) scale(0.996264)"/>
     <use xlink:href="#CMR17-73" transform="translate(839.172667 0) scale(0.996264)"/>
     <use xlink:href="#CMR17-2e" transform="translate(874.974005 0) scale(0.996264)"/>
     <use xlink:href="#CMR17-44" transform="translate(940.330724 0) scale(0.996264)"/>
     <use xlink:href="#CMR17-61" transform="translate(1010.72428 0) scale(0.996264)"/>
     <use xlink:href="#CMR17-74" transform="translate(1056.414757 0) scale(0.996264)"/>
     <use xlink:href="#CMR17-61" transform="translate(1091.695525 0) scale(0.996264)"/>
     <use xlink:href="#CMR17-53" transform="translate(1167.461968 0) scale(0.996264)"/>
     <use xlink:href="#CMR17-69" transform="translate(1218.357338 0) scale(0.996264)"/>
     <use xlink:href="#CMR17-7a" transform="translate(1243.228396 0) scale(0.996264)"/>
     <use xlink:href="#CMR17-65" transform="translate(1283.714057 0) scale(0.996264)"/>
    </g>
   </g>
   <g id="legend_1">
    <g id="patch_7">
     <path d="M 40.840298 141.432572 
L 93.287702 141.432572 
L 93.287702 96.621037 
L 40.840298 96.621037 
z
" style="fill: #ffffff; opacity: 0.8; stroke: #cccccc; stroke-width: 0.5; stroke-linejoin: miter"/>
    </g>
    <g id="line2d_65">
     <path d="M 44.840298 104.121037 
L 54.840298 104.121037 
L 64.840298 104.121037 
" style="fill: none; stroke: #1f77b4; stroke-width: 0.6; stroke-linecap: square"/>
    </g>
    <g id="text_11">
     <!-- $\overline\mathrm{MSE}$ -->
     <g transform="translate(67.840298 107.621037) scale(0.1 -0.1)">
      <use xlink:href="#CMR17-4d" transform="scale(0.996264)"/>
      <use xlink:href="#CMR17-53" transform="translate(84.686941 0) scale(0.996264)"/>
      <use xlink:href="#CMR17-45" transform="translate(135.58231 0) scale(0.996264)"/>
      <path d="M 0 80.018823 
L 198.168611 80.018823 
L 198.168611 84.003772 
L 0 84.003772 
L 0 80.018823 
z
"/>
     </g>
    </g>
    <g id="line2d_66">
     <path d="M 44.840298 118.058216 
L 54.840298 118.058216 
L 64.840298 118.058216 
" style="fill: none; stroke-dasharray: 2.22,0.96; stroke-dashoffset: 0; stroke: #ff7f0e; stroke-width: 0.6"/>
    </g>
    <g id="text_12">
     <!-- $\overline\mathrm{Bias}$ -->
     <g transform="translate(67.840298 121.558216) scale(0.1 -0.1)">
      <use xlink:href="#CMR17-42" transform="scale(0.996264)"/>
      <use xlink:href="#CMR17-69" transform="translate(65.188754 0) scale(0.996264)"/>
      <use xlink:href="#CMR17-61" transform="translate(90.059813 0) scale(0.996264)"/>
      <use xlink:href="#CMR17-73" transform="translate(135.75029 0) scale(0.996264)"/>
      <path d="M 0 80.018823 
L 171.551628 80.018823 
L 171.551628 84.003772 
L 0 84.003772 
L 0 80.018823 
z
"/>
     </g>
    </g>
    <g id="line2d_67">
     <path d="M 44.840298 131.995394 
L 54.840298 131.995394 
L 64.840298 131.995394 
" style="fill: none; stroke: #2ca02c; stroke-width: 0.6; stroke-linecap: square"/>
    </g>
    <g id="text_13">
     <!-- $\overline\mathrm{Var}$ -->
     <g transform="translate(67.840298 135.495394) scale(0.1 -0.1)">
      <use xlink:href="#CMR17-56" transform="scale(0.996264)"/>
      <use xlink:href="#CMR17-61" transform="translate(61.265174 0) scale(0.996264)"/>
      <use xlink:href="#CMR17-72" transform="translate(106.955652 0) scale(0.996264)"/>
      <path d="M 0 80.018823 
L 142.236419 80.018823 
L 142.236419 84.003772 
L 0 84.003772 
L 0 80.018823 
z
"/>
     </g>
    </g>
   </g>
  </g>
 </g>
 <defs>
  <clipPath id="p8599c70313">
   <rect x="39.840298" y="14.918738" width="202.199462" height="127.513834"/>
  </clipPath>
 </defs>
</svg>
